<?xml version="1.0" encoding="utf-8"?>
<!-- Generator: Adobe Illustrator 27.5.0, SVG Export Plug-In . SVG Version: 6.00 Build 0)  -->
<svg version="1.1" xmlns="http://www.w3.org/2000/svg" xmlns:xlink="http://www.w3.org/1999/xlink" x="0px" y="0px"
	 viewBox="0 0 750 500" style="enable-background:new 0 0 750 500;" xml:space="preserve">
<g id="BACKGROUND">
	<rect style="fill:#2FD3DD;" width="750" height="500"/>
</g>
<g id="OBJECTS">
	<g>
		<defs>
			<rect id="SVGID_1_" width="750" height="500"/>
		</defs>
		<clipPath id="SVGID_00000023256969652944375120000015446591313408136115_">
			<use xlink:href="#SVGID_1_"  style="overflow:visible;"/>
		</clipPath>
		<g style="clip-path:url(#SVGID_00000023256969652944375120000015446591313408136115_);">
			<g>
				<path style="fill:none;stroke:#1B8487;stroke-width:1.5;stroke-linecap:round;stroke-linejoin:round;stroke-miterlimit:10;" d="
					M654.635,323.668c0,0,19.849,8.887,19.849,59.584"/>
				<path style="fill:none;stroke:#1B8487;stroke-width:1.5;stroke-linecap:round;stroke-linejoin:round;stroke-miterlimit:10;" d="
					M697.053,311.867c0,0-12.002,1.187-18.244,11.801"/>
				<path style="fill:none;stroke:#1B8487;stroke-width:1.5;stroke-linecap:round;stroke-linejoin:round;stroke-miterlimit:10;" d="
					M671.43,274.966c0,0-0.995,10.367,10.336,30.278"/>
				<path style="fill:none;stroke:#1B8487;stroke-width:1.5;stroke-linecap:round;stroke-linejoin:round;stroke-miterlimit:10;" d="
					M660.498,341.612c0,0,4.769-0.906,9.846,6.932"/>
				<path style="fill:none;stroke:#1B8487;stroke-width:1.5;stroke-linecap:round;stroke-linejoin:round;stroke-miterlimit:10;" d="
					M700.157,330.18c0,0-14.209-4.966-24.175,18.364"/>
				<path style="fill:#1B8487;" d="M607.429,277.611c0,0,19.544,91.655,55.599,55.599
					C699.084,297.154,607.429,277.611,607.429,277.611z"/>
				<path style="fill:#1B8487;" d="M659.833,223.386c0,0-27.583,65.978,10.702,59.038
					C708.821,275.483,659.833,223.386,659.833,223.386z"/>
				<path style="fill:#1B8487;" d="M761.616,304.395c0,0-80.45-33.633-71.987,13.05
					C698.091,364.127,761.616,304.395,761.616,304.395z"/>
				<path style="fill:#20AFBA;" d="M604.002,348.995c0,0,65.978,27.583,59.038-10.702
					C656.099,300.007,604.002,348.995,604.002,348.995z"/>
				<path style="fill:#20AFBA;" d="M738.458,235.048c0,0-91.654,19.544-55.599,55.599
					C718.914,326.702,738.458,235.048,738.458,235.048z"/>
				<path style="fill:#20AFBA;" d="M746.025,361.086c0,0-27.149-66.158-49.314-34.178
					C674.547,358.887,746.025,361.086,746.025,361.086z"/>
				<path style="fill:none;stroke:#1B8487;stroke-width:1.5;stroke-linecap:round;stroke-linejoin:round;stroke-miterlimit:10;" d="
					M674.456,388.718c0-75.578,11.834-97.492,11.834-97.492s13.968-36.721,50.339-55.261"/>
				<polygon style="fill:#FF512C;" points="724.855,367.212 619.599,367.212 631.514,485.678 712.94,485.678 				"/>
				<rect x="617.638" y="367.212" style="fill:#FF512C;" width="109.177" height="24.115"/>
				<path style="fill:none;stroke:#1B8487;stroke-width:1.5;stroke-linecap:round;stroke-linejoin:round;stroke-miterlimit:10;" d="
					M694.561,329.59c4.974-1.08,19.306-0.035,49.011,30.159"/>
				<path style="fill:none;stroke:#1B8487;stroke-width:1.5;stroke-linecap:round;stroke-linejoin:round;stroke-miterlimit:10;" d="
					M665.421,343.192c0,0-15.36-13.524-48.943,3.37"/>
				
					<line style="fill:none;stroke:#1B8487;stroke-width:1.5;stroke-linecap:round;stroke-linejoin:round;stroke-miterlimit:10;" x1="626.655" y1="351.65" x2="634.86" y2="339.631"/>
				
					<line style="fill:none;stroke:#1B8487;stroke-width:1.5;stroke-linecap:round;stroke-linejoin:round;stroke-miterlimit:10;" x1="634.86" y1="330.686" x2="645.632" y2="338.068"/>
				
					<line style="fill:none;stroke:#1B8487;stroke-width:1.5;stroke-linecap:round;stroke-linejoin:round;stroke-miterlimit:10;" x1="656.996" y1="339.268" x2="642.745" y2="357.619"/>
				
					<line style="fill:none;stroke:#1B8487;stroke-width:1.5;stroke-linecap:round;stroke-linejoin:round;stroke-miterlimit:10;" x1="700.157" y1="330.18" x2="705.19" y2="351.99"/>
				
					<line style="fill:none;stroke:#1B8487;stroke-width:1.5;stroke-linecap:round;stroke-linejoin:round;stroke-miterlimit:10;" x1="708.832" y1="332.429" x2="723.59" y2="326.247"/>
				
					<line style="fill:none;stroke:#1B8487;stroke-width:1.5;stroke-linecap:round;stroke-linejoin:round;stroke-miterlimit:10;" x1="716.426" y1="336.721" x2="719.917" y2="356.591"/>
				
					<line style="fill:none;stroke:#1B8487;stroke-width:1.5;stroke-linecap:round;stroke-linejoin:round;stroke-miterlimit:10;" x1="726.816" y1="344.371" x2="736.787" y2="344.371"/>
				
					<line style="fill:none;stroke:#1B8487;stroke-width:1.5;stroke-linecap:round;stroke-linejoin:round;stroke-miterlimit:10;" x1="680.287" y1="262.314" x2="688.07" y2="287.214"/>
				
					<line style="fill:none;stroke:#1B8487;stroke-width:1.5;stroke-linecap:round;stroke-linejoin:round;stroke-miterlimit:10;" x1="720.279" y1="281.39" x2="692.153" y2="279.574"/>
				
					<line style="fill:none;stroke:#1B8487;stroke-width:1.5;stroke-linecap:round;stroke-linejoin:round;stroke-miterlimit:10;" x1="693.673" y1="251.957" x2="697.053" y2="270.3"/>
				
					<line style="fill:none;stroke:#1B8487;stroke-width:1.5;stroke-linecap:round;stroke-linejoin:round;stroke-miterlimit:10;" x1="727.723" y1="266.039" x2="702.152" y2="264.99"/>
				
					<line style="fill:none;stroke:#1B8487;stroke-width:1.5;stroke-linecap:round;stroke-linejoin:round;stroke-miterlimit:10;" x1="708.878" y1="245.12" x2="708.616" y2="256.953"/>
				
					<line style="fill:none;stroke:#1B8487;stroke-width:1.5;stroke-linecap:round;stroke-linejoin:round;stroke-miterlimit:10;" x1="732.858" y1="251.539" x2="715.466" y2="250.543"/>
				<polygon style="fill:#E23D23;" points="630.758,391.326 723.13,391.326 720.847,407.059 				"/>
			</g>
			<g>
				
					<path style="fill:#2FD3DD;stroke:#FFFFFF;stroke-width:1.4064;stroke-linecap:round;stroke-linejoin:round;stroke-miterlimit:10;" d="
					M559.873,372.034H50.398c-3.801,0-6.91-3.109-6.91-6.91V28.405c0-3.801,3.11-6.91,6.91-6.91h509.475
					c3.801,0,6.91,3.11,6.91,6.91v336.718C566.783,368.924,563.673,372.034,559.873,372.034z"/>
				
					<line style="fill:#FFFFFF;stroke:#FFFFFF;stroke-width:1.4064;stroke-linecap:round;stroke-linejoin:round;stroke-miterlimit:10;" x1="43.488" y1="42.854" x2="566.783" y2="42.854"/>
				<g>
					<path style="fill:#FFFFFF;" d="M52.158,32.597c0,1.978,1.603,3.581,3.581,3.581s3.581-1.603,3.581-3.581
						c0-1.978-1.603-3.581-3.581-3.581S52.158,30.619,52.158,32.597z"/>
					<path style="fill:#FFFFFF;" d="M66.904,32.597c0,1.978,1.603,3.581,3.581,3.581c1.978,0,3.581-1.603,3.581-3.581
						c0-1.978-1.603-3.581-3.581-3.581C68.507,29.016,66.904,30.619,66.904,32.597z"/>
					<path style="fill:#FFFFFF;" d="M81.651,32.597c0,1.978,1.603,3.581,3.581,3.581c1.978,0,3.581-1.603,3.581-3.581
						c0-1.978-1.603-3.581-3.581-3.581C83.254,29.016,81.651,30.619,81.651,32.597z"/>
				</g>
				
					<line style="fill:#FFFFFF;stroke:#FFFFFF;stroke-width:1.4064;stroke-linecap:round;stroke-linejoin:round;stroke-miterlimit:10;" x1="43.488" y1="65.561" x2="566.783" y2="65.561"/>
				<polygon style="fill:#FFFFFF;" points="59.925,49.633 59.925,60.165 53.834,54.899 				"/>
				<polygon style="fill:#20AFBA;" points="70.063,60.213 70.063,49.681 76.154,54.947 				"/>
				<g>
					<g>
						<path style="fill:#20AFBA;" d="M87.339,60.257c-0.138,0-0.276-0.04-0.398-0.124c-2.53-1.743-3.171-5.219-1.429-7.75
							c1.497-2.173,4.484-2.724,6.657-1.228c1.013,0.698,1.658,1.801,1.77,3.027c0.035,0.387-0.25,0.729-0.637,0.764
							c-0.38,0.036-0.729-0.25-0.764-0.637c-0.074-0.809-0.499-1.536-1.167-1.996c-1.534-1.056-3.644-0.668-4.701,0.867
							c-1.302,1.892-0.823,4.491,1.069,5.794c0.32,0.22,0.4,0.658,0.18,0.978C87.783,60.151,87.563,60.257,87.339,60.257z"/>
					</g>
					<g>
						<g>
							<polygon style="fill:#20AFBA;" points="91.622,53.439 92.647,56.497 94.784,54.08 							"/>
						</g>
					</g>
				</g>
				<g>
					<rect x="545.639" y="48.555" style="fill:#20AFBA;" width="12.585" height="2.129"/>
					<rect x="545.639" y="57.73" style="fill:#20AFBA;" width="12.585" height="2.13"/>
					<rect x="545.639" y="53.142" style="fill:#20AFBA;" width="12.585" height="2.129"/>
				</g>
			</g>
			<g>
				<path style="fill:#20AFBA;stroke:#FFFFFF;stroke-width:1.4064;stroke-miterlimit:10;" d="M601.526,402.114H92.052
					c-3.8,0-6.91-3.11-6.91-6.91V58.485c0-3.801,3.11-6.91,6.91-6.91h509.475c3.801,0,6.91,3.11,6.91,6.91v336.718
					C608.437,399.004,605.327,402.114,601.526,402.114z"/>
				
					<line style="fill:#FFFFFF;stroke:#FFFFFF;stroke-width:1.4064;stroke-linecap:round;stroke-linejoin:round;stroke-miterlimit:10;" x1="85.141" y1="72.934" x2="608.437" y2="72.934"/>
				<g>
					<path style="fill:#FFFFFF;" d="M93.811,62.677c0,1.978,1.603,3.581,3.581,3.581c1.978,0,3.581-1.603,3.581-3.581
						c0-1.978-1.603-3.581-3.581-3.581C95.414,59.096,93.811,60.699,93.811,62.677z"/>
					<path style="fill:#FFFFFF;" d="M108.558,62.677c0,1.978,1.603,3.581,3.581,3.581c1.978,0,3.581-1.603,3.581-3.581
						c0-1.978-1.603-3.581-3.581-3.581C110.161,59.096,108.558,60.699,108.558,62.677z"/>
					<path style="fill:#FFFFFF;" d="M123.304,62.677c0,1.978,1.603,3.581,3.581,3.581c1.978,0,3.581-1.603,3.581-3.581
						c0-1.978-1.603-3.581-3.581-3.581C124.908,59.096,123.304,60.699,123.304,62.677z"/>
				</g>
				
					<line style="fill:#FFFFFF;stroke:#FFFFFF;stroke-width:1.4064;stroke-linecap:round;stroke-linejoin:round;stroke-miterlimit:10;" x1="85.141" y1="95.641" x2="608.437" y2="95.641"/>
				<polygon style="fill:#F9F3EA;" points="101.578,79.713 101.578,90.245 95.487,84.979 				"/>
				<polygon style="fill:#2FD3DD;" points="111.717,90.293 111.717,79.761 117.808,85.027 				"/>
				<g>
					<g>
						<path style="fill:#2FD3DD;" d="M128.993,90.337c-0.138,0-0.276-0.04-0.398-0.124c-1.226-0.844-2.05-2.115-2.32-3.579
							c-0.27-1.464,0.046-2.945,0.891-4.171c0.725-1.053,1.816-1.76,3.074-1.992c1.258-0.231,2.53,0.04,3.583,0.765
							c1.013,0.698,1.658,1.801,1.77,3.027c0.035,0.387-0.25,0.729-0.637,0.764c-0.381,0.035-0.729-0.249-0.764-0.637
							c-0.074-0.809-0.499-1.536-1.167-1.996c-0.744-0.512-1.643-0.703-2.529-0.54c-0.888,0.164-1.659,0.664-2.171,1.407
							c-0.631,0.916-0.868,2.024-0.666,3.118c0.202,1.094,0.818,2.044,1.734,2.675c0.32,0.22,0.4,0.658,0.18,0.978
							C129.436,90.231,129.217,90.337,128.993,90.337z"/>
					</g>
					<g>
						<g>
							<polygon style="fill:#2FD3DD;" points="133.276,83.519 134.301,86.576 136.437,84.16 							"/>
						</g>
					</g>
				</g>
				<g>
					<rect x="587.292" y="78.635" style="fill:#2FD3DD;" width="12.585" height="2.129"/>
					<rect x="587.292" y="87.809" style="fill:#2FD3DD;" width="12.585" height="2.13"/>
					<rect x="587.292" y="83.222" style="fill:#2FD3DD;" width="12.585" height="2.129"/>
				</g>
			</g>
			<g>
				
					<path style="fill:#FAC46A;stroke:#FFFFFF;stroke-width:1.4064;stroke-linecap:round;stroke-linejoin:round;stroke-miterlimit:10;" d="
					M643.18,432.557H133.705c-3.801,0-6.91-3.11-6.91-6.91V88.928c0-3.801,3.11-6.91,6.91-6.91H643.18c3.801,0,6.91,3.109,6.91,6.91
					v336.718C650.09,429.447,646.981,432.557,643.18,432.557z"/>
				
					<line style="fill:#FFFFFF;stroke:#FFFFFF;stroke-width:1.4064;stroke-linecap:round;stroke-linejoin:round;stroke-miterlimit:10;" x1="126.795" y1="103.377" x2="650.09" y2="103.377"/>
				<g>
					<path style="fill:#FFFFFF;" d="M135.464,93.12c0,1.978,1.603,3.581,3.581,3.581c1.978,0,3.581-1.603,3.581-3.581
						c0-1.978-1.603-3.581-3.581-3.581C137.068,89.539,135.464,91.142,135.464,93.12z"/>
					<circle style="fill:#20AFBA;" cx="153.792" cy="93.12" r="3.581"/>
					<path style="fill:#FF571C;" d="M164.958,93.12c0,1.978,1.603,3.581,3.581,3.581c1.978,0,3.581-1.603,3.581-3.581
						c0-1.978-1.603-3.581-3.581-3.581C166.561,89.539,164.958,91.142,164.958,93.12z"/>
				</g>
				
					<line style="fill:#FFFFFF;stroke:#FFFFFF;stroke-width:1.4064;stroke-linecap:round;stroke-linejoin:round;stroke-miterlimit:10;" x1="126.795" y1="126.084" x2="650.09" y2="126.084"/>
				<path style="fill:#F9F3EA;" d="M238.614,120.382h299.657c3.121,0,5.652-2.53,5.652-5.652l0,0c0-3.121-2.531-5.652-5.652-5.652
					H238.614c-3.121,0-5.652,2.53-5.652,5.652l0,0C232.962,117.852,235.493,120.382,238.614,120.382z"/>
				<polygon style="fill:#F9F3EA;" points="143.232,110.155 143.232,120.688 137.141,115.421 				"/>
				<polygon style="fill:#FAA149;" points="153.37,120.736 153.37,110.204 159.461,115.47 				"/>
				<g>
					<g>
						<path style="fill:#F9F3EA;" d="M170.647,120.78c-0.138,0-0.277-0.04-0.398-0.124c-1.226-0.844-2.049-2.115-2.32-3.579
							c-0.27-1.464,0.046-2.945,0.89-4.171c0.725-1.053,1.817-1.761,3.074-1.992c1.257-0.232,2.529,0.039,3.582,0.765
							c1.014,0.698,1.659,1.801,1.77,3.027c0.035,0.387-0.25,0.729-0.637,0.764c-0.381,0.033-0.729-0.25-0.764-0.637
							c-0.073-0.809-0.499-1.536-1.167-1.996c-0.742-0.511-1.641-0.704-2.53-0.54c-0.888,0.163-1.659,0.663-2.17,1.407
							c-0.631,0.917-0.867,2.024-0.665,3.118c0.202,1.094,0.818,2.044,1.734,2.675c0.32,0.22,0.401,0.658,0.18,0.978
							C171.09,120.674,170.87,120.78,170.647,120.78z"/>
					</g>
					<g>
						<g>
							<polygon style="fill:#F9F3EA;" points="174.929,113.962 175.954,117.02 178.09,114.603 							"/>
						</g>
					</g>
				</g>
				<g>
					<rect x="628.946" y="109.078" style="fill:#F9F3EA;" width="12.585" height="2.13"/>
					<rect x="628.946" y="118.253" style="fill:#F9F3EA;" width="12.585" height="2.129"/>
					<rect x="628.946" y="113.665" style="fill:#F9F3EA;" width="12.585" height="2.129"/>
				</g>
				<path style="fill:#FAA149;" d="M190.228,405.37h183.357c17.521,0,31.724-14.204,31.724-31.724V190.289
					c0-17.521-14.203-31.724-31.724-31.724H190.228c-17.521,0-31.724,14.204-31.724,31.724v183.357
					C158.504,391.167,172.708,405.37,190.228,405.37z"/>
				<g>
					<g>
						<path style="fill:#F9F3EA;" d="M369.7,255.883L369.7,255.883l-175.586-0.031c-1.149-0.003-2.081-0.932-2.081-2.081
							c0-1.149,0.931-2.081,2.081-2.081l0,0l175.586,0.031c1.149,0,2.081,0.932,2.081,2.081
							C371.778,254.952,370.849,255.883,369.7,255.883z"/>
					</g>
					<g>
						<path style="fill:#F9F3EA;" d="M369.7,278.953L369.7,278.953l-175.586-0.03c-1.149,0-2.081-0.932-2.081-2.081
							c0-1.149,0.931-2.081,2.081-2.081l0,0l175.586,0.031c1.149,0.003,2.081,0.931,2.081,2.081
							C371.778,278.021,370.849,278.953,369.7,278.953z"/>
					</g>
					<g>
						<path style="fill:#F9F3EA;" d="M369.7,302.023L369.7,302.023l-175.586-0.028c-1.149,0-2.081-0.932-2.081-2.081
							c0-1.149,0.931-2.081,2.081-2.081l0,0l175.586,0.028c1.149,0,2.081,0.932,2.081,2.081
							C371.78,301.091,370.849,302.023,369.7,302.023z"/>
					</g>
					<g>
						<path style="fill:#F9F3EA;" d="M369.7,325.096L369.7,325.096l-175.586-0.031c-1.149-0.003-2.081-0.932-2.081-2.081
							c0-1.149,0.931-2.081,2.081-2.081l0,0l175.586,0.031c1.149,0,2.081,0.932,2.081,2.081
							C371.778,324.164,370.849,325.096,369.7,325.096z"/>
					</g>
					<g>
						<path style="fill:#F9F3EA;" d="M369.7,348.165L369.7,348.165l-175.586-0.031c-1.149,0-2.081-0.932-2.081-2.081
							c0-1.149,0.931-2.081,2.081-2.081l0,0l175.586,0.031c1.149,0.003,2.081,0.932,2.081,2.081
							C371.778,347.234,370.849,348.165,369.7,348.165z"/>
					</g>
				</g>
			</g>
			<g>
				<rect x="430.737" y="173.165" style="fill:#FFFFFF;" width="179.196" height="224.785"/>
				<g>
					<path style="fill:#FF571C;" d="M609.913,400.895L609.913,400.895l-179.195-0.032c-1.619,0-2.929-1.312-2.929-2.929
						l0.037-224.785c0-0.778,0.308-1.523,0.859-2.073c0.548-0.548,1.295-0.857,2.071-0.857l0,0l179.197,0.031
						c1.619,0,2.929,1.312,2.929,2.929l-0.039,224.785c0,0.778-0.309,1.523-0.859,2.073
						C611.436,400.586,610.689,400.895,609.913,400.895z M433.648,395.005l173.336,0.031l0.039-218.926l-173.339-0.031
						L433.648,395.005z"/>
				</g>
				<path style="fill:#F9F3EA;" d="M453.063,385.751l134.51,0.023c0.001-6.108,4.953-11.058,11.061-11.057l0.03-178.293
					c-6.107-0.001-11.058-4.953-11.057-11.06l-134.51-0.023c-0.001,6.108-4.953,11.058-11.06,11.057l-0.03,178.293
					C448.114,374.692,453.064,379.643,453.063,385.751z"/>
				<g>
					<g>
						<path style="fill:#FAC46A;" d="M582.182,227.848L582.182,227.848l-123.676-0.02c-0.81,0-1.466-0.656-1.466-1.466
							c0-0.81,0.656-1.466,1.466-1.466l0,0l123.676,0.02c0.81,0,1.466,0.656,1.466,1.466
							C583.648,227.192,582.992,227.848,582.182,227.848z"/>
					</g>
					<g>
						<path style="fill:#2FD3DD;" d="M563.159,212.318L563.159,212.318l-85.629-0.014c-2.428,0-4.395-1.969-4.395-4.395
							c0-2.428,1.968-4.395,4.395-4.395l0,0l85.629,0.014c2.429,0,4.395,1.969,4.395,4.395
							C567.554,210.352,565.585,212.318,563.159,212.318z"/>
					</g>
					<g>
						<path style="fill:#FAC46A;" d="M582.182,244.099L582.182,244.099l-123.676-0.021c-0.81-0.002-1.466-0.656-1.466-1.465
							c0-0.81,0.656-1.466,1.466-1.466l0,0l123.676,0.021c0.81,0,1.466,0.656,1.466,1.466
							C583.646,243.443,582.992,244.099,582.182,244.099z"/>
					</g>
					<g>
						<path style="fill:#FAC46A;" d="M582.182,260.349L582.182,260.349l-123.676-0.022c-0.81,0-1.466-0.656-1.466-1.466
							c0-0.809,0.656-1.466,1.466-1.466l0,0l123.676,0.022c0.81,0.002,1.466,0.656,1.466,1.466
							C583.646,259.693,582.992,260.349,582.182,260.349z"/>
					</g>
					<g>
						<path style="fill:#FAC46A;" d="M582.182,276.599L582.182,276.599l-123.676-0.02c-0.81,0-1.466-0.656-1.466-1.466
							c0-0.809,0.656-1.465,1.466-1.465l0,0l123.676,0.02c0.81,0,1.466,0.656,1.466,1.466
							C583.648,275.942,582.992,276.599,582.182,276.599z"/>
					</g>
					<g>
						<path style="fill:#FAC46A;" d="M582.182,292.85L582.182,292.85l-123.676-0.022c-0.81-0.002-1.466-0.656-1.466-1.466
							c0-0.809,0.656-1.465,1.466-1.465l0,0l123.676,0.021c0.81,0,1.466,0.656,1.466,1.466
							C583.646,292.194,582.992,292.85,582.182,292.85z"/>
					</g>
					<g>
						<path style="fill:#FAC46A;" d="M582.182,309.1L582.182,309.1l-123.676-0.021c-0.81,0-1.466-0.656-1.466-1.466
							c0-0.809,0.656-1.466,1.466-1.466l0,0l123.676,0.022c0.81,0.002,1.466,0.656,1.466,1.466
							C583.646,308.443,582.992,309.1,582.182,309.1z"/>
					</g>
					<g>
						<path style="fill:#FAC46A;" d="M582.182,325.349L582.182,325.349l-123.676-0.02c-0.81,0-1.466-0.656-1.466-1.466
							s0.656-1.466,1.466-1.466l0,0l123.676,0.02c0.81,0,1.466,0.656,1.466,1.466C583.648,324.693,582.992,325.349,582.182,325.349z
							"/>
					</g>
				</g>
				<path style="fill:#2FD3DD;" d="M474.396,368.71h93.149c3.406,0,6.167-2.761,6.167-6.167v-14.62c0-3.406-2.761-6.167-6.167-6.167
					h-93.149c-3.406,0-6.167,2.761-6.167,6.167v14.62C468.229,365.949,470.99,368.71,474.396,368.71z"/>
				<g>
					
						<circle style="fill:none;stroke:#E46341;stroke-width:1.422;stroke-linecap:round;stroke-linejoin:round;stroke-miterlimit:10;" cx="570.84" cy="318.48" r="19.007"/>
					
						<rect x="557.365" y="314.617" transform="matrix(0.7071 -0.7071 0.7071 0.7071 -58.0036 496.9274)" style="fill:none;stroke:#E46341;stroke-width:1.422;stroke-linecap:round;stroke-linejoin:round;stroke-miterlimit:10;" width="26.951" height="7.725"/>
					<g>
						
							<path style="fill:none;stroke:#E46341;stroke-width:1.422;stroke-linecap:round;stroke-linejoin:round;stroke-miterlimit:10;" d="
							M556.513,323.21c0,0-2.996-7.915,4.073-14.984c7.069-7.069,14.984-4.073,14.984-4.073"/>
						
							<path style="fill:none;stroke:#E46341;stroke-width:1.422;stroke-linecap:round;stroke-linejoin:round;stroke-miterlimit:10;" d="
							M585.168,313.751c0,0,2.996,7.915-4.073,14.984c-7.069,7.069-14.984,4.073-14.984,4.073"/>
					</g>
				</g>
				
					<text transform="matrix(1 0 0 1 478.5086 360.758)" style="fill:#FFFFFF; font-family:'UbuntuTitling-Bold'; font-size:17.2525px;">DOWNLOAD</text>
				<path style="fill:#F9F3EA;" d="M448.193,188.434c0,1.708-1.385,3.093-3.093,3.093c-1.708,0-3.093-1.385-3.093-3.093
					c0-1.708,1.385-3.093,3.093-3.093C446.808,185.341,448.193,186.726,448.193,188.434z"/>
				<path style="fill:#F9F3EA;" d="M598.663,188.434c0,1.708-1.385,3.093-3.093,3.093c-1.708,0-3.093-1.385-3.093-3.093
					c0-1.708,1.385-3.093,3.093-3.093C597.279,185.341,598.663,186.726,598.663,188.434z"/>
				<path style="fill:#F9F3EA;" d="M448.193,382.681c0,1.708-1.385,3.093-3.093,3.093c-1.708,0-3.093-1.385-3.093-3.093
					c0-1.708,1.385-3.093,3.093-3.093C446.808,379.587,448.193,380.972,448.193,382.681z"/>
				<path style="fill:#F9F3EA;" d="M598.663,382.681c0,1.708-1.385,3.093-3.093,3.093c-1.708,0-3.093-1.385-3.093-3.093
					c0-1.708,1.385-3.093,3.093-3.093C597.279,379.587,598.663,380.972,598.663,382.681z"/>
			</g>
			<g>
				<path style="fill:#FF512C;" d="M342.679,381.268c-0.881,0-1.733-0.348-2.362-0.979l-10.503-10.503
					c-1.305-1.305-1.305-3.419,0-4.724c1.305-1.305,3.419-1.305,4.724,0l7.496,7.496l24.093-39.598
					c0.961-1.576,3.013-2.075,4.592-1.117c1.576,0.959,2.077,3.015,1.117,4.592l-26.304,43.229
					c-0.533,0.875-1.439,1.458-2.457,1.579C342.944,381.26,342.811,381.268,342.679,381.268z"/>
			</g>
			<g>
				<path style="fill:#2B3F54;" d="M463.428,159.791l56.476,24.615c0.275,0.12,0.588,0.12,0.863,0l56.476-24.615
					c0.865-0.377,0.865-1.603,0-1.98l-55.535-24.205c-0.875-0.381-1.869-0.381-2.744,0l-55.536,24.205
					C462.563,158.187,462.563,159.414,463.428,159.791z"/>
				<path style="fill:#365B77;" d="M520.336,150.449c-17.396,0-31.499,3.739-31.499,8.352v21.932h62.997V158.8
					C551.834,154.188,537.732,150.449,520.336,150.449z"/>
				<path style="fill:#2B3F54;" d="M488.837,180.732c0,4.613,14.103,8.352,31.499,8.352c17.396,0,31.499-3.739,31.499-8.352
					c0-4.613-14.103-8.352-31.499-8.352C502.939,172.38,488.837,176.119,488.837,180.732z"/>
				<g>
					<path style="fill:#222C33;" d="M542.481,194.529c-0.635,0-1.15-0.514-1.15-1.149v-50.721c0-0.636,0.514-1.15,1.15-1.15
						c0.635,0,1.15,0.514,1.15,1.15v50.721C543.631,194.015,543.117,194.529,542.481,194.529z"/>
				</g>
				<circle style="fill:#222C33;" cx="542.481" cy="193.379" r="1.862"/>
				<path style="fill:#222C33;" d="M540.6,200.666h3.762c0,0,0.095-7.286-1.881-7.286C540.505,193.379,540.6,200.666,540.6,200.666z
					"/>
			</g>
			
				<text transform="matrix(1 0 0 1 236.3373 207.0844)" style="fill:#F9F3EA; font-family:'UbuntuTitling-Bold'; font-size:27.5878px;">ONLINE</text>
			
				<text transform="matrix(1 0 0 1 194.3764 232.4496)" style="fill:#F9F3EA; font-family:'UbuntuTitling-Bold'; font-size:27.5878px;">CERTIFICATION</text>
			<g>
				<g>
					<path style="fill:#F9F3EA;" d="M187.486,463c0-16.755-6.146-17.488-6.208-17.493l-163.613,0.003
						c3.837,11.668,3.84,23.328,0.002,34.981h163.714C181.34,480.488,187.486,479.754,187.486,463z"/>
					<path style="fill:#1B8487;" d="M22.193,440.321h-9.869c-1.433,0-2.594,1.161-2.594,2.594c0,1.433,1.161,2.594,2.594,2.594
						h5.343l163.613-0.003c0.062,0.005,6.208,0.738,6.208,17.493c0,16.755-6.146,17.488-6.105,17.491H17.667h-5.344
						c-1.433,0-2.594,1.162-2.594,2.594c0,1.433,1.161,2.594,2.594,2.594h169.058c1.156,0,11.293-0.636,11.293-22.678
						c0-14.915-4.639-20.024-7.999-21.772H26.146C26.1,441.228,24.345,441.196,22.193,440.321z"/>
				</g>
				<g>
					<path style="fill:#F9F3EA;" d="M19.165,425.83c0,10.093,6.523,10.21,6.801,10.21h176.336
						c-3.476-6.811-3.479-13.618-0.003-20.42H25.965C25.296,415.636,19.165,416.069,19.165,425.83z"/>
					<path style="fill:#20AFBA;" d="M208.561,436.04h-6.259H25.965c-0.277,0-6.801-0.117-6.801-10.21
						c0-9.761,6.132-10.194,6.801-10.21h176.333h6.262c1.433,0,2.594-1.161,2.594-2.594c0-1.433-1.162-2.594-2.594-2.594h-28.042
						c-1.348,0.79-2.485,0.906-3.012,0.906H22.015c-3.494,1.419-8.038,5.071-8.038,14.493c0,9.419,4.542,13.071,8.035,14.491
						c2.152,0.875,3.907,0.907,3.953,0.907h158.53h24.065c1.433,0,2.594-1.162,2.594-2.594
						C211.155,437.201,209.993,436.04,208.561,436.04z"/>
				</g>
				<g>
					<path style="fill:#F9F3EA;" d="M21.372,346.475c0,5.134,6.115,5.336,6.812,5.343H203.76c-2.477-3.563-2.48-7.125-0.004-10.685
						H28.172C27.487,341.139,21.372,341.342,21.372,346.475z"/>
					<path style="fill:#20AFBA;" d="M191.259,356.82c0.284,0,0.747,0.032,1.323,0.186h18.185c1.433,0,2.594-1.161,2.594-2.594
						s-1.161-2.594-2.594-2.594h-7.007H28.184c-0.697-0.006-6.812-0.209-6.812-5.343s6.115-5.336,6.8-5.342h175.584h7.011
						c1.433,0,2.594-1.162,2.594-2.594c0-1.433-1.161-2.594-2.594-2.594H28.172c-4.146,0-11.989,2.201-11.989,10.53
						c0,8.329,7.842,10.531,11.989,10.531H29.4c0.288-0.111,0.595-0.186,0.923-0.186H191.259z"/>
				</g>
				<g>
					<path style="fill:#F9F3EA;" d="M196.945,384.079c0-19.666-5.355-21.911-5.843-22.071H35.202
						c3.857,14.724,3.86,29.437,0.001,44.141h155.898C191.589,405.99,196.945,403.744,196.945,384.079z"/>
					<path style="fill:#365B77;" d="M194.27,410.432c3.298-1.934,7.862-7.934,7.862-26.353c0-21.883-6.443-26.244-9.551-27.073
						c-0.577-0.154-1.039-0.186-1.323-0.186H30.322c-0.327,0-0.634,0.076-0.923,0.186c-0.974,0.374-1.671,1.303-1.671,2.408
						c0,1.433,1.161,2.594,2.594,2.594h4.88h155.899c0.488,0.159,5.843,2.405,5.843,22.071c0,19.665-5.355,21.911-5.843,22.071
						H35.204h-4.881c-1.433,0-2.594,1.161-2.594,2.594c0,1.433,1.161,2.594,2.594,2.594h5.444h155.492
						C191.786,411.337,192.923,411.222,194.27,410.432z"/>
				</g>
				
					<line style="fill:none;stroke:#FFFFFF;stroke-width:1.5;stroke-linecap:round;stroke-linejoin:round;stroke-miterlimit:10;" x1="43.488" y1="370.593" x2="141.617" y2="370.593"/>
				
					<line style="fill:none;stroke:#FFFFFF;stroke-width:1.5;stroke-linecap:round;stroke-linejoin:round;stroke-miterlimit:10;" x1="47.577" y1="427.153" x2="145.705" y2="427.153"/>
				
					<line style="fill:none;stroke:#FFFFFF;stroke-width:1.5;stroke-linecap:round;stroke-linejoin:round;stroke-miterlimit:10;" x1="28.723" y1="475.081" x2="126.852" y2="475.081"/>
				
					<line style="fill:none;stroke:#FFFFFF;stroke-width:1.5;stroke-linecap:round;stroke-linejoin:round;stroke-miterlimit:10;" x1="99.367" y1="378.997" x2="172.736" y2="378.997"/>
				
					<line style="fill:none;stroke:#FFFFFF;stroke-width:1.5;stroke-linecap:round;stroke-linejoin:round;stroke-miterlimit:10;" x1="104.932" y1="421.02" x2="178.301" y2="421.02"/>
				
					<line style="fill:none;stroke:#FFFFFF;stroke-width:1.5;stroke-linecap:round;stroke-linejoin:round;stroke-miterlimit:10;" x1="96.641" y1="346.475" x2="170.01" y2="346.475"/>
				
					<line style="fill:none;stroke:#FFFFFF;stroke-width:1.5;stroke-linecap:round;stroke-linejoin:round;stroke-miterlimit:10;" x1="79.389" y1="468.267" x2="152.758" y2="468.267"/>
				
					<line style="fill:none;stroke:#FFFFFF;stroke-width:1.5;stroke-linecap:round;stroke-linejoin:round;stroke-miterlimit:10;" x1="55.754" y1="396.261" x2="169.783" y2="396.261"/>
				
					<line style="fill:none;stroke:#FFFFFF;stroke-width:1.5;stroke-linecap:round;stroke-linejoin:round;stroke-miterlimit:10;" x1="36.901" y1="452.594" x2="150.93" y2="452.594"/>
			</g>
			<g>
				<path style="fill:#FFFFFF;" d="M607.052,424.93v40.485c0,0.5-0.434,0.888-0.931,0.833c-56.91-6.286-114.661-6.286-171.571,0
					c-0.497,0.055-0.931-0.333-0.931-0.833c0-13.495,0-26.99,0-40.485c0-0.5,0.434-0.888,0.931-0.833
					c56.91,6.286,114.661,6.286,171.571,0C606.618,424.042,607.052,424.43,607.052,424.93z"/>
				<path style="fill:#F9F3EA;" d="M602.343,420.804v48.737c0,0.51-0.45,0.901-0.956,0.83c-53.362-7.504-107.511-7.504-160.873,0
					c-0.505,0.071-0.956-0.32-0.956-0.83v-48.737c0-0.51,0.45-0.901,0.956-0.83c53.362,7.503,107.511,7.503,160.873,0
					C601.892,419.903,602.343,420.294,602.343,420.804z"/>
				
					<rect x="500.875" y="437.82" transform="matrix(-1.836970e-16 1 -1 -1.836970e-16 966.1227 -75.7777)" style="fill:#1B8487;" width="40.15" height="14.705"/>
				<path style="fill:#1B8487;" d="M522.524,477.837c0,0-6.585-14.257,4.784-31.662c-3.932-1.697-7.94-3.131-12.201-3.681
					c-0.031-0.004-0.06-0.012-0.091-0.016c-6.091,10.368-11.372,24.236-6.379,36.447c-0.035,0.407,4.801-6.389,4.801-6.389
					L522.524,477.837z"/>
				<path style="fill:#1B8487;" d="M521.763,484.568c0,0,6.585-14.257-4.784-31.662c3.932-1.697,7.94-3.131,12.201-3.681
					c0.031-0.004,0.06-0.012,0.091-0.017c6.091,10.368,11.372,24.236,6.379,36.447c0.035,0.407-4.337-5.436-4.337-5.436
					L521.763,484.568z"/>
				<path style="fill:#FAA149;" d="M520.95,434.456L520.95,434.456c1.084-1.153,2.995-0.816,3.619,0.638l0,0l0,0
					c1.413-0.713,3.094,0.257,3.182,1.837l0,0l0,0c1.572-0.187,2.819,1.3,2.362,2.815l0,0l0,0c1.541,0.362,2.205,2.185,1.257,3.453
					l0,0l0,0c1.324,0.867,1.324,2.807,0,3.674v0l0,0c0.948,1.268,0.284,3.091-1.257,3.453l0,0l0,0
					c0.457,1.516-0.79,3.002-2.362,2.815l0,0l0,0c-0.089,1.58-1.77,2.551-3.182,1.837l0,0l0,0c-0.624,1.454-2.535,1.792-3.619,0.638
					l0,0l0,0c-1.084,1.154-2.995,0.816-3.619-0.638l0,0l0,0c-1.413,0.713-3.094-0.257-3.182-1.837l0,0l0,0
					c-1.571,0.187-2.819-1.299-2.362-2.815l0,0l0,0c-1.541-0.362-2.204-2.185-1.257-3.453l0,0v0c-1.324-0.867-1.324-2.807,0-3.674
					l0,0l0,0c-0.948-1.268-0.284-3.091,1.257-3.453l0,0l0,0c-0.457-1.515,0.791-3.002,2.362-2.815l0,0l0,0
					c0.089-1.58,1.769-2.551,3.182-1.837l0,0l0,0C517.955,433.639,519.866,433.302,520.95,434.456L520.95,434.456z"/>
				<path style="fill:none;stroke:#FAC46A;stroke-width:1.5;stroke-miterlimit:10;" d="M520.95,438.235
					c-3.756,0-6.801,3.045-6.801,6.801c0,3.756,3.045,6.801,6.801,6.801c3.756,0,6.801-3.045,6.801-6.801
					C527.751,441.28,524.706,438.235,520.95,438.235z"/>
			</g>
			<g>
				<path style="fill:#FF571C;" d="M151.22,458.575h-6.813c-3.576,0-6.475,2.899-6.475,6.475v14.091
					c0,3.576,2.899,6.475,6.475,6.475h6.813V458.575z"/>
				<rect x="151.22" y="458.575" style="fill:#FAC46A;" width="7.693" height="27.041"/>
				<g>
					<polygon style="fill:none;" points="319.732,476.626 319.732,476.626 319.732,476.626 					"/>
					<path style="fill:#FAC46A;" d="M315.206,472.099c0-2.345,1.792-4.242,4.077-4.471h-160.37v8.935h160.199
						C316.908,476.258,315.206,474.386,315.206,472.099z"/>
					<path style="fill:#EDDDC8;" d="M319.732,476.626L319.732,476.626c-2.5,0-4.526,2.026-4.526,4.526
						c0,2.288,1.703,4.16,3.907,4.464c0.204,0.028,0.407,0.062,0.62,0.062v-0.062l3.878-2.163l9.361-5.22v-4.081L319.732,476.626z"
						/>
					<path style="fill:#EDDDC8;" d="M315.206,463.101c0,2.406,1.883,4.355,4.253,4.499c0.092,0.005,0.18,0.027,0.273,0.027
						l13.239,2.44v-4.109l-9.41-5.247l-3.829-2.136c0,0,0,0-0.001,0C317.232,458.575,315.206,460.602,315.206,463.101z"/>
					<path style="fill:#F0E5D5;" d="M319.732,467.628c-0.094,0-0.181-0.022-0.273-0.027c-0.06,0.004-0.116,0.022-0.176,0.027
						c-2.285,0.229-4.077,2.126-4.077,4.471c0,2.287,1.702,4.159,3.906,4.464c0.205,0.028,0.408,0.063,0.621,0.063l0,0l13.239-2.474
						v-4.084L319.732,467.628z"/>
					<polygon style="fill:#365B77;" points="343.976,472.095 332.971,465.958 332.971,465.958 332.971,470.067 332.971,474.152 
						332.971,478.233 332.971,478.233 					"/>
					<g>
						<g>
							<polygon style="fill:#365B77;" points="158.913,467.628 158.913,458.575 151.22,458.575 151.22,485.616 158.913,485.616 
								158.913,476.563 							"/>
							<path style="fill:#FAA149;" d="M319.112,476.563H158.913v9.053h160.2c-2.204-0.305-3.907-2.176-3.907-4.464
								c0-2.5,2.026-4.526,4.526-4.526l0,0C319.52,476.626,319.316,476.591,319.112,476.563z"/>
						</g>
						<path style="fill:#FAA149;" d="M158.913,458.575v9.053h160.37c0.06-0.006,0.115-0.024,0.176-0.027
							c-2.37-0.144-4.253-2.093-4.253-4.499c0-2.5,2.026-4.526,4.526-4.527H158.913z"/>
					</g>
				</g>
			</g>
			<polygon style="fill:#FF512C;" points="567.712,350.201 587.123,369.558 578.432,369.558 581.652,376.9 577.009,379.269 
				573.93,371.97 567.712,378.194 			"/>
		</g>
	</g>
</g>
</svg>
