<svg width="192" height="201" viewBox="0 0 192 201" fill="none" xmlns="http://www.w3.org/2000/svg">
<path d="M129.651 167.533C129.651 167.533 121.022 166.981 118.158 164.584L117 161.436L116.045 161.82L112.967 151.722C113.266 151.509 113.424 151.334 113.386 151.226L97.4667 74.2835C97.4666 74.2827 97.4665 74.2821 97.4664 74.2813C100.079 73.7707 101.71 73.0906 101.811 72.3412C102.445 68.3222 102.746 64.6609 102.847 61.4536C103.383 61.8406 103.943 62.2284 104.528 62.6162C104.715 62.7654 105.403 62.3255 106.314 61.4668C108.417 63.0045 110.053 64.0497 110.483 64.3202C112.02 65.3228 114.019 65.099 115.319 63.7893C122.602 58.3829 129 44.8151 129 44.8151L128.972 44.7936C129.127 44.4606 129.234 44.0959 129.28 43.708C129.299 43.5561 129.307 43.4054 129.306 43.2565C129.663 39.8655 129.558 37.169 129.045 37.1014C128.794 37.0684 128.49 37.6664 128.191 38.6792C128.228 36.8675 128.068 35.6516 127.725 35.6064C127.402 35.564 126.99 36.5696 126.615 38.1612C126.648 36.3749 126.488 35.1789 126.148 35.1341C125.799 35.0883 125.347 36.2647 124.949 38.0813C124.896 37.0564 124.744 36.4213 124.498 36.389C124.012 36.3249 123.323 38.6389 122.863 41.7519C121.397 40.569 120.285 39.9319 120.039 40.2068C119.725 40.5585 120.929 42.2925 122.848 44.3383C122.851 44.3483 122.854 44.3584 122.857 44.3684L112.819 54.2045C112.588 53.9523 112.353 53.7054 112.114 53.4637C112.369 52.9067 112.473 52.5231 112.387 52.3845L112.422 52.3383C110.321 50.5078 108.176 48.97 106.119 47.7706C106.336 47.4337 106.529 47.0735 106.692 46.6916C108.185 43.2066 106.703 39.236 103.381 37.823C103.276 37.7784 103.171 37.7369 103.064 37.6982C101.268 37.0237 101.21 35.3739 101.252 34.776C101.624 31.8582 100.138 28.9834 97.4164 27.8257C95.5185 27.0183 93.431 27.221 91.7117 28.1929L91.7114 28.1927L91.7064 28.1957C91.6197 28.2448 91.534 28.296 91.4492 28.3488C89.6005 29.4013 88.6668 28.8374 88.3949 28.6053L88.3098 28.5223L88.3086 28.5211L88.3084 28.5212C87.7772 28.0143 87.1511 27.5947 86.4403 27.2924C83.2541 25.937 79.5337 27.4275 77.9181 30.6272C77.6858 31.049 77.4944 31.5059 77.3513 31.9941C77.3317 32.0611 77.3134 32.1281 77.2958 32.1952L77.2938 32.2033L77.2592 32.3413C76.733 34.3002 75.016 34.7148 74.4383 34.7997C74.3744 34.8055 74.3107 34.8127 74.2472 34.8206L74.2465 34.8207C71.8572 35.1201 69.772 36.8213 69.0183 39.3911C68.549 40.9914 68.6756 42.6581 69.2652 44.1245C69.2841 44.178 69.3059 44.2311 69.331 44.2839L69.3372 44.2971C69.3752 44.385 69.4148 44.4722 69.456 44.5586C70.5192 47.0051 69.7965 48.5222 69.596 48.868L69.5493 48.943L69.5486 48.9439L69.5488 48.944C69.2432 49.4402 68.9961 49.9896 68.8212 50.5861C68.6023 51.3327 68.5131 52.0938 68.5399 52.8423C66.7407 55.2823 64.99 58.8195 63.5271 63.5482C63.4622 63.7097 63.7355 64.0536 64.2652 64.4938C63.2154 67.6189 62.5788 70.1041 62.432 70.6933C61.8992 72.7 62.8794 74.849 64.7679 75.6478C65.7926 76.0811 66.8888 76.0338 67.8286 75.6075C69.1473 75.1824 70.5203 74.5615 71.8995 73.815C72.2074 73.906 72.5415 73.9938 72.9002 74.078C72.8599 74.3365 72.8267 74.5976 72.8012 74.8609C56.5495 87.3754 69.5011 155.347 69.5011 155.347H69.5059C69.5059 155.481 69.7476 155.607 70.1624 155.712L71.0282 163.696H69.7397V174.145H77.6039V172.838L80.4555 174.145H87.3172C87.3172 174.145 79.4543 170.384 77.6039 167.07V163.696H76.5805L77.0285 155.716C77.5049 155.61 77.7938 155.483 77.7938 155.347L83.8577 106.397C83.8803 106.411 83.9058 106.421 83.9335 106.425C83.963 106.429 83.9918 106.425 84.0183 106.416C91.0076 128.863 105.585 154.168 105.585 154.168L105.589 154.167C105.624 154.267 105.797 154.308 106.077 154.297L110.864 163.909L109.661 164.394L113.247 174.144L120.586 171.186L120.138 169.967L123.248 170.114L129.651 167.533Z" fill="#EF7C59"/>
<path d="M113.386 151.226L97.4667 74.2833C97.4666 74.2826 97.4665 74.2818 97.4664 74.2811C100.079 73.7705 101.71 73.0904 101.811 72.341C102.445 68.3219 102.746 64.6605 102.847 61.4534C103.383 61.8404 103.943 62.2281 104.528 62.616C104.715 62.7651 105.403 62.3253 106.314 61.4666C107.165 60.6648 108.209 59.4976 109.221 58.1034C110.562 56.2565 111.62 54.5377 112.114 53.4633C112.369 52.9063 112.473 52.5227 112.386 52.3841L112.422 52.3379C110.321 50.5074 108.176 48.9696 106.118 47.7702C103.34 46.1504 100.724 45.1481 98.6006 44.8772C96.2927 44.2568 92.9582 44.0979 89.1528 44.4722L88.6559 46.9025C88.5758 47.2941 87.2088 47.3198 85.6027 46.9599C83.9966 46.6 82.7594 45.9907 82.8394 45.5992L82.8572 45.5123C79.2896 46.3366 76.1494 47.4765 73.8093 48.7276C72.161 49.0781 70.3266 50.4193 68.5399 52.8422C66.7407 55.2822 64.9901 58.8194 63.5271 63.5481C63.4623 63.7095 63.7356 64.0535 64.2652 64.4936C64.8729 64.9987 65.8186 65.6305 66.9797 66.2595L84.4981 57.8325C84.8997 57.6282 85.3466 57.5067 85.8189 57.4885V57.4858C85.8547 57.4858 85.8903 57.4859 85.9261 57.486C85.9315 57.486 85.9368 57.4858 85.9423 57.4858C85.9496 57.4858 85.9568 57.4861 85.9642 57.4861C86.7116 57.4888 87.4278 57.5121 88.092 57.5525C88.4761 57.5759 88.8428 57.605 89.1882 57.6392C91.0435 57.823 92.2816 58.1542 92.2816 58.5321C92.2816 58.7914 91.6987 59.0286 90.734 59.2114C92.5055 59.398 93.677 59.7213 93.677 60.0889C93.677 60.4473 92.5637 60.7635 90.8665 60.9521C92.4218 61.1431 93.4264 61.4455 93.4264 61.786C93.4264 62.1475 92.294 62.4661 90.5723 62.654C91.5695 62.8381 92.1743 63.0793 92.1743 63.3434C92.1743 63.8851 89.6315 64.3306 86.373 64.3842C86.232 64.4035 86.0883 64.4134 85.9424 64.4134C85.9026 64.4134 85.8633 64.4125 85.8239 64.411C85.4616 64.3977 85.1143 64.3235 84.7907 64.1977C84.7829 64.1947 84.775 64.1915 84.7671 64.1884C81.8822 66.8373 76.8511 71.1344 71.8994 73.8148C72.2073 73.9059 72.5415 73.9936 72.9 74.0778C72.8598 74.3363 72.8267 74.5973 72.801 74.8608C56.5494 87.3752 69.5009 155.347 69.5009 155.347H69.5056C69.5056 155.481 69.7473 155.607 70.1623 155.711C70.8772 155.892 72.1071 156.011 73.5046 156.011C74.8904 156.011 76.2257 155.894 77.0283 155.716C77.5048 155.61 77.7937 155.483 77.7937 155.347L83.8576 106.397C83.8801 106.411 83.9057 106.421 83.9334 106.425C83.9629 106.428 83.9917 106.425 84.0181 106.416C91.0074 128.863 105.585 154.168 105.585 154.168L105.589 154.167C105.623 154.267 105.797 154.308 106.077 154.297C106.764 154.27 108.09 153.93 109.567 153.373C110.992 152.835 112.315 152.187 112.967 151.722C113.266 151.509 113.424 151.334 113.386 151.226Z" fill="#F3E7CD"/>
<path d="M112.422 52.3379C110.321 50.5074 108.175 48.9696 106.118 47.7702C103.34 46.1504 100.724 45.1481 98.6005 44.8772C96.2926 44.2568 92.9581 44.0979 89.1527 44.4722L88.6558 46.9025C88.5757 47.2941 87.2087 47.3198 85.6026 46.9599C83.9965 46.6 82.7593 45.9907 82.8393 45.5992L82.8571 45.5123C79.2895 46.3366 76.1493 47.4765 73.8092 48.7276C72.1609 49.0781 70.3265 50.4193 68.5399 52.8422C66.7406 55.2822 64.99 58.8194 63.527 63.5481C63.4622 63.7095 63.7355 64.0535 64.2651 64.4936C64.8729 64.9987 65.8185 65.6305 66.9796 66.2594L84.4981 57.8325C84.8997 57.6282 85.3466 57.5067 85.8189 57.4885V57.4858C85.8547 57.4858 85.8903 57.4859 85.9261 57.486C85.9315 57.486 85.9368 57.4858 85.9423 57.4858C85.9496 57.4858 85.9568 57.4861 85.9642 57.4861C86.7116 57.4888 87.4278 57.5121 88.092 57.5525C88.4761 57.5759 88.8428 57.605 89.1882 57.6392C91.0435 57.823 92.2816 58.1542 92.2816 58.5321C92.2816 58.7914 91.6987 59.0286 90.734 59.2114C92.5055 59.398 93.677 59.7213 93.677 60.0889C93.677 60.4473 92.5637 60.7635 90.8665 60.9521C92.4218 61.1431 93.4264 61.4455 93.4264 61.786C93.4264 62.1475 92.294 62.4661 90.5723 62.654C91.5695 62.8381 92.1743 63.0793 92.1743 63.3434C92.1743 63.8851 89.6315 64.3306 86.373 64.3842C86.232 64.4035 86.0883 64.4134 85.9424 64.4134C85.9026 64.4134 85.8633 64.4125 85.8239 64.411C85.4616 64.3977 85.1143 64.3235 84.7907 64.1977C84.7829 64.1947 84.775 64.1915 84.7671 64.1884C81.8822 66.8373 76.851 71.1344 71.8994 73.8148C72.2073 73.9059 72.5415 73.9936 72.9 74.0778C75.8564 74.7715 80.472 75.218 85.6585 75.218C90.3185 75.218 94.5177 74.8576 97.4665 74.2813C100.079 73.7707 101.71 73.0906 101.811 72.3412C102.445 68.3221 102.746 64.6607 102.847 61.4535C103.383 61.8406 103.943 62.2283 104.528 62.6162C104.715 62.7652 105.403 62.3255 106.314 61.4668C107.165 60.665 108.209 59.4978 109.221 58.1036C110.562 56.2567 111.62 54.5379 112.114 53.4635C112.369 52.9065 112.473 52.5229 112.387 52.3843L112.422 52.3379Z" fill="#7681BF"/>
<path d="M103.072 51.2842H92.7393C91.797 51.2842 90.9331 51.8333 90.4983 52.7084L88.0918 57.5525C88.4759 57.5759 88.8426 57.605 89.188 57.6392C91.0433 57.823 92.2814 58.1542 92.2814 58.5321C92.2814 58.7914 91.6985 59.0285 90.7338 59.2114C92.5053 59.398 93.6768 59.7212 93.6768 60.0889C93.6768 60.4473 92.5635 60.7635 90.8663 60.9521C92.4216 61.1431 93.4262 61.4455 93.4262 61.786C93.4262 62.1475 92.2938 62.4661 90.5721 62.654C91.5693 62.8381 92.1741 63.0793 92.1741 63.3434C92.1741 63.8851 89.6313 64.3306 86.3728 64.3842C86.2318 64.4035 86.0881 64.4134 85.9422 64.4134C85.9024 64.4134 85.8631 64.4124 85.8237 64.411C85.4614 64.3977 85.1141 64.3235 84.7905 64.1977L83.9998 65.7893C83.4139 66.9687 84.2314 68.3785 85.5013 68.3785H95.8695C96.8118 68.3785 97.6758 67.8294 98.1106 66.9542L104.592 53.9071C105.186 52.7121 104.358 51.2842 103.072 51.2842Z" fill="#AE8932"/>
<path d="M69.7395 163.696V174.144H77.6037V172.838L80.4553 174.144H87.317C87.317 174.144 79.4541 170.384 77.6037 167.069V163.696H69.7395Z" fill="#1F2D50"/>
<path d="M109.661 164.393L113.247 174.144L120.586 171.186L120.138 169.967L123.247 170.114L129.651 167.533C129.651 167.533 121.022 166.981 118.158 164.584L117 161.435L116.045 161.82L110.863 163.909L109.661 164.393Z" fill="#1F2D50"/>
<path d="M73.809 48.7275C76.1491 47.4763 79.2893 46.3365 82.8569 45.5122L83.9849 39.9962C83.9406 39.9153 83.8987 39.8323 83.8591 39.7475C83.4765 39.8602 83.0177 39.8463 82.5645 39.6779C81.621 39.3271 81.0602 38.4413 81.3118 37.6993C81.5634 36.9575 82.5324 36.6403 83.4759 36.9911C83.5999 37.0371 83.7171 37.0925 83.8268 37.1555C83.8175 36.5843 83.6504 35.5716 82.7277 34.6524C82.7277 34.6524 86.3315 33.8361 86.5124 31.2473C86.5124 31.2473 87.8117 32.2199 89.648 31.9363C89.9717 32.3312 90.2322 32.7946 90.4069 33.3151L91.4482 36.4177C92.0758 38.2877 91.3999 40.3061 89.9189 41.3869C89.9198 41.3884 89.9208 41.3896 89.9217 41.3911C89.9794 41.4872 89.9517 41.6141 89.8599 41.6744C89.8091 41.7078 89.7574 41.7397 89.7051 41.7711L89.1527 44.4721C92.9581 44.0979 96.2926 44.2567 98.6005 44.8772C100.724 45.1482 103.34 46.1503 106.118 47.7702C106.336 47.4332 106.528 47.0731 106.692 46.6912C108.185 43.2062 106.702 39.2355 103.381 37.8226C103.276 37.778 103.17 37.7365 103.064 37.6978C101.268 37.0233 101.209 35.3734 101.251 34.7756C101.624 31.8577 100.137 28.9829 97.4162 27.8252C95.5183 27.0178 93.4308 27.2206 91.7115 28.1925L91.7112 28.1923L91.7062 28.1953C91.6195 28.2444 91.5338 28.2955 91.449 28.3484C89.6003 29.4008 88.6666 28.837 88.3947 28.6049L88.3096 28.5219L88.3084 28.5207L88.3082 28.5208C87.777 28.0139 87.1509 27.5943 86.4401 27.2919C83.2539 25.9366 79.5335 27.4271 77.9179 30.6267C77.6856 31.0486 77.4942 31.5055 77.3511 31.9937C77.3315 32.0606 77.3132 32.1277 77.2956 32.1948L77.2937 32.2029L77.259 32.3409C76.7328 34.2998 75.0158 34.7144 74.4381 34.7992C74.3742 34.8051 74.3105 34.8123 74.247 34.8202L74.2464 34.8203C71.857 35.1197 69.7718 36.8209 69.0181 39.3907C68.5488 40.991 68.6754 42.6576 69.265 44.124C69.2839 44.1776 69.3057 44.2307 69.3308 44.2835L69.337 44.2966C69.375 44.3846 69.4146 44.4718 69.4559 44.5582C70.519 47.0046 69.7963 48.5218 69.5958 48.8676L69.5491 48.9426L69.5484 48.9435L69.5486 48.9436C69.243 49.4397 68.9959 49.9891 68.821 50.5857C68.6021 51.3323 68.5129 52.0934 68.5397 52.8419C70.3263 50.4191 72.1607 49.078 73.809 48.7275Z" fill="#1F2D50"/>
<path d="M84.1527 106.246L87.2338 80.7401C87.2474 80.6274 87.1713 80.5247 87.0637 80.5104C86.9561 80.4962 86.8578 80.5758 86.8443 80.6885L83.7632 106.195C83.7531 106.278 83.7925 106.356 83.8575 106.397C83.8801 106.411 83.9056 106.421 83.9333 106.424C83.9628 106.428 83.9916 106.425 84.0181 106.416C84.0883 106.392 84.1429 106.328 84.1527 106.246Z" fill="#BCAB7A"/>
<path d="M87.4965 35.3959L88.5063 35.9244C88.6026 35.9747 88.6579 36.076 88.6581 36.1818L88.6304 36.3069L88.1205 37.408C88.0732 37.5102 88.1139 37.633 88.2115 37.6826C88.3091 37.7321 88.4265 37.6895 88.4738 37.5873L88.9838 36.4862C89.029 36.3886 89.0508 36.2841 89.0507 36.1818C89.051 35.9257 88.9152 35.6791 88.6818 35.5568L87.6721 35.0283C87.5751 34.9775 87.4572 35.0186 87.4087 35.1202C87.3603 35.2217 87.3996 35.3451 87.4965 35.3959Z" fill="#D35F43"/>
<path d="M89.085 34.7597C89.187 34.7206 89.2224 34.5538 89.1642 34.3871C89.1059 34.2204 88.976 34.1168 88.874 34.1559C88.7719 34.195 88.7365 34.3618 88.7948 34.5285C88.8531 34.6953 88.9829 34.7988 89.085 34.7597Z" fill="#010202"/>
<path d="M86.2948 35.4764C86.3968 35.4374 86.4322 35.2706 86.3739 35.1038C86.3157 34.9371 86.1858 34.8335 86.0838 34.8726C85.9818 34.9117 85.9463 35.0786 86.0046 35.2453C86.0629 35.412 86.1927 35.5155 86.2948 35.4764Z" fill="#010202"/>
<path d="M86.3395 38.3165C86.5876 38.7987 87.0612 39.0733 87.5498 39.073C87.7697 39.073 87.9935 39.0174 88.2 38.9008C88.2955 38.847 88.3312 38.7223 88.2798 38.6224C88.2284 38.5225 88.1094 38.485 88.0139 38.5388C87.8654 38.6225 87.7069 38.6618 87.5498 38.6618C87.2002 38.6615 86.8624 38.4663 86.6852 38.1215C86.6338 38.0216 86.5147 37.9842 86.4193 38.038C86.3238 38.092 86.2881 38.2166 86.3395 38.3165Z" fill="#D35F43"/>
<path d="M89.6509 41.3263C89.4076 41.4863 89.1435 41.6206 88.8606 41.7247C88.4298 41.8831 87.9911 41.9582 87.5596 41.9582C87.037 41.9582 86.5249 41.8481 86.0518 41.6419C85.9517 41.5982 85.8368 41.6478 85.7951 41.7526C85.7534 41.8574 85.8007 41.9777 85.9009 42.0213C86.4208 42.248 86.9841 42.3692 87.5596 42.3692C88.0345 42.3692 88.5178 42.2865 88.9908 42.1125C89.2425 42.0199 89.4809 41.9049 89.705 41.7711C89.7573 41.7398 89.809 41.7078 89.8598 41.6744C89.9516 41.614 89.9793 41.4872 89.9216 41.3911C89.9208 41.3896 89.9197 41.3884 89.9188 41.3869C89.8601 41.2942 89.7413 41.2669 89.6509 41.3263Z" fill="#D35F43"/>
<path d="M84.0157 38.7415C84.1203 38.7716 84.2283 38.7071 84.2571 38.5977C84.2857 38.4882 84.2241 38.3751 84.1196 38.3451L82.0812 37.7601C81.9766 37.7301 81.8685 37.7945 81.8399 37.904C81.8112 38.0134 81.8728 38.1265 81.9773 38.1565L84.0157 38.7415Z" fill="#D35F43"/>
<path d="M85.5013 68.3782H86.6406C85.3707 68.3782 84.5532 66.9685 85.1391 65.7891L85.8238 64.4108C85.4615 64.3975 85.1142 64.3233 84.7906 64.1975L83.9999 65.789C83.4139 66.9685 84.2315 68.3782 85.5013 68.3782Z" fill="#D8A740"/>
<path d="M91.6376 52.7084C92.0723 51.8332 92.9363 51.2842 93.8786 51.2842H92.7394C91.7971 51.2842 90.9332 51.8332 90.4984 52.7084L88.0919 57.5525C88.476 57.5759 88.8427 57.6049 89.188 57.6391L91.6376 52.7084Z" fill="#D8A740"/>
<path d="M94.7475 61.6595C95.4162 62.0637 96.4722 61.4595 97.1061 60.31C97.7401 59.1606 97.7119 57.901 97.0432 57.4969C96.3744 57.0927 95.3184 57.6968 94.6845 58.8464C94.0506 59.9958 94.0788 61.2553 94.7475 61.6595Z" fill="#D8A740"/>
<path d="M125.597 40.6508C125.508 40.5855 125.386 40.6081 125.323 40.701C125.261 40.7939 125.282 40.9222 125.371 40.9873L125.386 40.9989C125.47 41.0635 125.88 41.3972 126.27 41.9575C126.66 42.5185 127.029 43.3007 127.049 44.2754C127.052 44.3889 127.142 44.4788 127.25 44.4763C127.359 44.4738 127.444 44.3797 127.442 44.2662C127.417 43.1133 126.954 42.2087 126.503 41.5973C126.05 40.9848 125.607 40.6589 125.597 40.6508Z" fill="#D35F43"/>
</svg>
