<svg width="148" height="152" viewBox="0 0 148 152" fill="none" xmlns="http://www.w3.org/2000/svg">
<path d="M41.8669 138.826H108.995" stroke="#A3ADD1" stroke-width="4.9311" stroke-miterlimit="10" stroke-linecap="round"/>
<path d="M69.7223 49.4834C70.243 49.5062 71.4792 48.5435 71.278 49.3012C71.1633 49.7327 73.5396 69.2503 76.1052 89.9326" stroke="#325A84" stroke-width="11.1673" stroke-miterlimit="10" stroke-linecap="round"/>
<path d="M68.0358 52.8842C67.9605 53.4786 67.8547 67.7888 67.7552 84.6792" stroke="#325A84" stroke-width="11.1673" stroke-miterlimit="10" stroke-linecap="round"/>
<path d="M60.9186 52.5886C60.7632 52.9561 58.4322 67.6417 55.7567 84.7071" stroke="#325A84" stroke-width="11.1673" stroke-miterlimit="10" stroke-linecap="round"/>
<path d="M79.9006 79.4729H41.4986L50.8566 24.966H89.2587L79.9006 79.4729Z" fill="#C17553"/>
<path d="M88.359 24.965L87.9345 27.4336L81.8805 62.698L80.5747 70.3093L79.0014 79.4732H40.5984L49.5335 27.4336L49.9579 24.965H88.359Z" fill="#FFD8BD"/>
<path opacity="0.39" d="M78.2136 74.8615H43.9202L52.4075 24.7626L86.7009 24.5431L78.2136 74.8615Z" fill="#85807E"/>
<path d="M77.5334 74.0233H43.24L51.7273 23.9245L86.0207 23.7049L77.5334 74.0233Z" fill="white"/>
<path opacity="0.39" d="M88.3595 24.965L87.935 27.4336H49.534L49.9584 24.965H88.3595Z" fill="#85807E"/>
<path d="M89.1817 20.3295V25.6187H49.8522V25.6041C49.0831 25.5203 48.4199 25.0383 48.0342 24.3446C47.8096 23.9402 47.6792 23.4646 47.6792 22.9532C47.6792 22.599 47.7423 22.2616 47.8568 21.9515C48.2138 20.977 49.0811 20.2876 50.0931 20.2876C50.2338 20.2876 50.3705 20.3043 50.5032 20.3295H89.1817Z" fill="#4D6199"/>
<path d="M72.1372 43.1825C73.4287 43.9079 74.6598 44.7467 75.8123 45.6873" stroke="#07113D" stroke-width="2.4816" stroke-miterlimit="10" stroke-linecap="round" stroke-linejoin="round"/>
<path d="M75.2741 44.3265C75.3917 45.0105 75.7314 45.6523 76.2264 46.1254C75.8619 46.0891 75.4971 46.0529 75.1325 46.0166" stroke="#07113D" stroke-width="2.4816" stroke-miterlimit="10" stroke-linecap="round" stroke-linejoin="round"/>
<path d="M74.6576 48.3507C75.4886 48.3093 76.3197 48.2678 77.1506 48.2264C77.5421 48.2068 77.9403 48.1879 78.321 48.2838" stroke="#07113D" stroke-width="2.4816" stroke-miterlimit="10" stroke-linecap="round" stroke-linejoin="round"/>
<path d="M74.5618 49.7293C75.3927 49.6878 76.2238 49.6464 77.0547 49.6049C77.4463 49.5853 77.8444 49.5664 78.2251 49.6623" stroke="#07113D" stroke-width="2.4816" stroke-miterlimit="10" stroke-linecap="round" stroke-linejoin="round"/>
<path d="M56.157 64.1448C55.3247 63.8385 54.4684 63.5173 53.8179 62.9023C53.0772 62.2021 52.6844 61.1918 52.4685 60.1819C52.2619 59.2163 52.1986 58.1946 52.4785 57.2486C52.7584 56.3027 53.4226 55.4427 54.3315 55.1171" stroke="#FF4343" stroke-width="1.7493" stroke-miterlimit="10"/>
<path d="M52.4144 55.3789C53.1578 55.2665 53.9011 55.1541 54.6446 55.0417C54.3703 55.5851 54.2617 56.215 54.3374 56.822" stroke="#FF4343" stroke-width="1.7493" stroke-miterlimit="10"/>
<path d="M64.9695 64.6941C70.2207 63.4443 74.5425 58.7808 75.4984 53.3324" stroke="#FF4343" stroke-width="1.7493" stroke-miterlimit="10"/>
<path d="M73.7932 55.3214C74.5004 54.8311 75.102 54.1809 75.5427 53.4305" stroke="#FF4343" stroke-width="1.7493" stroke-miterlimit="10"/>
<path d="M75.5971 53.7805C76.0511 54.5959 76.3575 55.4977 76.496 56.4263" stroke="#D93838" stroke-width="1.7493" stroke-miterlimit="10"/>
<path d="M65.2113 39.7228C65.0042 39.6615 64.8105 39.6776 64.6633 39.7671C64.6579 39.7382 64.6523 39.7098 64.6471 39.682C64.6253 39.569 64.5175 39.4953 64.4084 39.5169C64.2983 39.5387 64.2259 39.6477 64.2463 39.761L64.2933 40.0214C64.3254 40.2283 64.34 40.4414 64.2871 40.6316C64.2274 40.8475 64.0243 41.0599 63.8227 41.0332C63.7651 41.0256 63.7073 40.9777 63.6704 40.9123C63.715 40.7922 63.7426 40.6651 63.7495 40.5342C63.754 40.4529 63.7122 40.3763 63.6423 40.3379C63.5724 40.2996 63.4876 40.306 63.4237 40.3548C63.4108 40.3648 63.3984 40.3752 63.3867 40.3864C63.3869 40.3835 63.3871 40.3806 63.3871 40.3778C63.3946 40.1783 63.3034 39.9866 63.1365 39.8519C62.9419 39.6945 62.6795 39.6377 62.452 39.7039C62.1141 39.802 61.8393 40.1187 61.717 40.5507C61.6061 40.9414 61.6556 41.4394 62.0161 41.6715C62.1554 41.761 62.3277 41.801 62.5264 41.7895C62.8905 41.7693 63.2251 41.5777 63.4525 41.2952C63.5426 41.3783 63.6523 41.4333 63.7702 41.449C64.0388 41.4847 64.2851 41.3545 64.4576 41.1562C64.5645 41.9027 64.7123 42.6463 64.899 43.3739C64.9228 43.4676 65.0054 43.5301 65.096 43.5301C65.1108 43.5301 65.1259 43.5284 65.1409 43.525C65.2479 43.5004 65.3168 43.3931 65.2969 43.2823L64.9894 41.5786C65.1297 41.6085 65.2836 41.5955 65.4318 41.5377C65.7135 41.4283 65.922 41.1873 65.9758 40.9084C66.0723 40.4078 65.7294 39.876 65.2113 39.7228ZM63.233 40.8851C63.0852 41.155 62.8059 41.3541 62.5038 41.3708C62.4251 41.3754 62.3154 41.3692 62.2327 41.3161C62.0617 41.206 62.0408 40.9066 62.1085 40.6678C62.1725 40.442 62.3256 40.1761 62.563 40.107C62.589 40.0994 62.6167 40.0959 62.6451 40.0959C62.7277 40.0959 62.8163 40.1265 62.884 40.1812C62.9209 40.2111 62.9825 40.2742 62.9793 40.3616C62.9748 40.4773 63.0626 40.5745 63.1751 40.5791C63.2054 40.5798 63.2381 40.5739 63.2662 40.5612C63.2261 40.658 63.2139 40.7698 63.233 40.8851ZM65.5755 40.8269C65.5492 40.9628 65.4361 41.088 65.2874 41.1457C65.229 41.1682 65.0815 41.2109 64.9639 41.1187C64.9442 41.1032 64.9227 41.092 64.9001 41.0849L64.7832 40.4367C64.7783 40.2737 64.8066 40.1707 64.8679 40.1298C64.9156 40.0979 64.9998 40.0964 65.0984 40.1256C65.4069 40.2168 65.6299 40.5446 65.5755 40.8269Z" fill="#37A9E2"/>
<path d="M66.7514 39.7081C66.72 39.7027 66.6834 39.6977 66.6437 39.6963C66.6173 39.6774 66.586 39.6647 66.5516 39.6607C66.4538 39.649 66.365 39.7097 66.3344 39.8014C66.2103 39.914 66.1808 40.0831 66.1675 40.1601C66.0535 40.8157 66.0981 41.4965 66.2875 42.1319C66.2461 42.1661 66.2177 42.217 66.2122 42.2757C66.2019 42.3909 66.2846 42.4929 66.3967 42.5038C66.4036 42.5044 66.4107 42.5049 66.4176 42.5056C66.5146 42.7476 66.6335 42.9804 66.7736 43.1996C66.8123 43.2602 66.8772 43.2941 66.9442 43.2941C66.9721 43.2941 67.0004 43.2884 67.027 43.2761C67.1185 43.2344 67.167 43.1307 67.1413 43.0314C67.0902 42.8307 67.0372 42.6243 66.9869 42.4142C67.4487 42.229 67.8198 41.7924 67.8846 41.2815C67.9759 40.5639 67.4462 39.8287 66.7514 39.7081ZM67.4801 41.2273C67.4375 41.5627 67.1953 41.8586 66.893 42.0006C66.7626 41.3879 66.672 40.751 66.7098 40.1266C67.1772 40.2241 67.5419 40.7409 67.4801 41.2273Z" fill="#37A9E2"/>
<path d="M76.1453 35.5971C76.0919 35.556 76.0217 35.5449 75.9584 35.5668C75.9232 35.5791 75.8862 35.5867 75.8503 35.5979C75.7673 35.5222 75.6398 35.5285 75.5645 35.6136C75.543 35.6379 75.5205 35.6609 75.4989 35.685C75.195 35.743 74.8837 35.7627 74.5779 35.7344C74.4621 35.7237 74.3664 35.8088 74.356 35.924C74.3458 36.0394 74.4285 36.1412 74.5407 36.1517C74.7104 36.1676 74.8816 36.1679 75.0524 36.1598C74.1878 37.0414 73.2194 37.8065 72.1623 38.4357C72.0924 38.4774 72.0571 38.5555 72.0628 38.6332C71.3765 38.0166 70.4832 37.5646 69.6153 37.2891C67.1721 36.5133 63.6546 36.0671 61.2044 37.1169C61.2038 37.1159 61.2038 37.1147 61.2033 37.1138C60.3113 35.7455 59.5067 34.302 58.805 32.8185L60.1702 33.58C60.2699 33.6352 60.393 33.5976 60.447 33.4959C60.5008 33.3942 60.4641 33.2669 60.3651 33.2117L58.4857 32.1635C58.4189 32.1264 58.3373 32.1303 58.2742 32.1738C58.2112 32.2174 58.177 32.2934 58.1854 32.3711C58.2609 33.0617 58.2788 33.7633 58.2387 34.4565C58.2319 34.5721 58.3178 34.6714 58.4301 34.6783C58.4343 34.6786 58.4383 34.6786 58.4424 34.6786C58.5496 34.6786 58.6394 34.5928 58.6458 34.4815C58.6654 34.1455 58.6702 33.8073 58.6634 33.4694C59.3094 34.7866 60.035 36.0689 60.8293 37.2927C60.7073 37.356 60.5854 37.4195 60.47 37.4915C59.3797 38.1728 58.7095 39.189 58.4783 40.5117C58.4266 40.8074 58.3804 41.127 58.384 41.4463C58.3724 41.4443 58.3607 41.4394 58.349 41.4398C57.0066 41.4764 55.6562 41.6196 54.3339 41.8638C54.7057 41.6384 55.0823 41.4173 55.4592 41.2053C55.5581 41.1498 55.5944 41.0224 55.5401 40.9209C55.4859 40.8194 55.3622 40.7821 55.2632 40.8378C54.7174 41.1449 54.1715 41.4691 53.6406 41.8015C53.5717 41.8446 53.5341 41.9255 53.5446 42.0077C53.5551 42.09 53.6117 42.158 53.6893 42.1814C54.4543 42.4126 55.218 42.6831 55.9593 42.9854C55.984 42.9956 56.0095 43.0003 56.0346 43.0003C56.1157 43.0003 56.1925 42.9501 56.2244 42.8681C56.2658 42.7605 56.2148 42.6387 56.1101 42.596C55.7462 42.4477 55.3763 42.3095 55.0044 42.1771C56.1144 41.9993 57.2398 41.8895 58.3602 41.8589C58.3807 41.8584 58.3993 41.8517 58.4177 41.8453C58.4431 41.9914 58.4834 42.1352 58.5437 42.2744C58.7739 42.8047 59.2516 43.1602 59.6424 43.411C60.0716 43.6863 60.5282 43.9267 61.0117 44.1325L59.5555 47.4404C59.5356 47.1865 59.5236 46.9322 59.5208 46.6784C59.5195 46.5627 59.4176 46.4661 59.3145 46.4711C59.2018 46.4725 59.1115 46.5674 59.1128 46.6831C59.1206 47.3727 59.1898 48.0659 59.3184 48.7439C59.3337 48.8253 59.3945 48.8896 59.4731 48.908C59.4883 48.9116 59.5034 48.9133 59.5185 48.9133C59.5818 48.9133 59.6428 48.8829 59.682 48.8293C59.9581 48.4502 60.3557 48.1751 60.8012 48.0543C60.9102 48.0247 60.9752 47.9101 60.9464 47.7983C60.9178 47.6863 60.8051 47.6196 60.6971 47.6491C60.3044 47.7555 59.943 47.9621 59.6475 48.2445C59.6475 48.244 59.6473 48.2434 59.6473 48.2429C59.6501 48.2377 59.6542 48.2335 59.6567 48.2279L61.3922 44.285C62.7278 44.7897 64.2557 45.0435 65.9644 45.0435C66.5288 45.0435 67.1129 45.0156 67.7164 44.9604L69.2301 49.195C68.9568 49.0246 68.7009 48.8229 68.4752 48.5947C68.3949 48.5135 68.2657 48.5147 68.1866 48.5971C68.1076 48.6795 68.1086 48.8123 68.189 48.8935C68.5918 49.3009 69.0598 49.6233 69.5796 49.8518C69.6052 49.8631 69.6325 49.8687 69.6598 49.8687C69.7009 49.8687 69.7415 49.856 69.7762 49.8312C69.834 49.79 69.8669 49.7212 69.8637 49.6491C69.8353 49.0308 69.8983 48.4139 70.051 47.8151C70.0795 47.7032 70.0142 47.5887 69.9052 47.5593C69.796 47.5301 69.6848 47.5969 69.656 47.7089C69.5735 48.0327 69.5186 48.3618 69.4852 48.6932L68.1349 44.9163C68.1925 44.9099 68.2489 44.9052 68.3069 44.8983C69.3244 44.7772 70.4972 44.572 71.4835 43.9675C72.57 43.3018 73.2528 42.2075 73.2649 41.1119C73.2751 40.2067 72.8726 39.4437 72.2638 38.8271C72.2638 38.8271 72.2646 38.8272 72.2649 38.8272C72.2996 38.8272 72.3348 38.8181 72.3672 38.799C73.6063 38.0615 74.7268 37.1431 75.7055 36.0713C75.7403 36.0634 75.7758 36.0578 75.8105 36.0488L75.7737 37.2241C75.7699 37.3398 75.8584 37.4366 75.971 37.4403C75.9732 37.4403 75.9755 37.4405 75.9778 37.4405C76.0875 37.4405 76.1781 37.351 76.1814 37.2376L76.2274 35.7729C76.2299 35.7035 76.1991 35.6381 76.1453 35.5971ZM72.8571 41.1064C72.8466 42.0571 72.2403 43.0152 71.2745 43.6068C70.3546 44.1705 69.2344 44.3651 68.2601 44.4811C64.8018 44.8925 61.9748 44.4127 59.8584 43.0548C59.5169 42.8358 59.1012 42.5296 58.9162 42.1032C58.7178 41.6466 58.7899 41.103 58.8803 40.5854C59.09 39.3859 59.6965 38.4653 60.6826 37.8492C61.7338 37.1924 63.1727 36.924 64.6984 36.924C66.3201 36.924 68.04 37.2273 69.4952 37.6894C71.0583 38.1858 72.8765 39.3786 72.8571 41.1064Z" fill="#37A9E2"/>
<path d="M79.28 33.9797C78.3274 34.0986 77.3761 34.125 76.4183 34.0591C76.0251 34.0321 76.0268 34.6609 76.4183 34.6877C77.3759 34.7538 78.3272 34.7272 79.28 34.6084C79.6661 34.5602 79.6707 33.9309 79.28 33.9797Z" fill="#37A9E2"/>
<path d="M82.0218 34.0483C81.9741 33.8708 81.8088 33.8004 81.6452 33.8288C81.3732 33.8761 81.1014 33.9232 80.8294 33.9705C80.6662 33.9989 80.575 34.2054 80.6156 34.3572C80.663 34.5346 80.8286 34.6052 80.9922 34.5768C81.264 34.5295 81.536 34.4824 81.808 34.4351C81.9709 34.4067 82.0624 34.2002 82.0218 34.0483Z" fill="#37A9E2"/>
<path d="M81.6248 31.7967C79.8549 32.315 78.0064 31.6136 76.1945 32.1134C75.8145 32.2181 75.9756 32.8247 76.3573 32.7195C78.1702 32.2196 80.0004 32.9262 81.7876 32.4028C82.1658 32.2922 82.005 31.6854 81.6248 31.7967Z" fill="#37A9E2"/>
<path d="M57.945 31.186C58.155 31.0746 58.315 30.9386 58.449 30.7663C58.7822 30.9675 58.8862 30.8418 59.4577 30.7851C60.0994 30.7214 60.7264 30.819 61.3373 31.022C61.713 31.1468 61.8739 30.54 61.5001 30.4159C60.9987 30.2492 60.4833 30.143 59.9548 30.1364C59.4722 30.1305 58.9221 30.3667 58.5195 30.0565C58.3913 29.9575 58.1711 30.0318 58.1009 30.1693C58.0149 30.3987 57.86 30.5564 57.636 30.643C57.2859 30.829 57.5952 31.3716 57.945 31.186Z" fill="#37A9E2"/>
<path d="M66.3394 29.9178C65.3943 30.0299 64.4471 30.0953 63.4961 30.1142C63.1028 30.122 63.1015 30.7508 63.4961 30.7428C64.4474 30.7239 65.3943 30.6585 66.3394 30.5464C66.7261 30.5006 66.7304 29.8713 66.3394 29.9178Z" fill="#37A9E2"/>
<path d="M57.7843 28.8857C60.6397 28.7224 63.495 28.5593 66.3504 28.396C66.7421 28.3735 66.7447 27.7447 66.3504 27.7672C63.495 27.9305 60.6397 28.0938 57.7843 28.257C57.3924 28.2794 57.3901 28.9082 57.7843 28.8857Z" fill="#37A9E2"/>
<path d="M52.7485 40.2126C51.9911 40.2096 51.2425 40.2739 50.4948 40.3965C50.1069 40.4602 50.2715 41.0662 50.6574 41.0029C51.3507 40.889 52.0467 40.8385 52.7485 40.8414C53.1424 40.8429 53.1429 40.2141 52.7485 40.2126Z" fill="#37A9E2"/>
<path d="M52.6048 41.233C52.3261 41.117 51.9469 41.2364 51.662 41.284C51.2172 41.3585 50.7796 41.4637 50.3466 41.5909C49.9684 41.7019 50.1292 42.3087 50.5093 42.197C50.815 42.1074 51.1223 42.0273 51.4341 41.9628C51.5734 41.9341 51.9067 41.8268 52.1557 41.8083C52.1748 41.9086 52.2402 41.9983 52.3655 42.0336C52.8631 42.1736 53.0797 41.4306 52.6048 41.233Z" fill="#37A9E2"/>
<path d="M51.116 42.8738H50.4359C50.0419 42.8738 50.0414 43.5024 50.4359 43.5024H51.116C51.51 43.5026 51.5105 42.8738 51.116 42.8738Z" fill="#37A9E2"/>
<path d="M61.5869 49.7844C59.6368 49.6839 57.6879 49.6682 55.7366 49.7369C55.3436 49.7508 55.342 50.3796 55.7366 50.3657C57.6879 50.297 59.6368 50.3129 61.5869 50.4132C61.9806 50.4333 61.9794 49.8045 61.5869 49.7844Z" fill="#37A9E2"/>
<path d="M59.0061 51.047L55.7408 51.0636C55.3468 51.0656 55.3461 51.6942 55.7408 51.6922L59.0061 51.6756C59.3998 51.6736 59.4006 51.045 59.0061 51.047Z" fill="#37A9E2"/>
<path d="M67.8475 50.7671C68.2415 50.7671 68.242 50.1384 67.8475 50.1384H67.1675C66.7735 50.1384 66.773 50.7671 67.1675 50.7671H67.8475Z" fill="#37A9E2"/>
<path d="M72.4787 50.2172C71.3097 50.1034 70.1573 50.1485 68.9981 50.3353C68.6098 50.3979 68.7748 51.0038 69.1607 50.9416C70.2645 50.7638 71.3676 50.7378 72.4789 50.846C72.8708 50.8842 72.8683 50.2552 72.4787 50.2172Z" fill="#37A9E2"/>
<path d="M71.6544 51.7064C70.2066 51.6106 68.7587 51.515 67.3107 51.4192C66.9174 51.3932 66.919 52.022 67.3107 52.0478C68.7588 52.1434 70.2066 52.2392 71.6544 52.335C72.0477 52.3611 72.0461 51.7324 71.6544 51.7064Z" fill="#37A9E2"/>
<path d="M57.0205 61.6073C56.6544 61.7469 56.8128 62.3548 57.1833 62.2134C57.7313 62.0043 58.2855 61.9136 58.8698 61.9413C59.2635 61.9599 59.2627 61.3313 58.8698 61.3127C58.236 61.2825 57.6154 61.3801 57.0205 61.6073Z" fill="#37A9E2"/>
<path d="M60.0855 61.253C59.6997 61.3026 59.695 61.9321 60.0855 61.8816C60.9837 61.7657 61.8594 61.8257 62.7328 62.0734C63.1131 62.1814 63.2754 61.575 62.8956 61.4673C61.9719 61.2052 61.0367 61.1304 60.0855 61.253Z" fill="#37A9E2"/>
<path d="M64.1782 61.9513C64.1841 61.9512 64.2368 61.9331 64.2377 61.9328C64.2696 61.9236 64.3326 61.9307 64.3634 61.9388C64.5234 61.9811 64.6956 61.885 64.74 61.7193C64.7832 61.5573 64.6867 61.3749 64.5262 61.3327C64.2205 61.2521 63.9207 61.3349 63.6837 61.5441C63.5584 61.6549 63.5731 61.875 63.6837 61.9887C63.8081 62.1163 63.9909 62.0996 64.1167 61.9887C64.096 62.0018 64.1011 61.9981 64.132 61.9773C64.147 61.9679 64.1626 61.9594 64.1782 61.9513Z" fill="#37A9E2"/>
<path d="M65.0506 62.4967C62.459 63.0979 59.8254 62.7801 57.2073 62.5804C56.8144 62.5505 56.8161 63.1793 57.2073 63.2092C59.8846 63.4132 62.5645 63.7176 65.2132 63.103C65.5976 63.0136 65.4349 62.4075 65.0506 62.4967Z" fill="#37A9E2"/>
<path d="M60.2008 64.1786C59.1512 63.8566 58.0824 63.8447 57.0254 64.1391C56.6455 64.2448 56.8068 64.8515 57.188 64.7453C58.1449 64.4789 59.0883 64.4934 60.038 64.7848C60.4164 64.901 60.578 64.2945 60.2008 64.1786Z" fill="#37A9E2"/>
<path d="M62.8145 64.2487H61.4542C61.0602 64.2487 61.0597 64.8773 61.4542 64.8773H62.8145C63.2083 64.8775 63.2092 64.2487 62.8145 64.2487Z" fill="#37A9E2"/>
<path d="M89.1817 21.9515V24.3446H48.0344C47.8098 23.9401 47.6794 23.4646 47.6794 22.9532C47.6794 22.599 47.7425 22.2616 47.857 21.9515H89.1817Z" fill="#365089"/>
<path d="M76.1052 89.9326C79.0332 113.536 82.3722 137.813 82.3722 137.813" stroke="#A3A6BF" stroke-width="11.1673" stroke-miterlimit="10" stroke-linecap="round"/>
<path d="M67.7552 84.679C67.6076 109.759 67.4739 137.623 67.4739 137.623" stroke="#A3A6BF" stroke-width="11.1673" stroke-miterlimit="10" stroke-linecap="round"/>
<path d="M55.7566 84.707C51.9801 108.794 47.5171 137.623 47.5171 137.623" stroke="#A3A6BF" stroke-width="11.1673" stroke-miterlimit="10" stroke-linecap="round"/>
<path d="M48.2097 21.2893H88.898V22.7563H47.6874L48.2097 21.2893Z" fill="#6581C1"/>
<path d="M88.6579 25.6184C89.9911 25.6184 91.0718 24.4252 91.0718 22.9533C91.0718 21.4815 89.9911 20.2883 88.6579 20.2883C87.3248 20.2883 86.244 21.4815 86.244 22.9533C86.244 24.4252 87.3248 25.6184 88.6579 25.6184Z" fill="#07113D"/>
<path d="M88.6579 24.079C89.1959 24.079 89.6321 23.575 89.6321 22.9533C89.6321 22.3317 89.1959 21.8277 88.6579 21.8277C88.1199 21.8277 87.6837 22.3317 87.6837 22.9533C87.6837 23.575 88.1199 24.079 88.6579 24.079Z" fill="#4D6199"/>
<path d="M79.4967 79.5134H37.3723L37.678 77.7335H79.8024L79.4967 79.5134Z" fill="#4D6199"/>
<path d="M77.9945 77.7592L78.5974 79.307L80.4765 79.5134L80.5064 77.7592H77.9945Z" fill="#07113D"/>
<path opacity="0.49" d="M81.8976 62.7505L80.5916 70.3616C80.5528 70.3701 80.5161 70.3763 80.4834 70.3805C76.974 70.9024 73.6664 68.373 72.2993 65.0033C72.285 64.9676 67.6512 54.0728 67.6512 54.0728L71.4008 53.2996C71.4008 53.2996 75.3417 58.3604 77.58 62.0194C78.0329 62.7633 78.4308 63.1678 79.3062 63.4716C79.7937 63.6495 80.9915 63.3561 81.8976 62.7505Z" fill="#444C77"/>
<path d="M66.4951 45.0052L64.2866 41.9201C64.0858 41.6396 64.1422 41.241 64.4122 41.0344C64.6822 40.8279 65.0674 40.8885 65.2683 41.1692L67.4768 44.2543C67.6776 44.5348 68.5059 45.5576 68.2359 45.7642L67.3512 45.14C67.0812 45.3463 66.6959 45.2857 66.4951 45.0052Z" fill="#F4A891"/>
<path d="M67.2683 45.6699L66.7333 41.7777C66.6896 41.459 66.9076 41.1614 67.218 41.1163L67.3 41.1045C67.6103 41.0594 67.9001 41.2835 67.944 41.6022L68.4789 45.4945C68.5227 45.8131 68.3046 46.1107 67.9943 46.1558L67.9122 46.1676C67.6019 46.2126 67.3122 45.9886 67.2683 45.6699Z" fill="#F4A891"/>
<path d="M66.4023 46.8126L63.6665 43.2578C63.4561 42.9847 63.4992 42.5843 63.7618 42.368C64.0246 42.1516 64.4116 42.1982 64.6217 42.4715L67.3576 46.0262C67.5677 46.2993 67.5248 46.6998 67.2622 46.9161C66.9996 47.1323 66.6127 47.0857 66.4023 46.8126Z" fill="#F4A891"/>
<path d="M65.773 48.0291L63.0371 44.4744C62.8268 44.2013 62.8699 43.8008 63.1325 43.5845C63.3953 43.3683 63.7822 43.4148 63.9924 43.688L66.7283 47.2428C66.9384 47.5159 66.8955 47.9163 66.6327 48.1327C66.3703 48.3488 65.9833 48.3022 65.773 48.0291Z" fill="#F4A891"/>
<path d="M65.77 41.9191C65.8019 41.9579 66.2155 42.3482 66.6651 42.7694C67.4415 43.497 68.0402 44.4048 68.4122 45.4173L69.1245 47.3559C69.1245 47.3559 66.2856 48.9398 66.1733 48.8459C64.3223 47.2973 63.0651 44.4389 63.0651 44.4389L65.77 41.9191Z" fill="#F4A891"/>
<path d="M69.9361 47.433L69.2281 45.6996L64.4362 47.9717L65.5176 49.923L69.9361 47.433Z" fill="white"/>
<path d="M64.5443 49.2647C64.5443 49.2647 69.0798 59.9243 69.0935 59.9606C70.4312 63.257 73.6682 65.7325 77.1004 65.2206C77.6148 65.1439 78.8921 64.7618 79.4351 64.5437C80.1183 64.2689 87.4519 59.209 87.4519 59.209L88.1056 50.3913C88.1056 50.3913 79.0744 57.3479 78.5522 57.7115C77.6581 58.3342 76.4385 58.639 75.9502 58.4619C75.0918 58.1631 74.7027 57.7682 74.2593 57.0405C72.0702 53.46 69.9149 46.6729 69.9149 46.6729L64.5443 49.2647Z" fill="#B95241"/>
<path d="M90.4801 128.186C90.5107 128.609 90.6715 134.642 90.6715 134.642L86.3683 134.725L86.4637 127.163L90.4801 128.186Z" fill="#591239"/>
<path d="M92.4628 87.1691C92.4702 87.22 92.4659 87.5003 92.4516 87.9805C92.2408 95.0069 91.0535 133.332 91.0535 133.332L85.503 133.137L84.0349 88.2705L92.4628 87.1691Z" fill="#07113D"/>
<path d="M91.0701 138.339L79.7176 138.424C79.0405 138.429 78.4882 137.861 78.4837 137.155C78.4803 136.611 78.807 136.124 79.2981 135.942L84.902 133.856L91.0424 133.966L91.0701 138.339Z" fill="#884C2E"/>
<path d="M79.4428 138.755L90.9851 138.757L90.9858 137.898L78.6694 137.896V137.96C78.6689 138.399 79.0154 138.755 79.4428 138.755Z" fill="#07113D"/>
<path d="M85.0396 135.587L83.7075 134.101" stroke="#07113D" stroke-width="1.6705" stroke-miterlimit="10" stroke-linecap="round"/>
<path d="M84.0625 136.017L82.7305 134.53" stroke="#07113D" stroke-width="1.6705" stroke-miterlimit="10" stroke-linecap="round"/>
<path d="M83.1266 136.592L81.6271 134.906" stroke="#07113D" stroke-width="1.6705" stroke-miterlimit="10" stroke-linecap="round"/>
<path d="M100.222 128.112C100.245 128.533 100.304 134.533 100.304 134.533L95.9997 134.537L96.2237 127.021L100.222 128.112Z" fill="#591239"/>
<path d="M102.901 87.3779C102.908 87.4285 102.899 87.707 102.876 88.1841C102.546 95.1645 100.708 133.238 100.708 133.238L95.1615 132.942L94.4559 88.3177L102.901 87.3779Z" fill="#07113D"/>
<path d="M100.727 138.239L89.3826 138.693C88.7061 138.721 88.1365 138.174 88.1103 137.472C88.0903 136.932 88.4017 136.438 88.887 136.24L94.424 133.985L100.565 133.894L100.727 138.239Z" fill="#A36440"/>
<path d="M89.1157 139.031L100.654 138.657L100.629 137.804L88.3187 138.202L88.3205 138.264C88.3335 138.701 88.6896 139.045 89.1157 139.031Z" fill="#07113D"/>
<path d="M94.6146 135.701L93.2375 134.267" stroke="#07113D" stroke-width="1.6656" stroke-miterlimit="10" stroke-linecap="round"/>
<path d="M93.6513 136.16L92.2742 134.726" stroke="#07113D" stroke-width="1.6656" stroke-miterlimit="10" stroke-linecap="round"/>
<path d="M92.7335 136.761L91.183 135.135" stroke="#07113D" stroke-width="1.6656" stroke-miterlimit="10" stroke-linecap="round"/>
<path d="M83.7376 86.1526C83.6184 87.4328 83.9486 88.6499 84.593 89.6374C85.417 90.9041 86.7635 91.7945 88.3479 91.9532L96.9241 92.8125C97.1791 92.838 97.4305 92.8435 97.6784 92.8286C98.3164 92.7989 98.9281 92.6415 99.4889 92.3824C99.5887 92.3385 99.6865 92.2887 99.7819 92.2356C101.267 91.4332 102.344 89.8911 102.517 88.0343L102.623 85.1967L84.1648 83.1796L83.7376 86.1526Z" fill="#07113D"/>
<path d="M93.7751 52.667L94.5641 52.8121C95.9407 53.0652 97.2668 52.1044 97.5108 50.677L99.0166 41.8728C99.2608 40.4454 98.3343 39.0703 96.9578 38.8171L96.1688 38.672C94.7922 38.4189 93.4661 39.3797 93.2221 40.8071L91.7163 49.6113C91.4719 51.0387 92.3985 52.4138 93.7751 52.667Z" fill="#F4A891"/>
<path d="M85.5833 30.7508C85.5682 30.8987 85.556 31.0468 85.5468 31.1955C85.5062 31.9112 85.5369 32.6195 85.6376 33.305C86.0651 36.239 87.7337 38.8054 90.1267 40.3313C91.3147 41.0903 92.682 41.5912 94.1635 41.7539C96.5616 42.017 98.445 43.3495 100.278 42.0248C100.869 41.5983 101.414 41.1087 101.896 40.5575C102.086 40.3403 102.268 40.119 102.439 39.8877C103.48 38.4761 104.581 34.7518 104.774 32.8565C105.319 27.5117 101.701 22.7049 96.6297 21.9074C96.4848 21.8855 96.3396 21.8664 96.1941 21.8505C92.9637 21.4962 89.9399 22.8366 87.9406 25.1839C87.9373 25.1866 87.9373 25.1866 87.9373 25.1866C87.3521 25.8761 86.8546 26.6547 86.4654 27.5C86.0076 28.4963 85.7015 29.5919 85.5833 30.7508Z" fill="#A36440"/>
<path d="M97.7844 34.978C97.7599 35.1859 97.7718 35.3918 97.8214 35.5876C97.8755 35.8215 97.9755 36.0782 98.1197 36.2711C98.3815 36.6178 98.7627 36.8975 99.2179 36.9554L100.196 37.0807L100.946 37.1785L101.227 34.8706L101.225 34.8701L101.278 34.4437L101.318 34.1123L101.354 33.8088L101.364 33.7305L101.362 33.73L99.6364 33.5072C99.2005 33.4499 98.7834 33.5742 98.4534 33.8207C98.2534 33.9705 98.0863 34.1694 97.9671 34.3972C97.8699 34.5746 97.8093 34.7674 97.7844 34.978Z" fill="#FFC4BC"/>
<path d="M86.1817 31.8421L85.7316 35.5744L85.6637 36.1331C85.6175 36.5006 85.6012 36.871 85.606 37.2307C85.6591 40.6105 87.8442 43.5992 90.981 44.6008C91.0748 44.6351 91.1726 44.6618 91.2683 44.6851C91.6057 44.7844 91.9514 44.851 92.3086 44.8994C92.6551 44.9459 92.9955 44.9626 93.3365 44.9592C94.0015 44.9552 94.6519 44.8596 95.2717 44.6836C95.2717 44.6836 95.2743 44.6841 95.2776 44.6817C97.9773 43.918 100.136 41.6568 100.73 38.7316C100.748 38.6431 100.765 38.5573 100.778 38.4678C100.801 38.3658 100.814 38.2591 100.826 38.1523L100.836 38.0966L100.868 37.8441L100.946 37.178L101.226 34.8929L101.227 34.8701L101.228 34.8673L101.278 34.4432L101.318 34.1118L101.354 33.8083L101.362 33.7295C101.422 33.2007 101.406 32.6754 101.341 32.164C101.3 31.8062 101.233 31.4523 101.151 31.1098C101.141 31.0536 101.13 31.0054 101.117 30.9543C101.049 30.6719 100.961 30.3888 100.861 30.1178C100.861 30.1151 100.859 30.1117 100.859 30.1117C100.48 29.0774 99.8911 28.1337 99.1393 27.3495C98.9888 27.1928 98.8323 27.0404 98.6714 26.896C97.5486 25.9028 96.1477 25.2234 94.5822 25.0214C92.4885 24.7512 90.4633 25.3749 88.9148 26.6115C88.085 27.2713 87.4706 28.1114 86.9632 29.0717C86.7676 29.4377 86.6158 29.8231 86.5002 30.2238C86.3483 30.7388 86.2475 31.2801 86.1817 31.8421Z" fill="#FFC7B0"/>
<path d="M100.476 34.764L100.196 37.0809L100.009 38.6453L100.602 38.7228C100.645 38.7279 100.689 38.7331 100.73 38.7319C101.731 38.7898 102.627 37.9988 102.753 36.9711C102.82 36.4379 102.659 35.9547 102.356 35.5544C102.085 35.1974 101.688 34.9608 101.227 34.8704L101.225 34.8699C101.172 34.8546 101.126 34.8461 101.072 34.8417L100.476 34.764Z" fill="#FFC4BC"/>
<path d="M92.5201 44.9099C92.5201 44.9099 93.8461 45.2495 95.2717 44.6841C95.2717 44.6841 95.2743 44.6846 95.2776 44.6822C97.9773 43.9185 100.136 41.6573 100.73 38.7321C101.731 38.79 102.627 37.999 102.753 36.9713C102.82 36.4381 102.659 35.9549 102.356 35.5546C102.085 35.1976 101.688 34.961 101.227 34.8706L101.228 34.8678L101.278 34.4437L101.318 34.1123L101.354 33.8088L101.364 33.7305L101.362 33.73C101.422 33.2012 101.406 32.6759 101.342 32.1645C100.428 31.3905 99.4132 31.0892 98.6002 32.2976C98.6002 32.2976 98.5575 32.9041 98.4532 33.8206C98.3772 34.5072 98.2692 35.3656 98.1199 36.2712C97.818 38.1334 97.355 40.1927 96.6777 41.3685C95.2349 43.879 92.5201 44.9099 92.5201 44.9099Z" fill="#F4A891"/>
<path d="M86.9556 32.2601L89.3264 32.6962C89.5601 32.7392 89.7852 32.5761 89.8266 32.3337C89.8681 32.0914 89.7109 31.858 89.477 31.8149L87.1062 31.3788C86.8726 31.3358 86.6474 31.4989 86.606 31.7413C86.5645 31.9836 86.7219 32.217 86.9556 32.2601Z" fill="#A36440"/>
<path d="M92.726 33.3214L95.0968 33.7575C95.3304 33.8005 95.5556 33.6374 95.5972 33.395C95.6386 33.1527 95.4812 32.9193 95.2476 32.8762L92.8768 32.4401C92.6431 32.3971 92.418 32.5602 92.3765 32.8026C92.3349 33.0449 92.4921 33.2783 92.726 33.3214Z" fill="#A36440"/>
<path d="M91.314 39.5345C90.8465 40.0267 90.3048 40.1469 89.7313 40.0728C89.0472 39.9841 88.3363 39.5291 88.2008 38.923L91.314 39.5345Z" fill="white"/>
<path d="M89.0067 37.0358C89.0036 37.0474 89.0527 37.0429 89.0527 37.0429C88.9963 37.4403 89.2729 37.8148 90.0948 37.9408L90.7238 34.8431C89.6553 35.8306 89.1772 36.4006 89.0067 37.0358Z" fill="#F4A891"/>
<path d="M102.147 90.2824C102.147 90.2824 94.6054 89.4344 94.6963 89.1519C94.7873 88.8691 94.7873 85.5716 94.7873 85.5716C94.7873 85.5716 88.7906 84.5351 88.7906 84.9121C88.7906 85.289 88.2455 88.2098 88.2455 88.2098L83.7935 87.3618L83.8843 82.4623L103.237 84.5351L102.147 90.2824Z" fill="#080B2E"/>
<path d="M87.6319 83.0803L96.6262 84.0129L99.6994 45.9276L96.9262 45.7721L94.3028 52.884L93.7262 45.7513L91.3796 45.539L87.6319 83.0803Z" fill="white"/>
<g opacity="0.09">
<path d="M92.0568 47.4436C92.0568 48.1431 89.2461 83.8191 89.2461 83.8191L87.4473 83.9356L90.7613 47.9678L92.0568 47.4436Z" fill="#080B2E"/>
<path d="M98.8025 47.4436L94.8675 88.0161L96.4416 88.3659L99.9898 47.4902L98.8025 47.4436Z" fill="#080B2E"/>
</g>
<path d="M95.9446 88.1281C95.9446 88.1281 96.8823 88.4498 98.4203 88.7344C98.9577 88.8323 99.5693 88.9255 100.239 89.0002C101.179 89.1027 102.236 89.1681 103.369 89.1495C103.439 89.1495 103.504 89.1238 103.567 89.1029L105.398 64.1134C105.42 63.9175 105.44 63.724 105.461 63.5375C105.868 59.7181 105.742 57.5495 105.791 54.2594C105.8 53.786 105.809 53.2871 105.827 52.7602C105.838 52.4454 105.805 52.1515 105.737 51.8718C105.382 50.4052 104.044 49.3816 102.58 48.619C101.699 48.162 100.772 47.7959 99.9899 47.4905C99.6257 47.346 99.8461 47.4696 99.4547 47.4113L95.9446 88.1281Z" fill="#DB734C"/>
<path d="M82.7039 86.6079L84.1921 86.752L87.6102 87.08C87.6102 87.08 91.5954 47.1828 91.2436 47.3185C90.6467 47.5502 90.0034 47.9092 89.3711 48.3784C88.0736 49.3367 86.8225 50.7584 86.122 52.4883C85.9202 52.9803 85.765 53.5003 85.6695 54.0402C85.664 54.06 85.6586 54.0826 85.6558 54.1024C85.0617 57.5111 82.7039 86.6079 82.7039 86.6079Z" fill="#DB734C"/>
<path d="M93.5802 55.2707C93.5584 55.5273 93.7412 55.7536 93.9887 55.7764C94.2362 55.799 94.4544 55.6095 94.4763 55.353C94.4982 55.0964 94.3153 54.8701 94.0678 54.8473C93.8203 54.8245 93.6021 55.0142 93.5802 55.2707Z" fill="#9995A7"/>
<path d="M93.1811 59.9549C93.1593 60.2114 93.3421 60.4377 93.5894 60.4605C93.8369 60.4832 94.0551 60.2937 94.077 60.037C94.0989 59.7803 93.916 59.5541 93.6685 59.5313C93.4212 59.5087 93.203 59.6983 93.1811 59.9549Z" fill="#9995A7"/>
<path d="M92.782 64.639C92.7601 64.8955 92.943 65.1218 93.1903 65.1446C93.4378 65.1673 93.656 64.9778 93.6779 64.7211C93.6998 64.4645 93.5169 64.2382 93.2696 64.2154C93.0221 64.1928 92.8039 64.3824 92.782 64.639Z" fill="#9995A7"/>
<path d="M92.3828 69.3231C92.3609 69.5797 92.5438 69.806 92.7911 69.8288C93.0386 69.8514 93.2568 69.6619 93.2786 69.4052C93.3005 69.1486 93.1177 68.9223 92.8703 68.8995C92.623 68.8769 92.4046 69.0666 92.3828 69.3231Z" fill="#9995A7"/>
<path d="M91.9836 74.0073C91.9618 74.2638 92.1446 74.4901 92.392 74.5129C92.6395 74.5355 92.8577 74.346 92.8795 74.0893C92.9014 73.8328 92.7186 73.6065 92.4712 73.5837C92.2237 73.561 92.0055 73.7507 91.9836 74.0073Z" fill="#9995A7"/>
<path d="M96.9262 45.7721L97.3009 48.4926H99.4744L99.6994 45.9276L96.9262 45.7721Z" fill="white"/>
<path d="M93.7263 45.7513L92.8975 48.0845L90.7613 47.9678L91.0424 45.4612L93.7263 45.7513Z" fill="white"/>
<path d="M101.573 34.2687L101.204 36.1299C101.124 36.5293 100.707 36.7478 100.35 36.5769C100.177 36.4942 100.052 36.3339 100.01 36.1414C99.8253 35.2814 99.2628 32.8046 98.65 31.4706C97.9005 29.8383 96.1016 29.7606 96.1016 29.7606L93.7101 30.3591C92.9548 30.5483 92.3398 29.7212 92.7082 29.0117L92.8037 28.8278L89.7265 29.5641C89.06 29.7236 88.6421 29.0462 88.8474 28.3694C88.8503 28.3595 88.8454 28.3564 88.8314 28.3613C88.7099 28.4034 87.057 28.4453 85.5629 28.475C84.7099 28.4919 84.3187 27.3846 84.9773 26.8224C86.8272 25.2433 89.7569 23.0749 92.2791 22.6873C96.3266 22.0655 101.498 27.1176 101.873 28.2836C102.248 29.4498 101.573 34.2687 101.573 34.2687Z" fill="#A36440"/>
<path d="M93.2604 35.9828C93.4319 36.0203 93.6016 35.9054 93.6378 35.7276L93.7924 34.9671C93.8285 34.7892 93.7177 34.6133 93.5463 34.5758C93.3748 34.5383 93.2051 34.6531 93.1689 34.831L93.0144 35.5915C92.9782 35.7691 93.0889 35.9453 93.2604 35.9828Z" fill="#07113D"/>
<path d="M87.7701 34.8364C87.9416 34.8739 88.1113 34.759 88.1475 34.5813L88.302 33.8208C88.3382 33.643 88.2276 33.467 88.056 33.4295C87.8845 33.392 87.7148 33.5069 87.6786 33.6847L87.5241 34.4452C87.4879 34.6227 87.5987 34.7989 87.7701 34.8364Z" fill="#07113D"/>
<path d="M101.463 88.9489C102.403 89.0514 102.236 89.1681 103.369 89.1494C103.439 89.1494 103.504 89.1237 103.567 89.1027L105.511 63.2219C105.533 63.026 104.516 61.4653 104.537 61.2788C103.77 64.0908 100.793 88.8742 101.463 88.9489Z" fill="#B95241"/>
<path d="M102.56 85.9534L98.2184 87.8469C97.9013 87.9852 97.5328 87.8293 97.3994 87.5005C97.2656 87.1703 97.4151 86.7901 97.7334 86.6513L102.075 84.7579C102.392 84.6196 102.76 84.7754 102.894 85.1043C103.027 85.4329 102.877 85.8151 102.56 85.9534Z" fill="#FFC7B0"/>
<path d="M87.5305 92.0911L99.6939 102.811L107.008 93.8879L94.8443 83.1673L87.5305 92.0911Z" fill="#85807E"/>
<path d="M87.5015 93.4393L100.93 102.391L107.037 92.5395L93.6087 83.588L87.5015 93.4393Z" fill="white"/>
<g opacity="0.51">
<path d="M100.551 91.9432C100.53 91.89 98.112 89.3626 98.4704 88.7713C99.0674 87.7867 99.8787 86.7722 100.715 85.9685L102.315 84.4294C102.315 84.4294 104.343 86.766 104.453 86.8835C105.979 88.5199 102.474 91.14 102.474 91.14C102.474 91.14 101.018 93.1299 100.551 91.9432Z" fill="#85807E"/>
<path d="M100.399 88.6982L96.8028 92.3582C96.5402 92.6255 96.0857 92.5475 95.7928 92.1849C95.4999 91.8223 95.4751 91.3069 95.7377 91.0397L99.334 87.3797C99.5966 87.1123 100.051 87.1904 100.344 87.553C100.637 87.9156 100.662 88.431 100.399 88.6982Z" fill="#85807E"/>
<path d="M100.671 90.7823L97.7597 93.6933C97.495 93.9581 97.085 93.9317 96.8487 93.635C96.6124 93.3383 96.6359 92.8789 96.9007 92.6141L99.8122 89.7031C100.077 89.4383 100.487 89.4644 100.723 89.7614C100.959 90.0581 100.936 90.5175 100.671 90.7823Z" fill="#85807E"/>
<path d="M103.085 90.6543L99.6393 94.0998C99.3746 94.3646 98.9646 94.3384 98.7283 94.0415C98.492 93.7448 98.5155 93.2854 98.7803 93.0206L102.226 89.5751C102.491 89.3103 102.901 89.3365 103.137 89.6334C103.374 89.9301 103.35 90.3896 103.085 90.6543Z" fill="#85807E"/>
</g>
<path d="M100.683 91.168C100.663 91.1204 98.3189 88.8536 98.6663 88.3235C99.245 87.4405 100.031 86.5305 100.841 85.8097L102.393 84.4294C102.393 84.4294 104.358 86.5248 104.464 86.6303C105.944 88.0978 102.546 90.4477 102.546 90.4477C102.546 90.4477 101.135 92.2324 100.683 91.168Z" fill="#FFC7B0"/>
<path d="M100.565 88.289L97.05 91.5405C96.7933 91.7779 96.396 91.7544 96.1671 91.4883C95.9382 91.2221 95.9607 90.81 96.2174 90.5726L99.7319 87.3211C99.9886 87.0837 100.386 87.1071 100.615 87.3733C100.844 87.6395 100.821 88.0516 100.565 88.289Z" fill="#FFC7B0"/>
<path d="M100.799 90.1269L97.9775 92.7375C97.7208 92.975 97.3235 92.9515 97.0944 92.6853C96.8655 92.4192 96.888 92.0071 97.1447 91.7696L99.9666 89.1589C100.223 88.9215 100.621 88.945 100.85 89.2111C101.079 89.4775 101.056 89.8894 100.799 90.1269Z" fill="#FFC7B0"/>
<path d="M103.139 90.0122L99.7992 93.1022C99.5425 93.3396 99.1452 93.3161 98.9161 93.05C98.687 92.7838 98.7097 92.3717 98.9664 92.1343L102.306 89.0443C102.563 88.8068 102.96 88.8303 103.19 89.0964C103.419 89.3626 103.396 89.7747 103.139 90.0122Z" fill="#FFC7B0"/>
<path d="M101.29 84.4404L101.742 84.0219L102.747 83.0953L105.622 86.4378L106.224 87.1392L106.03 87.3174L105.608 87.7109L104.769 88.4856L104.609 88.2985L102.583 85.942L101.762 84.9893L101.703 84.921L101.29 84.4404Z" fill="#9995A7"/>
<path d="M102.117 53.6807L104.355 50.8997L104.73 50.5692C104.777 50.6265 105.416 51.4125 106.318 52.694C107.088 53.7892 108.052 55.2481 109.004 56.9279C111.918 62.0711 113.281 66.6767 113.058 70.6202C112.596 78.8164 106.636 87.235 106.383 87.5893L106.03 87.3172L105.382 86.8194L102.712 84.767L102.337 84.4809L101.742 84.0219L101.338 83.7125C101.386 83.6432 106.435 76.4812 106.789 70.2385C107.057 65.4811 104.894 60.5195 102.566 57.3531C102.234 56.9037 102.368 53.9874 102.117 53.6807Z" fill="#DB734C"/>
<path d="M64.4533 47.9156L63.3145 47.5101L66.1604 39.0817L67.0369 38.2924L67.2992 39.4872L64.4533 47.9156Z" fill="#38C5FC"/>
<path d="M50.7957 77.5933L50.7951 76.3555L59.4817 76.3519L60.4953 76.9434L59.4823 77.5897L50.7957 77.5933Z" fill="#FF4343"/>
<path d="M64.9526 45.3487L64.8875 45.413C64.6413 45.6564 64.246 45.6485 64.009 45.3955L63.0215 44.3409C62.7847 44.0881 62.7925 43.6821 63.0386 43.4389L63.1038 43.3746C63.3499 43.1312 63.7452 43.1391 63.9822 43.3921L64.9697 44.4467C65.2063 44.6997 65.1986 45.1055 64.9526 45.3487Z" fill="#FFC7B0"/>
<path d="M65.6859 44.1889L65.6267 44.2592C65.4028 44.5245 65.0083 44.5536 64.75 44.3237L63.6739 43.3659C63.4157 43.1361 63.3874 42.7311 63.6111 42.4658L63.6703 42.3955C63.8941 42.1302 64.2886 42.1011 64.5469 42.331L65.623 43.2888C65.8814 43.5186 65.9095 43.9238 65.6859 44.1889Z" fill="#FFC7B0"/>
<path d="M65.8751 42.9481L65.8018 43.0025C65.5247 43.208 65.1343 43.1432 64.9342 42.8586L64.1009 41.6726C63.9011 41.3881 63.9641 40.9873 64.241 40.7819L64.3144 40.7275C64.5915 40.522 64.9819 40.5869 65.182 40.8716L66.0152 42.0575C66.2152 42.3418 66.1522 42.7425 65.8751 42.9481Z" fill="#FFC7B0"/>
</svg>
