<?xml version="1.0" encoding="utf-8"?>
<!-- Generator: Adobe Illustrator 27.5.0, SVG Export Plug-In . SVG Version: 6.00 Build 0)  -->
<svg version="1.1" id="Capa_1" xmlns="http://www.w3.org/2000/svg" xmlns:xlink="http://www.w3.org/1999/xlink" x="0px" y="0px"
	 viewBox="0 0 2122 2122" style="enable-background:new 0 0 2122 2122;" xml:space="preserve">
<path style="fill:#EBA8CB;" d="M628.663,468.173c1.398-1.094,2.909-1.939,4.463-2.651c-14.309-28.073-29.846-55.5-46.572-82.234
	c-1.71-2.735-3.435-5.464-5.17-8.188c-27.093-42.516-47.079-90.148-82.221-127.118c-32.171-33.839-68.716-27.946-105.681-7.23
	c-52.165,29.235-102.718,65.398-146.245,107.571c-22.475,21.776-43.308,45.281-61.978,70.446
	c-16.662,22.458-36.565,46.182-31.284,76.428c5.456,31.228,30.489,56.353,49.568,80.209c28.707,35.898,62.047,67.715,95.226,99.357
	c9.773,9.323,19.585,18.66,29.603,27.747l1.023-0.977L628.663,468.173z"/>
<path style="fill:#FCC22C;" d="M1334.406,1391.568c-23.946,9.807-43.771,32.438-45.745,57.347
	c-24.278-8.56-52.867-3.491-72.726,12.899c-19.834,16.395-30.231,43.513-26.407,68.977c-21.573-5.975-45.881-5.893-65.057,5.656
	c-19.152,11.552-30.996,36.509-22.938,57.384c-17.408-4.173-36.979,0.178-49.9,12.538L570.285,989.074
	c30.977-7.812,62.348-14.144,93.93-18.95c1.198-0.183,2.387-0.324,3.586-0.502c27.956,33.143,57.101,65.46,84.76,98.122
	c51.62,60.948,103.347,121.8,155.035,182.689c4.263,5.023,11.439-2.232,7.22-7.223c-50.504-59.768-100.964-119.576-151.537-179.291
	c-26.723-31.549-52.896-64.433-79.937-96.47c63.333-8.287,125.91-9.802,188.18-5.635c35.888,42.597,72.794,84.331,110.67,125.169
	c4.282,4.616,11.094-2.259,6.889-6.892c-34.894-38.482-69.116-77.546-102.65-117.205c42.655,3.476,85.184,9.574,127.737,18
	L1334.406,1391.568z"/>
<path style="fill:#F59E22;" d="M664.215,970.123c1.198-0.183,2.387-0.324,3.586-0.502c-21.851-25.909-43.001-52.311-62.032-79.863
	c-1.568-2.268,1.837-4.636,3.688-2.845c25.973,25.167,50.255,52.531,73.885,80.536c63.333-8.287,125.91-9.802,188.18-5.635
	c-8.283-9.837-16.565-19.671-24.736-29.605c-21.774-26.485-43.24-53.235-64.253-80.326c-18.987-24.482-41.15-49.099-55.362-76.704
	c-1.515-2.945,2.168-5.922,4.614-3.557c24.278,23.486,43.152,53.642,63.985,80.149c20.224,25.727,40.745,51.218,61.607,76.429
	c9.618,11.62,19.318,23.172,29.053,34.687c42.655,3.476,85.184,9.573,127.737,18l-240.74-308.738L493.413,890.494l76.872,98.58
	C601.262,981.261,632.633,974.93,664.215,970.123z"/>
<path style="fill:#847CB9;" d="M782.314,665.218c9.779-7.625,11.537-21.863,3.912-31.642L660.307,472.088
	c-6.534-8.378-17.905-10.816-27.182-6.566c-1.554,0.711-3.064,1.557-4.463,2.651L329.394,701.535l-1.023,0.977
	c-8.799,7.805-10.222,21.267-2.894,30.665l125.924,161.486c7.625,9.778,21.866,11.542,31.644,3.917l10.368-8.085l280.014-218.345
	L782.314,665.218z"/>
<path style="fill:#FFE1A3;" d="M1306.903,1615.658c21.281-13.311,47.771-26.482,74.363-33.781l-27.532-158.616
	c-1.009-5.812-3.435-11.308-7.06-15.958l-12.268-15.734c-23.946,9.807-43.771,32.438-45.745,57.347
	c-24.278-8.56-52.867-3.491-72.726,12.899c-19.834,16.395-30.232,43.513-26.407,68.977c-21.574-5.975-45.88-5.893-65.057,5.656
	c-19.152,11.552-30.996,36.509-22.938,57.384c-17.408-4.173-36.979,0.178-49.9,12.538l15.03,19.277
	c3.625,4.65,8.36,8.344,13.754,10.738l150.09,66.667C1244.296,1667.263,1273.734,1636.422,1306.903,1615.658z"/>
<path style="fill:#1A1A1A;" d="M1384.408,1600.055l-3.143-18.178c-26.592,7.298-53.081,20.47-74.363,33.781
	c-33.169,20.765-62.607,51.605-76.394,87.393l13.895,6.175l110.685,49.157c26.265,11.656,54.918-10.687,50.017-39.004
	L1384.408,1600.055z"/>
<path style="fill:#1A1A1A;" d="M458.071,276.173c2.095-3.688-3.488-6.945-5.676-3.32c-30.373,50.358-68.404,96.153-113.203,134.309
	c-45.437,38.699-96.716,65.488-150.557,90.273c-2.729,1.257-0.794,5.71,2.036,4.828C303.128,467.318,400.76,377.143,458.071,276.173
	z"/>
<path style="fill:#1A1A1A;" d="M795.771,851.771c-20.833-26.507-39.708-56.662-63.985-80.149c-2.446-2.365-6.129,0.612-4.614,3.557
	c14.212,27.605,36.375,52.222,55.362,76.704c21.013,27.091,42.48,53.842,64.253,80.326c8.17,9.934,16.453,19.768,24.736,29.605
	c35.888,42.597,72.794,84.331,110.67,125.169c4.283,4.616,11.094-2.259,6.889-6.892c-34.894-38.482-69.116-77.546-102.65-117.205
	c-9.735-11.516-19.435-23.067-29.053-34.687C836.516,902.989,815.995,877.498,795.771,851.771z"/>
<path style="fill:#1A1A1A;" d="M1113.846,1245.904c33.583,40.828,65.189,87.797,103.615,124.046
	c2.173,2.047,5.925-0.594,4.244-3.271c-26.587-42.346-64.209-80.239-95.932-118.906c-34.056-41.523-66.743-84.987-103.484-124.175
	c-2.188-2.333-6.455,0.792-4.521,3.486C1047.386,1168.357,1081.588,1206.686,1113.846,1245.904z"/>
<path style="fill:#1A1A1A;" d="M605.769,889.758c19.031,27.552,40.18,53.954,62.032,79.863c27.956,33.143,57.101,65.46,84.76,98.122
	c51.62,60.948,103.347,121.8,155.035,182.689c4.263,5.023,11.439-2.232,7.22-7.223c-50.504-59.768-100.964-119.576-151.537-179.291
	c-26.723-31.549-52.896-64.433-79.937-96.47c-23.63-28.005-47.912-55.369-73.885-80.536
	C607.606,885.123,604.2,887.49,605.769,889.758z"/>
<path style="fill:#1A1A1A;" d="M1099.307,1487.38c-49.91-63.547-96.828-130.994-151.644-190.433
	c-1.432-1.549-4.141,0.485-2.953,2.276c44.921,67.581,99.532,129.376,149.617,193.14
	C1097.125,1495.925,1102.08,1490.91,1099.307,1487.38z"/>
<path style="fill:#1A1A1A;" d="M568.663,596.26c1.656-2.343-1.486-4.867-3.693-3.693c-16.609,8.823-30.198,23.454-44.609,35.498
	c-15.557,13.004-31.464,25.569-47.386,38.129c-32.931,25.988-67.464,50.105-99.888,76.706c-2.821,2.317,0.804,6.77,3.844,4.979
	c35.132-20.716,67.81-46.149,99.824-71.337C506.782,652.916,546.607,627.547,568.663,596.26z"/>
<path style="fill:#1A1A1A;" d="M616.312,557.362c10.909-8.519,21.691-17.186,32.468-25.878c3.946-3.183-1.651-8.689-5.564-5.561
	c-10.806,8.635-21.589,17.286-32.254,26.09c-6.709,5.539-19.089,11.678-20.272,20.865l0.292,0.295
	C600.224,574.034,609.471,562.702,616.312,557.362z"/>
<path style="fill:#1A1A1A;" d="M688.122,593.647c-41.111,39.026-81.198,78.748-124.517,115.401
	c-42.943,36.336-92.034,66.76-133.403,104.538c-2.304,2.102,0.624,5.461,3.201,4.148c47.961-24.453,92.37-64.618,133.447-99.149
	c44.288-37.228,88.21-76.202,127.001-119.208C697.335,595.515,691.927,590.037,688.122,593.647z"/>
<path style="fill:#1A1A1A;" d="M1946.722,1454.763c-9.929-18.209-37.767-1.945-27.789,16.265
	c33.926,62.063,17.312,146.877-39.514,190.131c-20.904,15.915-45.949,24.497-71.692,26.592
	c-0.848-19.457-4.391-38.865-10.826-57.673c-15.766-45.849-50.34-102.225-102.875-110.158
	c-48.043-7.184-74.086,37.219-66.902,79.825c11.574,69.248,79.125,111.206,147.277,118.939
	c-6.536,56.725-39.065,109.709-93.844,133.756c-89.852,39.513-198.164-19.458-196.817-121.932c0.299-20.754-31.93-20.754-32.23,0
	c-1.446,112.503,108.663,189.234,214.679,161.046c80.522-21.453,132.01-93.445,140.491-171.773
	c14.119-0.698,27.889-2.943,40.76-6.835C1953.456,1680.717,1998.458,1549.356,1946.722,1454.763z M1686.145,1643.948
	c-17.861-18.16-48.095-70.745-14.569-89.553c42.307-23.648,84.316,55.528,94.242,84.215c5.439,15.666,8.532,31.929,9.48,48.344
	C1741.872,1682.663,1709.643,1667.796,1686.145,1643.948z"/>
</svg>
