<?xml version="1.0" encoding="utf-8"?>
<!-- Generator: Adobe Illustrator 27.5.0, SVG Export Plug-In . SVG Version: 6.00 Build 0)  -->
<svg version="1.1" xmlns="http://www.w3.org/2000/svg" xmlns:xlink="http://www.w3.org/1999/xlink" x="0px" y="0px"
	 viewBox="0 0 500 500" style="enable-background:new 0 0 500 500;" xml:space="preserve">
<g id="BACKGROUND">
	<rect style="fill:#FFFFFF;" width="500" height="500"/>
	<rect style="fill:#FFFFFF;" width="500" height="500"/>
</g>
<g id="OBJECT">
	<g>
		<ellipse style="fill:#D7D8D6;" cx="242.949" cy="386.873" rx="170.489" ry="10.225"/>
	</g>
	<g>
		<g>
			<g>
				<g>
					<g>
						<path style="fill:#4D5B65;" d="M346.462,384.664H204.252c-7.813,0-14.146-6.333-14.146-14.146V144.183
							c0-7.813,6.333-14.146,14.146-14.146h142.211c7.813,0,14.146,6.333,14.146,14.146v226.335
							C360.608,378.331,354.275,384.664,346.462,384.664z"/>
					</g>
					<g>
						<path style="fill:#455259;" d="M215.153,384.661h-10.9c-7.81,0-14.15-6.33-14.15-14.14v-226.34c0-7.81,6.34-14.14,14.15-14.14
							h10.9c-7.81,0-14.14,6.33-14.14,14.14v226.34C201.013,378.332,207.343,384.661,215.153,384.661z"/>
					</g>
				</g>
				<g>
					<g style="opacity:0.1;">
						<g>
							<polygon style="fill:#FFFFFF;" points="289.283,130.042 190.103,272.561 190.103,245.311 270.313,130.042 							"/>
						</g>
					</g>
					<g style="opacity:0.1;">
						<g>
							<path style="fill:#FFFFFF;" d="M360.613,144.182v10.86l-159.54,229.26c-6.28-1.44-10.97-7.06-10.97-13.78v-34.82
								l143.13-205.66h13.23C354.273,130.042,360.613,136.372,360.613,144.182z"/>
						</g>
					</g>
					<g style="opacity:0.1;">
						<g>
							<polygon style="fill:#FFFFFF;" points="360.613,197.592 360.613,246.941 264.773,384.661 230.423,384.661 							"/>
						</g>
					</g>
				</g>
			</g>
			<g>
				<g>
					<g>
						<path style="fill:#F5F7F4;" d="M343.453,155.452v204.3c0,5.25-4.25,9.51-9.51,9.51h-117.17c-1.61,0-3.13-0.4-4.46-1.11
							c-3.01-1.59-5.06-4.76-5.06-8.4v-204.3c0-5.26,4.26-9.52,9.52-9.52h117.17C339.203,145.932,343.453,150.191,343.453,155.452z"
							/>
					</g>
					<g>
						<path style="fill:#DCDDDB;" d="M222.723,368.151c1.33,0.71,2.85,1.11,4.46,1.11h-10.41c-1.61,0-3.13-0.4-4.46-1.11
							c-3.01-1.59-5.06-4.76-5.06-8.4v-204.3c0-5.26,4.26-9.52,9.52-9.52h10.41c-5.26,0-9.52,4.26-9.52,9.52v204.3
							C217.663,363.392,219.713,366.561,222.723,368.151z"/>
					</g>
				</g>
				<g>
					<g style="opacity:0.2;">
						<g>
							<polygon style="fill:#FFFFFF;" points="278.223,145.932 207.253,247.921 207.253,220.661 259.253,145.932 							"/>
						</g>
					</g>
					<g style="opacity:0.2;">
						<g>
							<path style="fill:#FFFFFF;" d="M343.453,155.452v24.25l-131.14,188.45c-3.01-1.59-5.06-4.76-5.06-8.4v-48.69l114.92-165.13
								h11.77C339.203,145.932,343.453,150.191,343.453,155.452z"/>
						</g>
					</g>
					<g style="opacity:0.2;">
						<g>
							<polygon style="fill:#FFFFFF;" points="343.453,222.251 343.453,271.602 275.493,369.262 241.143,369.262 							"/>
						</g>
					</g>
				</g>
			</g>
			<g>
				<g>
					<path style="fill:#C4C6C3;" d="M307.03,130.035h-31.67c3.7,0,6.69-3,6.69-6.7c0-3.69-2.99-6.69-6.69-6.69
						c-3.7,0-6.7,3-6.7,6.69c0,3.7,3,6.7,6.7,6.7h-31.67l4.47-12.29c1.45-3.97,5.22-6.61,9.45-6.61h35.49
						c4.23,0,8.01,2.64,9.45,6.61L307.03,130.035z"/>
				</g>
				<g>
					<path style="fill:#C4C6C3;" d="M321.993,130.042c0,1.7-0.47,3.3-1.3,4.66c-0.38,0.64-0.84,1.23-1.36,1.75
						c-1.65,1.65-3.91,2.66-6.42,2.66h-75.11c-3.3,0-6.2-1.77-7.78-4.41c-0.83-1.36-1.3-2.96-1.3-4.66H321.993z"/>
				</g>
				<g>
					<path style="fill:#ACADAC;" d="M320.693,134.702c-0.38,0.64-0.84,1.23-1.36,1.75c-1.65,1.65-3.91,2.66-6.42,2.66h-75.11
						c-3.3,0-6.2-1.77-7.78-4.41H320.693z"/>
				</g>
				<g>
					<path style="fill:#ACADAC;" d="M264.363,111.132c-4.23,0-8,2.64-9.45,6.61l-4.47,12.29h-6.75l4.47-12.29
						c1.45-3.97,5.22-6.61,9.45-6.61H264.363z"/>
				</g>
			</g>
			<g>
				<g>
					<g>
						<g>
							<path style="fill:#C4C6C3;" d="M328.056,185.101H228.39c-3.704,0-6.707-3.003-6.707-6.707v-11.585
								c0-3.704,3.003-6.707,6.707-6.707h99.667c3.704,0,6.707,3.003,6.707,6.707v11.585
								C334.764,182.098,331.761,185.101,328.056,185.101z"/>
						</g>
						<g>
							<path style="fill:#C4C6C3;" d="M328.056,219.101H228.39c-3.704,0-6.707-3.003-6.707-6.707v-11.585
								c0-3.704,3.003-6.707,6.707-6.707h99.667c3.704,0,6.707,3.003,6.707,6.707v11.585
								C334.764,216.098,331.761,219.101,328.056,219.101z"/>
						</g>
						<g>
							<path style="fill:#C4C6C3;" d="M328.056,253.101H228.39c-3.704,0-6.707-3.003-6.707-6.707v-11.585
								c0-3.704,3.003-6.707,6.707-6.707h99.667c3.704,0,6.707,3.003,6.707,6.707v11.585
								C334.764,250.098,331.761,253.101,328.056,253.101z"/>
						</g>
						<g>
							<path style="fill:#C4C6C3;" d="M328.056,287.101H228.39c-3.704,0-6.707-3.003-6.707-6.707v-11.586
								c0-3.704,3.003-6.707,6.707-6.707h99.667c3.704,0,6.707,3.003,6.707,6.707v11.586
								C334.764,284.098,331.761,287.101,328.056,287.101z"/>
						</g>
						<g>
							<path style="fill:#C4C6C3;" d="M328.056,321.101H228.39c-3.704,0-6.707-3.003-6.707-6.707v-11.586
								c0-3.704,3.003-6.707,6.707-6.707h99.667c3.704,0,6.707,3.003,6.707,6.707v11.586
								C334.764,318.098,331.761,321.101,328.056,321.101z"/>
						</g>
						<g>
							<path style="fill:#C4C6C3;" d="M328.056,355.101H228.39c-3.704,0-6.707-3.003-6.707-6.707v-11.586
								c0-3.704,3.003-6.707,6.707-6.707h99.667c3.704,0,6.707,3.003,6.707,6.707v11.586
								C334.764,352.098,331.761,355.101,328.056,355.101z"/>
						</g>
					</g>
					<g>
						<g>
							<g>
								<g>
									<path style="fill:#F5F7F4;" d="M326.796,182.163h-11.75c-2.033,0-3.688-1.654-3.688-3.688v-11.75
										c0-2.033,1.654-3.688,3.688-3.688h11.75c2.033,0,3.688,1.654,3.688,3.688v11.75
										C330.484,180.509,328.829,182.163,326.796,182.163z M315.046,165.038c-0.931,0-1.688,0.757-1.688,1.688v11.75
										c0,0.931,0.757,1.688,1.688,1.688h11.75c0.931,0,1.688-0.757,1.688-1.688v-11.75c0-0.931-0.757-1.688-1.688-1.688H315.046z
										"/>
								</g>
							</g>
							<g>
								<g>
									<g>
										<path style="fill:#F5F7F4;" d="M305.462,166.038h-78.499c-0.552,0-1-0.448-1-1c0-0.552,0.448-1,1-1h78.499
											c0.553,0,1,0.448,1,1C306.462,165.59,306.015,166.038,305.462,166.038z"/>
									</g>
								</g>
								<g>
									<g>
										<path style="fill:#F5F7F4;" d="M305.462,173.601h-78.499c-0.552,0-1-0.448-1-1c0-0.552,0.448-1,1-1h78.499
											c0.553,0,1,0.448,1,1C306.462,173.153,306.015,173.601,305.462,173.601z"/>
									</g>
								</g>
								<g>
									<g>
										<path style="fill:#F5F7F4;" d="M305.462,181.163h-39.25c-0.553,0-1-0.448-1-1c0-0.552,0.447-1,1-1h39.25
											c0.553,0,1,0.448,1,1C306.462,180.715,306.015,181.163,305.462,181.163z"/>
									</g>
								</g>
							</g>
						</g>
						<g>
							<g>
								<g>
									<path style="fill:#F5F7F4;" d="M326.796,216.163h-11.75c-2.033,0-3.688-1.654-3.688-3.688v-11.75
										c0-2.033,1.654-3.688,3.688-3.688h11.75c2.033,0,3.688,1.654,3.688,3.688v11.75
										C330.484,214.509,328.829,216.163,326.796,216.163z M315.046,199.038c-0.931,0-1.688,0.757-1.688,1.688v11.75
										c0,0.931,0.757,1.688,1.688,1.688h11.75c0.931,0,1.688-0.757,1.688-1.688v-11.75c0-0.931-0.757-1.688-1.688-1.688H315.046z
										"/>
								</g>
							</g>
							<g>
								<g>
									<g>
										<path style="fill:#F5F7F4;" d="M305.462,200.038h-78.499c-0.552,0-1-0.448-1-1c0-0.552,0.448-1,1-1h78.499
											c0.553,0,1,0.448,1,1C306.462,199.59,306.015,200.038,305.462,200.038z"/>
									</g>
								</g>
								<g>
									<g>
										<path style="fill:#F5F7F4;" d="M305.462,207.601h-78.499c-0.552,0-1-0.448-1-1c0-0.552,0.448-1,1-1h78.499
											c0.553,0,1,0.448,1,1C306.462,207.153,306.015,207.601,305.462,207.601z"/>
									</g>
								</g>
								<g>
									<g>
										<path style="fill:#F5F7F4;" d="M305.462,215.163h-39.25c-0.553,0-1-0.448-1-1c0-0.552,0.447-1,1-1h39.25
											c0.553,0,1,0.448,1,1C306.462,214.715,306.015,215.163,305.462,215.163z"/>
									</g>
								</g>
							</g>
						</g>
						<g>
							<g>
								<g>
									<path style="fill:#F5F7F4;" d="M326.796,250.163h-11.75c-2.033,0-3.688-1.654-3.688-3.688v-11.75
										c0-2.033,1.654-3.688,3.688-3.688h11.75c2.033,0,3.688,1.654,3.688,3.688v11.75
										C330.484,248.509,328.829,250.163,326.796,250.163z M315.046,233.038c-0.931,0-1.688,0.757-1.688,1.688v11.75
										c0,0.931,0.757,1.688,1.688,1.688h11.75c0.931,0,1.688-0.757,1.688-1.688v-11.75c0-0.931-0.757-1.688-1.688-1.688H315.046z
										"/>
								</g>
							</g>
							<g>
								<g>
									<g>
										<path style="fill:#F5F7F4;" d="M305.462,234.038h-78.499c-0.552,0-1-0.447-1-1c0-0.553,0.448-1,1-1h78.499
											c0.553,0,1,0.447,1,1C306.462,233.591,306.015,234.038,305.462,234.038z"/>
									</g>
								</g>
								<g>
									<g>
										<path style="fill:#F5F7F4;" d="M305.462,241.601h-78.499c-0.552,0-1-0.447-1-1c0-0.553,0.448-1,1-1h78.499
											c0.553,0,1,0.447,1,1C306.462,241.153,306.015,241.601,305.462,241.601z"/>
									</g>
								</g>
								<g>
									<g>
										<path style="fill:#F5F7F4;" d="M305.462,249.163h-39.25c-0.553,0-1-0.447-1-1c0-0.553,0.447-1,1-1h39.25
											c0.553,0,1,0.447,1,1C306.462,248.716,306.015,249.163,305.462,249.163z"/>
									</g>
								</g>
							</g>
						</g>
						<g>
							<g>
								<g>
									<path style="fill:#F5F7F4;" d="M326.796,284.163h-11.75c-2.033,0-3.688-1.654-3.688-3.688v-11.75
										c0-2.033,1.654-3.688,3.688-3.688h11.75c2.033,0,3.688,1.654,3.688,3.688v11.75
										C330.484,282.509,328.829,284.163,326.796,284.163z M315.046,267.038c-0.931,0-1.688,0.757-1.688,1.688v11.75
										c0,0.931,0.757,1.688,1.688,1.688h11.75c0.931,0,1.688-0.757,1.688-1.688v-11.75c0-0.931-0.757-1.688-1.688-1.688H315.046z
										"/>
								</g>
							</g>
							<g>
								<g>
									<g>
										<path style="fill:#F5F7F4;" d="M305.462,268.038h-78.499c-0.552,0-1-0.447-1-1s0.448-1,1-1h78.499c0.553,0,1,0.447,1,1
											S306.015,268.038,305.462,268.038z"/>
									</g>
								</g>
								<g>
									<g>
										<path style="fill:#F5F7F4;" d="M305.462,275.601h-78.499c-0.552,0-1-0.447-1-1s0.448-1,1-1h78.499c0.553,0,1,0.447,1,1
											S306.015,275.601,305.462,275.601z"/>
									</g>
								</g>
								<g>
									<g>
										<path style="fill:#F5F7F4;" d="M305.462,283.163h-39.25c-0.553,0-1-0.447-1-1s0.447-1,1-1h39.25c0.553,0,1,0.447,1,1
											S306.015,283.163,305.462,283.163z"/>
									</g>
								</g>
							</g>
						</g>
						<g>
							<g>
								<g>
									<path style="fill:#F5F7F4;" d="M326.796,318.163h-11.75c-2.033,0-3.688-1.654-3.688-3.688v-11.75
										c0-2.033,1.654-3.688,3.688-3.688h11.75c2.033,0,3.688,1.654,3.688,3.688v11.75
										C330.484,316.509,328.829,318.163,326.796,318.163z M315.046,301.038c-0.931,0-1.688,0.757-1.688,1.688v11.75
										c0,0.931,0.757,1.688,1.688,1.688h11.75c0.931,0,1.688-0.757,1.688-1.688v-11.75c0-0.931-0.757-1.688-1.688-1.688H315.046z
										"/>
								</g>
							</g>
							<g>
								<g>
									<g>
										<path style="fill:#F5F7F4;" d="M305.462,302.038h-78.499c-0.552,0-1-0.447-1-1s0.448-1,1-1h78.499c0.553,0,1,0.447,1,1
											S306.015,302.038,305.462,302.038z"/>
									</g>
								</g>
								<g>
									<g>
										<path style="fill:#F5F7F4;" d="M305.462,309.601h-78.499c-0.552,0-1-0.447-1-1s0.448-1,1-1h78.499c0.553,0,1,0.447,1,1
											S306.015,309.601,305.462,309.601z"/>
									</g>
								</g>
								<g>
									<g>
										<path style="fill:#F5F7F4;" d="M305.462,317.163h-39.25c-0.553,0-1-0.447-1-1s0.447-1,1-1h39.25c0.553,0,1,0.447,1,1
											S306.015,317.163,305.462,317.163z"/>
									</g>
								</g>
							</g>
						</g>
						<g>
							<g>
								<g>
									<path style="fill:#F5F7F4;" d="M326.796,352.163h-11.75c-2.033,0-3.688-1.654-3.688-3.688v-11.75
										c0-2.033,1.654-3.688,3.688-3.688h11.75c2.033,0,3.688,1.654,3.688,3.688v11.75
										C330.484,350.509,328.829,352.163,326.796,352.163z M315.046,335.038c-0.931,0-1.688,0.757-1.688,1.688v11.75
										c0,0.931,0.757,1.688,1.688,1.688h11.75c0.931,0,1.688-0.757,1.688-1.688v-11.75c0-0.931-0.757-1.688-1.688-1.688H315.046z
										"/>
								</g>
							</g>
							<g>
								<g>
									<g>
										<path style="fill:#F5F7F4;" d="M305.462,336.038h-78.499c-0.552,0-1-0.447-1-1s0.448-1,1-1h78.499c0.553,0,1,0.447,1,1
											S306.015,336.038,305.462,336.038z"/>
									</g>
								</g>
								<g>
									<g>
										<path style="fill:#F5F7F4;" d="M305.462,343.601h-78.499c-0.552,0-1-0.447-1-1s0.448-1,1-1h78.499c0.553,0,1,0.447,1,1
											S306.015,343.601,305.462,343.601z"/>
									</g>
								</g>
								<g>
									<g>
										<path style="fill:#F5F7F4;" d="M305.462,351.163h-39.25c-0.553,0-1-0.447-1-1s0.447-1,1-1h39.25c0.553,0,1,0.447,1,1
											S306.015,351.163,305.462,351.163z"/>
									</g>
								</g>
							</g>
						</g>
					</g>
				</g>
				<g>
					<g>
						<g>
							<path style="fill:#4D5B65;" d="M320.921,176.038c-0.357,0-0.716-0.127-1-0.382l-4.247-3.801
								c-0.617-0.552-0.67-1.5-0.118-2.118c0.553-0.617,1.5-0.67,2.118-0.117l3.251,2.909l9.128-8.111
								c0.619-0.551,1.568-0.494,2.117,0.124c0.551,0.62,0.494,1.567-0.125,2.118l-10.128,9
								C321.633,175.912,321.278,176.038,320.921,176.038z"/>
						</g>
					</g>
					<g>
						<g>
							<path style="fill:#4D5B65;" d="M320.921,210.068c-0.357,0-0.716-0.128-1-0.382l-4.247-3.801
								c-0.617-0.552-0.67-1.501-0.118-2.118c0.553-0.617,1.5-0.67,2.118-0.117l3.251,2.909l9.128-8.111
								c0.619-0.551,1.568-0.494,2.117,0.124c0.551,0.62,0.494,1.567-0.125,2.118l-10.128,9
								C321.633,209.942,321.278,210.068,320.921,210.068z"/>
						</g>
					</g>
					<g>
						<g>
							<path style="fill:#4D5B65;" d="M320.921,277.737c-0.357,0-0.716-0.127-1-0.382l-4.247-3.801
								c-0.617-0.552-0.67-1.5-0.118-2.118c0.553-0.617,1.5-0.67,2.118-0.117l3.251,2.909l9.128-8.111
								c0.619-0.551,1.568-0.494,2.117,0.125c0.551,0.62,0.494,1.567-0.125,2.118l-10.128,9
								C321.633,277.611,321.278,277.737,320.921,277.737z"/>
						</g>
					</g>
				</g>
			</g>
		</g>
		<g>
			<g>
				<g>
					<path style="fill:#7BE0E0;" d="M370.148,360.046c0,0,3.683-72.491,35.203-77.711c6.859-1.136,12.861,4.98,10.767,11.609
						c-1.572,4.976-6.559,9.607-19.915,9.047c0,0,4.288,13.645-10.721,13.84c0,0,9.551,8.772-9.551,14.229
						c0,0-3.444,19.369-4.093,28.986H370.148z"/>
				</g>
				<g>
					<path style="fill:#53C9C6;" d="M416.121,293.946c-1.578,4.972-6.56,9.602-19.92,9.041c0,0,4.287,13.65-10.723,13.848
						c0,0,9.56,8.771-9.55,14.221c0,0-3.436,19.37-4.09,28.993h-1.692c0,0,0.789-15.55,4.775-32.771
						c15.207-5.46,6.664-13.297,6.664-13.297c15.01-0.197,10.723-13.848,10.723-13.848c13.36,0.561,18.342-4.069,19.92-9.041
						c0.966-3.062,0.208-6.01-1.578-8.19C414.886,284.593,417.637,289.129,416.121,293.946z"/>
				</g>
			</g>
			<g>
				<g>
					<path style="fill:#7BE0E0;" d="M371.838,360.046c0,0,4.785-35.428,33.486-29.285c4.702,1.006,6.924,6.559,3.452,9.885
						c-2.428,2.326-6.971,3.457-15.432,0.356c0,0-2.924,6.757-13.579,1.689c0,0-5.38,7.724-6.627,17.355H371.838z"/>
				</g>
				<g>
					<path style="fill:#53C9C6;" d="M408.772,340.648c-2.419,2.325-6.965,3.457-15.426,0.353c0,0-2.927,6.758-13.578,1.692
						c0,0-5.388,7.723-6.633,17.356h-1.297c0,0,0.176-1.349,0.685-3.467h0.093c0.031-0.28,0.073-0.561,0.114-0.831
						c1.069-4.183,3.259-10.702,7.422-16.121c9.913,4.287,12.674-2.087,12.674-2.087c8.46,3.093,13.007,1.972,15.426-0.363
						c0.903-0.862,1.433-1.879,1.609-2.927C410.869,336.309,410.682,338.811,408.772,340.648z"/>
				</g>
			</g>
			<g>
				<g>
					<path style="fill:#7BE0E0;" d="M370.148,360.046c0,0,7.907-65.531-22.615-75.25c-4.589-1.461-9.422,1.781-9.633,6.592
						c-0.241,5.492,2.539,12.487,16.2,16.281c0,0-9.356,10.721,10.331,11.89c0,0-6.603,7.874,4.816,12.545
						c0,0,0.837,14.686-0.917,27.941H370.148z"/>
				</g>
				<g>
					<path style="fill:#53C9C6;" d="M370.146,360.049h-1.816c1.754-13.256,0.913-27.944,0.913-27.944
						c-11.418-4.671-4.816-12.55-4.816-12.55c-19.681-1.163-10.329-11.886-10.329-11.886c-13.661-3.789-16.443-10.785-16.193-16.277
						c0.156-3.55,2.813-6.228,6.031-6.82c-1.318,1.235-2.19,2.948-2.273,4.931c-0.239,5.491,2.543,12.488,16.204,16.287
						c0,0-9.363,10.723,10.329,11.886c0,0-5.564,6.644,2.367,11.346C371.911,345.454,370.146,360.049,370.146,360.049z"/>
				</g>
			</g>
			<g>
				<g>
					<path style="fill:#7BE0E0;" d="M368.329,360.046c0,0-1.072-34.083-29.362-40.172c-5.781-1.244-9.625,6.029-5.116,9.854
						c2.496,2.117,7.132,3.824,15.376,4.256c0,0-1.43,8.529,13.255,7.968c0,0,3.961,6.787,4.288,18.094H368.329z"/>
				</g>
				<g>
					<path style="fill:#53C9C6;" d="M368.329,360.049h-1.557c-0.332-11.315-4.287-18.093-4.287-18.093
						c-14.688,0.561-13.256-7.972-13.256-7.972c-8.242-0.436-12.882-2.138-15.374-4.256c-3.249-2.751-2.169-7.277,0.841-9.145
						c-0.976,2.097-0.737,4.723,1.422,6.55c2.502,2.118,7.132,3.82,15.374,4.256c0,0-1.308,7.827,11.491,7.993
						C368.008,349.689,368.329,360.049,368.329,360.049z"/>
				</g>
			</g>
			<g>
				<g>
					<path style="fill:#FFC115;" d="M371.448,384.664h-2.599c-6.531,0-11.825-5.294-11.825-11.825v-12.793h26.25v12.793
						C383.273,379.37,377.979,384.664,371.448,384.664z"/>
				</g>
				<g>
					<path style="fill:#E8A90C;" d="M383.277,360.049v12.789c0,6.529-5.294,11.823-11.834,11.823h-2.595
						c-0.706,0-1.401-0.062-2.076-0.187c5.543-0.976,9.758-5.813,9.758-11.636v-12.789H383.277z"/>
				</g>
			</g>
		</g>
	</g>
	<g>
		<g>
			<g>
				<g>
					<path style="fill:#FFC115;" d="M436.46,366.984h-5c-0.69,0-1.25-0.56-1.25-1.25c0-0.69,0.56-1.25,1.25-1.25h5
						c0.69,0,1.25,0.56,1.25,1.25C437.71,366.425,437.15,366.984,436.46,366.984z M423.46,366.984h-5c-0.69,0-1.25-0.56-1.25-1.25
						c0-0.69,0.56-1.25,1.25-1.25h5c0.69,0,1.25,0.56,1.25,1.25C424.71,366.425,424.15,366.984,423.46,366.984z M410.46,366.984h-5
						c-0.69,0-1.25-0.56-1.25-1.25c0-0.69,0.56-1.25,1.25-1.25h5c0.69,0,1.25,0.56,1.25,1.25
						C411.71,366.425,411.15,366.984,410.46,366.984z M397.46,366.984h-5c-0.69,0-1.25-0.56-1.25-1.25c0-0.69,0.56-1.25,1.25-1.25h5
						c0.69,0,1.25,0.56,1.25,1.25C398.71,366.425,398.15,366.984,397.46,366.984z M441.35,363.874c-0.69,0-1.25-0.559-1.25-1.25v-5
						c0-0.69,0.56-1.25,1.25-1.25c0.69,0,1.25,0.56,1.25,1.25v5C442.6,363.315,442.04,363.874,441.35,363.874z M441.35,350.874
						c-0.69,0-1.25-0.559-1.25-1.25v-5c0-0.69,0.56-1.25,1.25-1.25c0.69,0,1.25,0.56,1.25,1.25v5
						C442.6,350.315,442.04,350.874,441.35,350.874z M441.35,337.874c-0.69,0-1.25-0.559-1.25-1.25v-5c0-0.69,0.56-1.25,1.25-1.25
						c0.69,0,1.25,0.56,1.25,1.25v5C442.6,337.315,442.04,337.874,441.35,337.874z M441.35,324.874c-0.69,0-1.25-0.559-1.25-1.25v-5
						c0-0.69,0.56-1.25,1.25-1.25c0.69,0,1.25,0.56,1.25,1.25v5C442.6,324.315,442.04,324.874,441.35,324.874z M441.35,311.874
						c-0.69,0-1.25-0.559-1.25-1.25v-5c0-0.69,0.56-1.25,1.25-1.25c0.69,0,1.25,0.56,1.25,1.25v5
						C442.6,311.315,442.04,311.874,441.35,311.874z M441.35,298.874c-0.69,0-1.25-0.559-1.25-1.25v-5c0-0.69,0.56-1.25,1.25-1.25
						c0.69,0,1.25,0.56,1.25,1.25v5C442.6,298.315,442.04,298.874,441.35,298.874z M441.35,285.874c-0.69,0-1.25-0.559-1.25-1.25v-5
						c0-0.69,0.56-1.25,1.25-1.25c0.69,0,1.25,0.56,1.25,1.25v5C442.6,285.315,442.04,285.874,441.35,285.874z M441.35,272.874
						c-0.69,0-1.25-0.559-1.25-1.25v-5c0-0.69,0.56-1.25,1.25-1.25c0.69,0,1.25,0.56,1.25,1.25v5
						C442.6,272.315,442.04,272.874,441.35,272.874z M441.35,259.874c-0.69,0-1.25-0.559-1.25-1.25v-5c0-0.69,0.56-1.25,1.25-1.25
						c0.69,0,1.25,0.56,1.25,1.25v5C442.6,259.315,442.04,259.874,441.35,259.874z M441.35,246.874c-0.69,0-1.25-0.559-1.25-1.25v-5
						c0-0.69,0.56-1.25,1.25-1.25c0.69,0,1.25,0.56,1.25,1.25v5C442.6,246.314,442.04,246.874,441.35,246.874z M441.35,233.874
						c-0.69,0-1.25-0.559-1.25-1.25v-5c0-0.69,0.56-1.25,1.25-1.25c0.69,0,1.25,0.56,1.25,1.25v5
						C442.6,233.314,442.04,233.874,441.35,233.874z M441.35,220.874c-0.69,0-1.25-0.559-1.25-1.25v-5c0-0.69,0.56-1.25,1.25-1.25
						c0.69,0,1.25,0.56,1.25,1.25v5C442.6,220.314,442.04,220.874,441.35,220.874z M440.373,208.851h-5c-0.69,0-1.25-0.56-1.25-1.25
						s0.56-1.25,1.25-1.25h5c0.69,0,1.25,0.56,1.25,1.25S441.063,208.851,440.373,208.851z M427.373,208.851h-5
						c-0.69,0-1.25-0.56-1.25-1.25s0.56-1.25,1.25-1.25h5c0.69,0,1.25,0.56,1.25,1.25S428.063,208.851,427.373,208.851z
						 M414.373,208.851h-5c-0.69,0-1.25-0.56-1.25-1.25s0.56-1.25,1.25-1.25h5c0.69,0,1.25,0.56,1.25,1.25
						S415.063,208.851,414.373,208.851z M401.373,208.851h-5c-0.69,0-1.25-0.56-1.25-1.25s0.56-1.25,1.25-1.25h5
						c0.69,0,1.25,0.56,1.25,1.25S402.063,208.851,401.373,208.851z M388.373,208.851h-5c-0.69,0-1.25-0.56-1.25-1.25
						s0.56-1.25,1.25-1.25h5c0.69,0,1.25,0.56,1.25,1.25S389.063,208.851,388.373,208.851z M375.373,208.851h-5
						c-0.69,0-1.25-0.56-1.25-1.25s0.56-1.25,1.25-1.25h5c0.69,0,1.25,0.56,1.25,1.25S376.063,208.851,375.373,208.851z"/>
				</g>
				<g>
					<circle style="fill:#FFC115;" cx="441.35" cy="207.601" r="5.167"/>
				</g>
				<g>
					<circle style="fill:#FFC115;" cx="441.35" cy="366.351" r="5.167"/>
				</g>
			</g>
			<g>
				<g>
					<path style="fill:#7BE0E0;" d="M413.438,275.851c-0.69,0-1.25-0.56-1.25-1.25v-2.304c0-0.69,0.56-1.25,1.25-1.25
						c0.69,0,1.25,0.56,1.25,1.25v2.304C414.688,275.291,414.129,275.851,413.438,275.851z M413.438,265.547
						c-0.69,0-1.25-0.56-1.25-1.25v-5c0-0.69,0.56-1.25,1.25-1.25c0.69,0,1.25,0.56,1.25,1.25v5
						C414.688,264.987,414.129,265.547,413.438,265.547z M413.438,252.547c-0.69,0-1.25-0.56-1.25-1.25v-5
						c0-0.691,0.56-1.25,1.25-1.25c0.69,0,1.25,0.559,1.25,1.25v5C414.688,251.987,414.129,252.547,413.438,252.547z
						 M413.438,239.547c-0.69,0-1.25-0.56-1.25-1.25v-5c0-0.691,0.56-1.25,1.25-1.25c0.69,0,1.25,0.559,1.25,1.25v5
						C414.688,238.987,414.129,239.547,413.438,239.547z M413.438,226.547c-0.69,0-1.25-0.56-1.25-1.25v-5
						c0-0.691,0.56-1.25,1.25-1.25c0.69,0,1.25,0.559,1.25,1.25v5C414.688,225.987,414.129,226.547,413.438,226.547z
						 M413.438,213.547c-0.69,0-1.25-0.56-1.25-1.25v-5c0-0.691,0.56-1.25,1.25-1.25c0.69,0,1.25,0.559,1.25,1.25v5
						C414.688,212.987,414.129,213.547,413.438,213.547z M413.438,200.547c-0.69,0-1.25-0.56-1.25-1.25v-5
						c0-0.691,0.56-1.25,1.25-1.25c0.69,0,1.25,0.559,1.25,1.25v5C414.688,199.987,414.129,200.547,413.438,200.547z
						 M413.438,187.547c-0.69,0-1.25-0.56-1.25-1.25v-5c0-0.691,0.56-1.25,1.25-1.25c0.69,0,1.25,0.559,1.25,1.25v5
						C414.688,186.987,414.129,187.547,413.438,187.547z M370.145,174.851c-0.677,0-1.233-0.541-1.249-1.221
						c-0.016-0.69,0.531-1.263,1.222-1.278l4.999-0.115c0.702-0.039,1.263,0.531,1.278,1.221c0.016,0.69-0.531,1.263-1.222,1.278
						l-4.999,0.115C370.165,174.851,370.155,174.851,370.145,174.851z M383.142,174.55c-0.677,0-1.233-0.541-1.249-1.221
						c-0.016-0.69,0.531-1.263,1.221-1.278l5-0.115c0.682-0.013,1.263,0.531,1.278,1.221c0.016,0.69-0.531,1.263-1.221,1.278
						l-5,0.115C383.161,174.55,383.151,174.55,383.142,174.55z M413.438,174.547c-0.481,0-0.898-0.272-1.107-0.67l-3.166,0.073
						c-0.667,0.032-1.264-0.53-1.279-1.221c-0.016-0.69,0.531-1.263,1.221-1.278l4.303-0.1c0.34-0.015,0.662,0.12,0.903,0.355
						c0.24,0.235,0.376,0.558,0.376,0.894v0.696C414.688,173.987,414.129,174.547,413.438,174.547z M396.139,174.25
						c-0.677,0-1.233-0.541-1.249-1.221c-0.016-0.69,0.531-1.263,1.222-1.278l4.998-0.115c0.011-0.001,0.021-0.001,0.03-0.001
						c0.677,0,1.233,0.541,1.249,1.221c0.016,0.69-0.531,1.263-1.222,1.278l-4.998,0.115
						C396.158,174.25,396.148,174.25,396.139,174.25z"/>
				</g>
				<g>
					<path style="fill:#7BE0E0;" d="M412.516,177.767c-2.853,0-5.167-2.313-5.167-5.167s2.313-5.167,5.167-5.167
						c2.853,0,5.167,2.313,5.167,5.167S415.37,177.767,412.516,177.767z"/>
				</g>
			</g>
			<g>
				<g>
					<path style="fill:#FFC115;" d="M146.124,188.25c-0.69,0-1.25-0.56-1.25-1.25v-5c0-0.69,0.56-1.25,1.25-1.25
						c0.691,0,1.25,0.56,1.25,1.25v5C147.374,187.69,146.814,188.25,146.124,188.25z M146.124,175.25c-0.69,0-1.25-0.56-1.25-1.25
						v-5c0-0.69,0.56-1.25,1.25-1.25c0.691,0,1.25,0.56,1.25,1.25v5C147.374,174.69,146.814,175.25,146.124,175.25z M146.124,162.25
						c-0.69,0-1.25-0.56-1.25-1.25v-5c0-0.69,0.56-1.25,1.25-1.25c0.691,0,1.25,0.56,1.25,1.25v5
						C147.374,161.69,146.814,162.25,146.124,162.25z M146.124,149.25c-0.69,0-1.25-0.56-1.25-1.25v-5c0-0.69,0.56-1.25,1.25-1.25
						c0.691,0,1.25,0.56,1.25,1.25v5C147.374,148.69,146.814,149.25,146.124,149.25z M146.124,136.25c-0.69,0-1.25-0.56-1.25-1.25
						v-5c0-0.69,0.56-1.25,1.25-1.25c0.691,0,1.25,0.56,1.25,1.25v5C147.374,135.69,146.814,136.25,146.124,136.25z M146.124,123.25
						c-0.69,0-1.25-0.56-1.25-1.25v-5c0-0.69,0.56-1.25,1.25-1.25c0.691,0,1.25,0.56,1.25,1.25v5
						C147.374,122.69,146.814,123.25,146.124,123.25z M231.259,112.385h-5c-0.69,0-1.25-0.56-1.25-1.25c0-0.691,0.56-1.25,1.25-1.25
						h5c0.69,0,1.25,0.559,1.25,1.25C232.509,111.825,231.949,112.385,231.259,112.385z M218.259,112.385h-5
						c-0.69,0-1.25-0.56-1.25-1.25c0-0.691,0.56-1.25,1.25-1.25h5c0.69,0,1.25,0.559,1.25,1.25
						C219.509,111.825,218.949,112.385,218.259,112.385z M205.259,112.385h-5c-0.69,0-1.25-0.56-1.25-1.25
						c0-0.691,0.56-1.25,1.25-1.25h5c0.69,0,1.25,0.559,1.25,1.25C206.509,111.825,205.949,112.385,205.259,112.385z
						 M192.259,112.385h-5c-0.69,0-1.25-0.56-1.25-1.25c0-0.691,0.56-1.25,1.25-1.25h5c0.69,0,1.25,0.559,1.25,1.25
						C193.509,111.825,192.949,112.385,192.259,112.385z M179.259,112.385h-5c-0.69,0-1.25-0.56-1.25-1.25
						c0-0.691,0.56-1.25,1.25-1.25h5c0.69,0,1.25,0.559,1.25,1.25C180.509,111.825,179.949,112.385,179.259,112.385z
						 M166.259,112.385h-5c-0.69,0-1.25-0.56-1.25-1.25c0-0.691,0.56-1.25,1.25-1.25h5c0.69,0,1.25,0.559,1.25,1.25
						C167.509,111.825,166.949,112.385,166.259,112.385z M153.259,112.385h-5c-0.69,0-1.25-0.56-1.25-1.25
						c0-0.691,0.56-1.25,1.25-1.25h5c0.69,0,1.25,0.559,1.25,1.25C154.509,111.825,153.949,112.385,153.259,112.385z"/>
				</g>
				<g>
					<path style="fill:#FFC115;" d="M146.124,116.301c-2.854,0-5.167-2.313-5.167-5.167c0-2.853,2.313-5.167,5.167-5.167
						c2.853,0,5.167,2.313,5.167,5.167C151.29,113.988,148.977,116.301,146.124,116.301z"/>
				</g>
			</g>
			<g>
				<g>
					<g>
						<path style="fill:#7BE0E0;" d="M177.325,147.182h-2.5c-0.69,0-1.25-0.559-1.25-1.25c0-0.69,0.56-1.25,1.25-1.25h2.5
							c0.69,0,1.25,0.56,1.25,1.25C178.575,146.622,178.016,147.182,177.325,147.182z"/>
					</g>
					<g>
						<path style="fill:#7BE0E0;" d="M167.357,147.182h-4.667c-0.69,0-1.25-0.559-1.25-1.25c0-0.69,0.56-1.25,1.25-1.25h4.667
							c0.691,0,1.25,0.56,1.25,1.25C168.607,146.622,168.048,147.182,167.357,147.182z M155.223,147.182h-4.668
							c-0.69,0-1.25-0.559-1.25-1.25c0-0.69,0.56-1.25,1.25-1.25h4.668c0.69,0,1.25,0.56,1.25,1.25
							C156.473,146.622,155.913,147.182,155.223,147.182z M143.088,147.182h-4.667c-0.69,0-1.25-0.559-1.25-1.25
							c0-0.69,0.56-1.25,1.25-1.25h4.667c0.69,0,1.25,0.56,1.25,1.25C144.338,146.622,143.778,147.182,143.088,147.182z
							 M130.953,147.182h-4.667c-0.69,0-1.25-0.559-1.25-1.25c0-0.69,0.56-1.25,1.25-1.25h4.667c0.691,0,1.25,0.56,1.25,1.25
							C132.203,146.622,131.643,147.182,130.953,147.182z M118.818,147.182h-4.667c-0.69,0-1.25-0.559-1.25-1.25
							c0-0.69,0.56-1.25,1.25-1.25h4.667c0.69,0,1.25,0.56,1.25,1.25C120.068,146.622,119.508,147.182,118.818,147.182z"/>
					</g>
					<g>
						<path style="fill:#7BE0E0;" d="M104.183,149.682c-0.69,0-1.25-0.559-1.25-1.25v-2.5c0-0.69,0.56-1.25,1.25-1.25h2.5
							c0.69,0,1.25,0.56,1.25,1.25c0,0.691-0.56,1.25-1.25,1.25h-1.25v1.25C105.433,149.122,104.873,149.682,104.183,149.682z"/>
					</g>
					<g>
						<path style="fill:#7BE0E0;" d="M104.183,200.933c-0.69,0-1.25-0.56-1.25-1.25v-4.928c0-0.691,0.56-1.25,1.25-1.25
							s1.25,0.559,1.25,1.25v4.928C105.433,200.374,104.873,200.933,104.183,200.933z M104.183,188.121c-0.69,0-1.25-0.56-1.25-1.25
							v-4.928c0-0.69,0.56-1.25,1.25-1.25s1.25,0.56,1.25,1.25v4.928C105.433,187.561,104.873,188.121,104.183,188.121z
							 M104.183,175.308c-0.69,0-1.25-0.56-1.25-1.25v-4.928c0-0.69,0.56-1.25,1.25-1.25s1.25,0.56,1.25,1.25v4.928
							C105.433,174.748,104.873,175.308,104.183,175.308z M104.183,162.495c-0.69,0-1.25-0.559-1.25-1.25v-4.928
							c0-0.69,0.56-1.25,1.25-1.25s1.25,0.56,1.25,1.25v4.928C105.433,161.935,104.873,162.495,104.183,162.495z"/>
					</g>
					<g>
						<path style="fill:#7BE0E0;" d="M104.183,211.318c-0.69,0-1.25-0.56-1.25-1.25v-2.5c0-0.691,0.56-1.25,1.25-1.25
							s1.25,0.559,1.25,1.25v2.5C105.433,210.759,104.873,211.318,104.183,211.318z"/>
					</g>
				</g>
				<g>
					<path style="fill:#7BE0E0;" d="M104.183,152.468c-2.853,0-5.167-2.313-5.167-5.167s2.313-5.167,5.167-5.167
						c2.854,0,5.167,2.313,5.167,5.167S107.037,152.468,104.183,152.468z"/>
				</g>
			</g>
		</g>
		<g>
			<g>
				<path style="fill:#C2C4C1;" d="M174.821,163.521h-2.244v-2.244c0-0.657-0.533-1.19-1.19-1.19c-0.657,0-1.19,0.533-1.19,1.19
					v2.244h-2.244c-0.657,0-1.19,0.533-1.19,1.19c0,0.657,0.533,1.19,1.19,1.19h2.244v2.244c0,0.657,0.533,1.19,1.19,1.19
					c0.657,0,1.19-0.533,1.19-1.19v-2.244h2.244c0.657,0,1.19-0.533,1.19-1.19C176.011,164.054,175.478,163.521,174.821,163.521z"/>
			</g>
			<g>
				<path style="fill:#C2C4C1;" d="M107.618,109.945h-2.244V107.7c0-0.657-0.533-1.19-1.19-1.19c-0.657,0-1.19,0.533-1.19,1.19
					v2.244h-2.244c-0.657,0-1.19,0.533-1.19,1.19c0,0.657,0.533,1.19,1.19,1.19h2.244v2.244c0,0.657,0.533,1.19,1.19,1.19
					c0.657,0,1.19-0.533,1.19-1.19v-2.244h2.244c0.657,0,1.19-0.533,1.19-1.19C108.808,110.478,108.275,109.945,107.618,109.945z"/>
			</g>
			<g>
				<path style="fill:#C2C4C1;" d="M386.018,245.783h-2.245v-2.245c0-0.657-0.533-1.19-1.19-1.19c-0.657,0-1.19,0.533-1.19,1.19
					v2.245h-2.245c-0.657,0-1.19,0.533-1.19,1.19c0,0.657,0.533,1.19,1.19,1.19h2.245v2.245c0,0.657,0.533,1.19,1.19,1.19
					c0.657,0,1.19-0.533,1.19-1.19v-2.245h2.245c0.657,0,1.19-0.533,1.19-1.19C387.208,246.316,386.675,245.783,386.018,245.783z"/>
			</g>
			<g>
				<path style="fill:#C2C4C1;" d="M445.975,175.387h-2.245v-2.245c0-0.657-0.533-1.19-1.19-1.19c-0.657,0-1.19,0.533-1.19,1.19
					v2.245h-2.245c-0.657,0-1.19,0.533-1.19,1.19c0,0.657,0.533,1.19,1.19,1.19h2.245v2.245c0,0.657,0.533,1.19,1.19,1.19
					c0.657,0,1.19-0.533,1.19-1.19v-2.245h2.245c0.657,0,1.19-0.533,1.19-1.19C447.165,175.92,446.632,175.387,445.975,175.387z"/>
			</g>
			<g>
				<path style="fill:#C2C4C1;" d="M329.289,107.474h-2.988v-2.988c0-0.875-0.71-1.585-1.585-1.585c-0.875,0-1.585,0.71-1.585,1.585
					v2.988h-2.988c-0.875,0-1.585,0.709-1.585,1.585c0,0.875,0.71,1.585,1.585,1.585h2.988v2.988c0,0.875,0.71,1.585,1.585,1.585
					c0.875,0,1.585-0.709,1.585-1.585v-2.988h2.988c0.875,0,1.585-0.709,1.585-1.585
					C330.874,108.184,330.164,107.474,329.289,107.474z"/>
			</g>
			<g>
				<path style="fill:#C2C4C1;" d="M429.224,344.845h-2.988v-2.988c0-0.875-0.71-1.585-1.585-1.585
					c-0.875,0-1.585,0.709-1.585,1.585v2.988h-2.988c-0.875,0-1.585,0.709-1.585,1.585s0.71,1.585,1.585,1.585h2.988v2.988
					c0,0.875,0.71,1.585,1.585,1.585c0.875,0,1.585-0.71,1.585-1.585v-2.988h2.988c0.875,0,1.585-0.709,1.585-1.585
					S430.099,344.845,429.224,344.845z"/>
			</g>
			<g>
				<path style="fill:#C2C4C1;" d="M57.488,220.667H54.5v-2.988c0-0.875-0.709-1.585-1.585-1.585c-0.875,0-1.585,0.71-1.585,1.585
					v2.988h-2.988c-0.875,0-1.585,0.71-1.585,1.585s0.709,1.585,1.585,1.585h2.988v2.988c0,0.875,0.709,1.585,1.585,1.585
					c0.875,0,1.585-0.71,1.585-1.585v-2.988h2.988c0.875,0,1.585-0.71,1.585-1.585S58.363,220.667,57.488,220.667z"/>
			</g>
			<g>
				<path style="fill:#C2C4C1;" d="M75.308,359.642h-2.244v-2.245c0-0.657-0.533-1.19-1.19-1.19c-0.657,0-1.19,0.533-1.19,1.19
					v2.245h-2.244c-0.657,0-1.19,0.533-1.19,1.19c0,0.657,0.533,1.19,1.19,1.19h2.244v2.245c0,0.657,0.533,1.19,1.19,1.19
					c0.657,0,1.19-0.533,1.19-1.19v-2.245h2.244c0.657,0,1.19-0.533,1.19-1.19C76.498,360.174,75.965,359.642,75.308,359.642z"/>
			</g>
		</g>
	</g>
	<g>
		<g>
			<g>
				<g>
					<g>
						<path style="fill:#FFC115;" d="M179.266,290.962l18.619-20.819c1.365-1.526,1.352-3.839-0.031-5.35l0,0
							c-1.507-1.646-4.071-1.735-5.689-0.197l-14.841,14.114L179.266,290.962z"/>
					</g>
					<g>
						<path style="fill:#E8A90C;" d="M197.883,270.138l-18.62,20.82l-0.59-3.74l17.8-19.91c0.73-0.82,1.06-1.86,1-2.88
							c0.13,0.11,0.26,0.23,0.38,0.36C199.233,266.308,199.253,268.618,197.883,270.138z"/>
					</g>
				</g>
				<g>
					<g>
						<path style="fill:#C4C6C3;" d="M162.565,254.921l18.158,29.267c1.254,2.021,0.91,4.646-0.824,6.276l0,0
							c-2.164,2.034-5.613,1.743-7.406-0.624l-13.577-17.923L162.565,254.921z"/>
					</g>
					<g>
						<path style="fill:#ACADAC;" d="M181.463,286.648c0.06,1.4-0.48,2.8-1.56,3.82c-0.97,0.91-2.2,1.35-3.42,1.35
							c-1.51,0-3-0.67-3.99-1.98l-13.58-17.92l0.95-4.44l0.55,0.69l13.58,17.92c0.99,1.31,2.48,1.98,3.99,1.98
							c1.22,0,2.45-0.44,3.42-1.35C181.423,286.698,181.453,286.678,181.463,286.648z"/>
					</g>
				</g>
				<g>
					<g>
						<path style="fill:#FFC115;" d="M192.818,264.092c0,0,0.469-10.784,4.691-14.684c1.055-0.974,2.594-1.275,3.923-0.731
							c0.019,0.008,0.038,0.016,0.057,0.024c1.302,0.551,2.147,1.829,2.232,3.24c0.204,3.4,0.313,14.022-5.837,18.202
							L192.818,264.092z"/>
					</g>
					<g>
						<path style="fill:#E8A90C;" d="M197.883,270.138l-1.84-2.2c5.32-4.53,5.21-14.34,5.01-17.58c-0.04-0.7-0.27-1.37-0.65-1.93
							c0.35,0.03,0.7,0.11,1.03,0.25c0.02,0.01,0.04,0.01,0.06,0.02c1.3,0.55,2.14,1.83,2.23,3.24
							C203.923,255.338,204.033,265.958,197.883,270.138z"/>
					</g>
				</g>
			</g>
			<g>
				<g>
					<g>
						<path style="fill:#FFC115;" d="M124.581,291.634l-27.74,3.26c-2.034,0.239-3.918-1.102-4.359-3.102l0,0
							c-0.48-2.18,0.922-4.329,3.11-4.767l24.271-4.367L124.581,291.634z"/>
					</g>
					<g>
						<path style="fill:#E8A90C;" d="M124.583,291.638l-27.74,3.26c-2.04,0.24-3.92-1.11-4.36-3.11c-0.06-0.29-0.09-0.58-0.09-0.86
							c0-0.51,0.1-1,0.28-1.46c0.65,1.66,2.35,2.7,4.17,2.49l26.28-3.09L124.583,291.638z"/>
					</g>
				</g>
				<g>
					<g>
						<path style="fill:#C4C6C3;" d="M137.074,254.921l-18.158,29.267c-1.254,2.021-0.91,4.646,0.824,6.276l0,0
							c2.164,2.034,5.613,1.743,7.406-0.624l13.577-17.923L137.074,254.921z"/>
					</g>
					<g>
						<path style="fill:#ACADAC;" d="M140.723,271.918l-13.58,17.92c-0.99,1.31-2.48,1.98-3.99,1.98c-1.22,0-2.44-0.44-3.41-1.35
							c-0.84-0.78-1.35-1.8-1.51-2.88c0.88,0.53,1.87,0.79,2.86,0.79c1.69,0,3.37-0.76,4.49-2.23l14.18-18.72L140.723,271.918z"/>
					</g>
				</g>
				<g>
					<g>
						<path style="fill:#FFC115;" d="M97.8,291.142c0,3.203-2.234,5.799-4.991,5.799c-2.756,0-4.991-2.596-4.991-5.799
							c0-3.203,2.234-5.799,4.991-5.799C95.565,285.343,97.8,287.939,97.8,291.142z"/>
					</g>
					<g>
						<path style="fill:#E8A90C;" d="M94.163,296.718c-0.43,0.14-0.88,0.22-1.35,0.22c-2.76,0-4.99-2.59-4.99-5.8
							c0-3.2,2.23-5.8,4.99-5.8c0.47,0,0.92,0.08,1.35,0.22c-2.1,0.68-3.64,2.93-3.64,5.58
							C90.523,293.798,92.063,296.038,94.163,296.718z"/>
					</g>
				</g>
			</g>
			<g>
				<g>
					<path style="fill:#C4C6C3;" d="M166.509,305.207H133.33l1.277-42.471c0.228-7.589,6.446-13.623,14.039-13.623h2.546
						c7.593,0,13.811,6.034,14.039,13.623L166.509,305.207z"/>
				</g>
				<g>
					<path style="fill:#ACADAC;" d="M153.613,249.328c-6.45,1.12-11.41,6.65-11.61,13.41l-1.28,42.47h-7.39l1.27-42.47
						c0.23-7.59,6.45-13.62,14.04-13.62h2.55C152.023,249.118,152.833,249.188,153.613,249.328z"/>
				</g>
			</g>
		</g>
		<g>
			<g>
				<g>
					<path style="fill:#FFC115;" d="M153.713,240.598v8.57c0,2.1-1.7,3.8-3.79,3.8c-2.1,0-3.8-1.7-3.8-3.8v-8.57H153.713z"/>
				</g>
				<g>
					<path style="fill:#E8A90C;" d="M153.713,240.598v3.72c-1.29,0.42-2.66,0.65-4.09,0.65c-1.21,0-2.39-0.16-3.5-0.47v-3.9H153.713
						z"/>
				</g>
			</g>
			<g>
				<g>
					<rect x="162.791" y="213.089" style="fill:#2A363F;" width="4.486" height="10.23"/>
				</g>
				<g>
					<g>
						<path style="fill:#313F4A;" d="M159.772,201.601c-2.767,0-5.178,1.502-6.479,3.731l-0.359-0.43
							c-3.345-4.005-8.294-6.319-13.511-6.319c-5.224,0-9.46,4.235-9.46,9.46l0,0c0,2.787,2.26,5.047,5.047,5.047h17.258h7.505
							h7.505v-3.983C167.277,204.961,163.917,201.601,159.772,201.601z"/>
					</g>
					<g>
						<path style="fill:#2A363F;" d="M167.273,209.778v3.31h-32.26c-1.39,0-2.66-0.56-3.57-1.48c-0.92-0.91-1.48-2.18-1.48-3.57
							c0-0.66,0.07-1.31,0.2-1.93c0.23,0.84,0.67,1.59,1.28,2.19c0.91,0.91,2.18,1.48,3.57,1.48H167.273z"/>
					</g>
				</g>
			</g>
			<g>
				<g>
					<g>
						<path style="fill:#FFC115;" d="M149.626,242.773L149.626,242.773c-7.271,0-13.165-5.894-13.165-13.165v-16.519h26.33v16.519
							C162.791,236.879,156.897,242.773,149.626,242.773z"/>
					</g>
					<g>
						<path style="fill:#E8A90C;" d="M151.54,242.637c-0.62,0.09-1.26,0.14-1.91,0.14c-7.27,0-13.17-5.9-13.17-13.17v-16.52h3.83
							v16.52C140.29,236.227,145.18,241.706,151.54,242.637z"/>
					</g>
				</g>
				<g>
					<g>
						<path style="fill:#FFC115;" d="M165.977,231.117h-3.186v-7.798h3.186c2.154,0,3.899,1.746,3.899,3.899l0,0
							C169.877,229.372,168.131,231.117,165.977,231.117z"/>
					</g>
					<g>
						<path style="fill:#E8A90C;" d="M169.88,227.217c0,1.08-0.44,2.05-1.14,2.76c-0.71,0.71-1.68,1.14-2.76,1.14h-3.19v-1.69h3.19
							c1.08,0,2.05-0.44,2.76-1.14c0.51-0.51,0.88-1.17,1.04-1.91C169.85,226.646,169.88,226.926,169.88,227.217z"/>
					</g>
				</g>
			</g>
		</g>
		<g>
			<g>
				<g>
					<g>
						<polygon style="fill:#7BE0E0;" points="166.509,305.207 168.899,376.792 156.246,376.792 148.936,305.207 						"/>
					</g>
					<g>
						<polygon style="fill:#53C9C6;" points="163.243,376.791 156.243,376.791 148.933,305.208 155.933,305.208 						"/>
					</g>
				</g>
				<g>
					<g>
						<path style="fill:#313F4A;" d="M156.246,376.792v5.225c0,1.462,1.185,2.648,2.648,2.648h19.527
							c1.263,0,2.288-1.024,2.288-2.288l0,0c0-0.985-0.63-1.859-1.564-2.17l-10.245-3.415H156.246z"/>
					</g>
					<g>
						<path style="fill:#28353D;" d="M165.893,384.661h-7c-1.46,0-2.65-1.18-2.65-2.64v-5.23h7v5.23
							C163.243,383.481,164.433,384.661,165.893,384.661z"/>
					</g>
				</g>
			</g>
			<g>
				<g>
					<path style="fill:#7BE0E0;" d="M150.172,321.544h-0.505c-9.022,0-16.336-7.314-16.336-16.336l0,0h33.178l0,0
						C166.509,314.23,159.195,321.544,150.172,321.544z"/>
				</g>
				<g>
					<g>
						<g>
							<polygon style="fill:#7BE0E0;" points="131.756,333.871 128.373,374.468 138.954,376.792 144.319,335.993 							"/>
						</g>
						<g>
							<path style="fill:#7BE0E0;" d="M133.33,305.207l-1.699,30.925c-0.178,3.234,2.185,6.051,5.4,6.439l0,0
								c2.977,0.359,5.779-1.482,6.63-4.357l9.773-33.007H133.33z"/>
						</g>
						<g>
							<polygon style="fill:#53C9C6;" points="133.333,305.208 131.753,333.868 128.373,374.471 135.003,375.921 137.613,342.608 
								138.243,336.648 138.303,336.658 138.433,334.998 140.723,305.208 							"/>
						</g>
					</g>
					<g>
						<g>
							<path style="fill:#313F4A;" d="M138.954,376.792v5.096c0,1.533-1.243,2.777-2.777,2.777h-17.018
								c-2.035,0-3.457-2.015-2.774-3.933l0,0c0.272-0.765,0.849-1.383,1.592-1.709l10.396-4.554L138.954,376.792z"/>
						</g>
						<g>
							<path style="fill:#28353D;" d="M129.143,384.661h-9.98c-2.04,0-3.46-2.01-2.78-3.93c0.27-0.76,0.85-1.38,1.59-1.71l10.4-4.55
								l6.65,1.46l-7.06,3.09c-0.75,0.33-1.32,0.95-1.6,1.71C125.683,382.651,127.103,384.661,129.143,384.661z"/>
						</g>
					</g>
				</g>
			</g>
		</g>
		<g>
			<g>
				<g>
					
						<rect x="95.525" y="246.69" transform="matrix(0.9843 -0.1765 0.1765 0.9843 -52.5818 23.8163)" style="fill:#313F4A;" width="24.174" height="121.698"/>
				</g>
				<g>
					<polygon style="fill:#28353D;" points="113.293,368.344 106.453,369.564 84.973,249.774 91.823,248.544 					"/>
				</g>
			</g>
			<g>
				<path style="fill:#505D66;" d="M91.795,228.061l3.038-0.545l-0.959-5.347c-0.15-0.839-0.952-1.397-1.791-1.247l0,0
					c-0.839,0.15-1.397,0.952-1.247,1.791L91.795,228.061z"/>
			</g>
			<g>
				<g>
					<path style="fill:#313F4A;" d="M99.039,361.25l-7-39.046c-0.376-2.097-2.381-3.492-4.478-3.116l0,0
						c-2.097,0.376-3.492,2.381-3.116,4.478l7.42,41.387l0,0c0.688,3.838,4.357,6.392,8.196,5.704l0.644-0.115l5.738-1.029
						l-1.246-6.95l-3.396,0.609C100.507,363.403,99.271,362.543,99.039,361.25z"/>
				</g>
				<g>
					<path style="fill:#28353D;" d="M100.513,370.574l-0.45,0.08c-0.42,0.08-0.84,0.11-1.26,0.11c-3.35,0-6.33-2.39-6.94-5.81
						l-7.42-41.39c-0.04-0.23-0.06-0.46-0.06-0.68c0-1.61,1-3.05,2.5-3.61c-0.03,0.19-0.04,0.38-0.04,0.57
						c0,0.24,0.03,0.48,0.07,0.73l7.89,44.01C95.353,367.644,97.663,369.934,100.513,370.574z"/>
				</g>
			</g>
			<g>
				<g>
					<path style="fill:#505D66;" d="M121.367,384.266L121.367,384.266c-6.571,1.178-12.852-3.194-14.03-9.764l-1.513-8.438
						l23.794-4.266l1.513,8.438C132.309,376.807,127.938,383.088,121.367,384.266z"/>
				</g>
				<g>
					<path style="fill:#455259;" d="M124.793,383.094c-1.05,0.55-2.2,0.95-3.43,1.17c-6.57,1.18-12.85-3.19-14.03-9.76l-1.51-8.44
						l6.7-1.2l1.39,7.73C114.913,378.214,119.423,382.334,124.793,383.094z"/>
				</g>
			</g>
			<g>
				<g>
					<path style="fill:#C4C6C3;" d="M129.656,365.406l-22.613,4.054c-1.934,0.347-3.783-0.94-4.13-2.874l0,0
						c-0.347-1.934,0.94-3.783,2.874-4.129l22.613-4.054c1.934-0.347,3.783,0.94,4.129,2.874v0
						C132.876,363.211,131.59,365.059,129.656,365.406z"/>
				</g>
				<g>
					<path style="fill:#ACADAC;" d="M113.213,368.354l-6.17,1.11c-1.93,0.34-3.78-0.94-4.13-2.88c-0.04-0.21-0.06-0.43-0.06-0.63
						c0-1.69,1.21-3.19,2.93-3.5l6.18-1.11c-1.13,0.68-1.85,1.92-1.85,3.27c0,0.22,0.02,0.44,0.06,0.67
						C110.463,366.884,111.703,368.074,113.213,368.354z"/>
				</g>
			</g>
			<g>
				<g>
					<polygon style="fill:#C4C6C3;" points="108.771,245.512 94.832,227.516 91.795,228.061 84.976,249.777 					"/>
				</g>
				<g>
					<polygon style="fill:#ACADAC;" points="96.353,229.484 91.823,248.544 84.973,249.774 91.793,228.064 94.833,227.514 					"/>
				</g>
			</g>
		</g>
		<g>
			<g>
				<path style="fill:#FFC115;" d="M97.8,291.142c0,3.203-2.234,5.799-4.991,5.799c-2.756,0-4.991-2.596-4.991-5.799
					c0-3.203,2.234-5.799,4.991-5.799C95.565,285.343,97.8,287.939,97.8,291.142z"/>
			</g>
			<g>
				<path style="fill:#E8A90C;" d="M94.163,296.718c-0.43,0.14-0.88,0.22-1.35,0.22c-2.76,0-4.99-2.59-4.99-5.8
					c0-3.2,2.23-5.8,4.99-5.8c0.47,0,0.92,0.08,1.35,0.22c-2.1,0.68-3.64,2.93-3.64,5.58
					C90.523,293.798,92.063,296.038,94.163,296.718z"/>
			</g>
		</g>
	</g>
</g>
<g id="DESIGNED_BY_FREEPIK">
	<g>
		<g>
			<g id="XMLID_319_">
				<g id="XMLID_338_">
					<path id="XMLID_346_" style="fill:#1D262D;" d="M260.104,465.465c-0.432,0.443-0.803,0.931-1.108,1.453l-0.465-0.241
						c-0.067-0.298-0.349-0.503-0.659-0.466c-0.331,0.039-0.568,0.339-0.529,0.67c0.039,0.331,0.339,0.568,0.67,0.529
						c0.066-0.008,0.127-0.026,0.184-0.052l0.451,0.234c-0.251,0.554-0.433,1.139-0.539,1.744l0.747,0.132
						c0.23-1.306,0.85-2.507,1.792-3.473L260.104,465.465z"/>
					<path id="XMLID_345_" style="fill:#1D262D;" d="M265.592,463.163c-0.171,0-0.341,0.006-0.51,0.017l-0.074-0.626
						c0.188-0.149,0.296-0.389,0.266-0.645c-0.046-0.393-0.402-0.674-0.795-0.628c-0.393,0.046-0.674,0.402-0.628,0.795
						c0.03,0.254,0.189,0.461,0.404,0.564l0.074,0.624c-0.714,0.116-1.403,0.332-2.06,0.646l0.327,0.684
						c0.934-0.447,1.942-0.673,2.995-0.673c0.496,0,0.993,0.053,1.475,0.158l0.161-0.741
						C266.692,463.222,266.142,463.163,265.592,463.163z"/>
					<path id="XMLID_344_" style="fill:#1D262D;" d="M272.194,465.711c0.331-0.04,0.566-0.341,0.526-0.672
						c-0.04-0.331-0.341-0.566-0.672-0.526c-0.309,0.038-0.535,0.304-0.53,0.609l-0.416,0.363c-0.418-0.43-0.889-0.813-1.408-1.139
						l-0.404,0.641c1.134,0.715,2.021,1.726,2.563,2.925l0.69-0.313c-0.251-0.554-0.567-1.072-0.942-1.545l0.402-0.351
						C272.065,465.716,272.129,465.719,272.194,465.711z"/>
					<path id="XMLID_343_" style="fill:#1D262D;" d="M265.044,473.372c-0.386,0.023-0.775,0.035-1.157,0.035
						c-0.88,0-1.733-0.061-2.478-0.179c-0.39-0.062-0.846-0.155-1.27-0.292c1.046,1.861,3.069,3.125,5.388,3.125
						c2.855,0,5.262-1.916,5.95-4.504c-0.682,0.449-1.505,0.825-2.459,1.123C267.839,473.047,266.463,473.286,265.044,473.372z"/>
					<path id="XMLID_339_" style="fill:#1D262D;" d="M265.592,464.68c-3.352,0-6.08,2.666-6.08,5.943
						c0,0.426,0.046,0.849,0.137,1.261c0.673,0.483,2.706,0.89,5.348,0.731c2.879-0.173,5.297-0.957,6.672-2.159
						c-0.006-0.195-0.021-0.39-0.045-0.582C271.244,466.913,268.65,464.68,265.592,464.68z M263.432,471.194
						c-1.02,0-1.85-0.83-1.85-1.85c0-1.02,0.83-1.85,1.85-1.85c1.02,0,1.85,0.83,1.85,1.85
						C265.282,470.365,264.452,471.194,263.432,471.194z M268.17,470.286c-0.75,0-1.36-0.61-1.36-1.36s0.61-1.361,1.36-1.361
						c0.75,0,1.361,0.61,1.361,1.361S268.92,470.286,268.17,470.286z"/>
				</g>
				<path id="XMLID_336_" style="fill:#1D262D;" d="M281.595,466.547c-0.295-0.116-0.805-0.309-1.382-0.237
					c-0.551,0.069-0.844,0.341-0.844,1.007v0.866h2.228v1.717h-2.228v5.455h-1.932v-5.455h-1.34v-1.717h1.34v-0.888
					c0-1.68,0.896-2.783,2.568-2.783c0.643,0,1.157,0.122,1.59,0.308L281.595,466.547z"/>
				<path id="XMLID_334_" style="fill:#1D262D;" d="M286.298,469.879c-0.177-0.03-0.358-0.046-0.526-0.046
					c-0.896,0-1.51,0.548-1.51,1.614v3.908h-1.932v-7.172h1.873v0.785c0.451-0.673,1.14-0.977,2.021-0.977
					c0.414,0,0.848,0.128,1.094,0.337L286.298,469.879z"/>
				<path id="XMLID_331_" style="fill:#1D262D;" d="M293.965,471.757c0,0.222-0.015,0.489-0.037,0.651h-5.085
					c0.207,1.036,0.933,1.488,1.843,1.488c0.622,0,1.295-0.252,1.813-0.688l1.133,1.243c-0.814,0.748-1.85,1.088-3.057,1.088
					c-2.198,0-3.723-1.495-3.723-3.753c0-2.258,1.48-3.797,3.627-3.797C292.544,467.99,293.958,469.522,293.965,471.757z
					 M288.851,471.091h3.175c-0.177-0.918-0.733-1.436-1.562-1.436C289.554,469.655,289.021,470.203,288.851,471.091z"/>
				<path id="XMLID_328_" style="fill:#1D262D;" d="M301.618,471.757c0,0.222-0.015,0.489-0.037,0.651h-5.085
					c0.207,1.036,0.933,1.488,1.843,1.488c0.622,0,1.295-0.252,1.814-0.688l1.132,1.243c-0.814,0.748-1.85,1.088-3.057,1.088
					c-2.198,0-3.723-1.495-3.723-3.753c0-2.258,1.48-3.797,3.627-3.797C300.197,467.99,301.611,469.522,301.618,471.757z
					 M296.504,471.091h3.175c-0.178-0.918-0.733-1.436-1.562-1.436C297.207,469.655,296.674,470.203,296.504,471.091z"/>
				<path id="XMLID_325_" style="fill:#1D262D;" d="M309.964,471.764c0,2.154-1.495,3.775-3.471,3.775
					c-0.962,0-1.643-0.378-2.109-0.933v3.708h-1.924v-10.133h1.887v0.792c0.466-0.585,1.155-0.984,2.139-0.984
					C308.469,467.99,309.964,469.61,309.964,471.764z M304.287,471.764c0,1.132,0.748,1.976,1.843,1.976
					c1.14,0,1.85-0.881,1.85-1.976c0-1.095-0.71-1.976-1.85-1.976C305.035,469.788,304.287,470.632,304.287,471.764z"/>
				<path id="XMLID_322_" style="fill:#1D262D;" d="M313.068,465.836c0,0.696-0.54,1.229-1.236,1.229
					c-0.696,0-1.229-0.533-1.229-1.229c0-0.696,0.533-1.243,1.229-1.243C312.527,464.592,313.068,465.14,313.068,465.836z
					 M312.809,475.354h-1.932v-7.172h1.932V475.354z"/>
				<path id="XMLID_320_" style="fill:#1D262D;" d="M316.032,470.736l2.701-2.554h2.368l-3.479,3.375l3.501,3.797h-2.376
					l-2.716-2.901v2.901H314.1v-10.658h1.932V470.736z"/>
			</g>
			<g>
				<path style="fill:#1D262D;" d="M184.412,475.289v-1.055c-0.527,0.718-1.391,1.23-2.387,1.23c-1.846,0-3.149-1.406-3.149-3.706
					c0-2.256,1.289-3.721,3.149-3.721c0.952,0,1.816,0.469,2.387,1.245v-3.765h1.099v9.77H184.412z M184.412,473.37v-3.208
					c-0.395-0.615-1.245-1.143-2.124-1.143c-1.421,0-2.27,1.172-2.27,2.739c0,1.567,0.85,2.724,2.27,2.724
					C183.168,474.483,184.017,473.986,184.412,473.37z"/>
				<path style="fill:#1D262D;" d="M186.932,471.744c0-2.051,1.465-3.706,3.486-3.706c2.139,0,3.398,1.67,3.398,3.794v0.279h-5.727
					c0.088,1.333,1.025,2.446,2.549,2.446c0.805,0,1.626-0.322,2.182-0.894l0.527,0.718c-0.703,0.703-1.655,1.084-2.812,1.084
					C188.44,475.465,186.932,473.956,186.932,471.744z M190.403,468.947c-1.509,0-2.256,1.274-2.314,2.358h4.643
					C192.718,470.25,192.015,468.947,190.403,468.947z"/>
				<path style="fill:#1D262D;" d="M194.607,474.351l0.571-0.791c0.469,0.542,1.362,1.011,2.329,1.011
					c1.084,0,1.67-0.513,1.67-1.216c0-1.714-4.38-0.659-4.38-3.281c0-1.098,0.952-2.036,2.636-2.036
					c1.201,0,2.051,0.454,2.622,1.026l-0.513,0.762c-0.424-0.513-1.201-0.894-2.109-0.894c-0.967,0-1.567,0.483-1.567,1.113
					c0,1.552,4.38,0.527,4.38,3.281c0,1.187-0.952,2.138-2.783,2.138C196.306,475.465,195.325,475.113,194.607,474.351z"/>
				<path style="fill:#1D262D;" d="M201.477,466.471c0-0.41,0.337-0.747,0.732-0.747c0.41,0,0.747,0.337,0.747,0.747
					c0,0.41-0.337,0.732-0.747,0.732C201.814,467.203,201.477,466.881,201.477,466.471z M201.667,475.289v-7.075h1.099v7.075
					H201.667z"/>
				<path style="fill:#1D262D;" d="M204.582,477.105l0.556-0.82c0.586,0.703,1.289,0.967,2.3,0.967c1.172,0,2.27-0.571,2.27-2.124
					v-1.011c-0.513,0.718-1.377,1.26-2.373,1.26c-1.845,0-3.149-1.377-3.149-3.662c0-2.27,1.289-3.677,3.149-3.677
					c0.952,0,1.802,0.469,2.373,1.245v-1.069h1.098v6.87c0,2.344-1.641,3.076-3.369,3.076
					C206.237,478.16,205.417,477.926,204.582,477.105z M209.709,473.253v-3.091c-0.381-0.615-1.23-1.143-2.109-1.143
					c-1.421,0-2.27,1.128-2.27,2.695c0,1.553,0.849,2.695,2.27,2.695C208.478,474.41,209.328,473.868,209.709,473.253z"/>
				<path style="fill:#1D262D;" d="M217.413,475.289v-4.629c0-1.245-0.63-1.641-1.582-1.641c-0.865,0-1.685,0.527-2.095,1.099v5.17
					h-1.099v-7.075h1.099v1.025c0.498-0.586,1.464-1.201,2.519-1.201c1.48,0,2.256,0.747,2.256,2.285v4.966H217.413z"/>
				<path style="fill:#1D262D;" d="M219.932,471.744c0-2.051,1.465-3.706,3.486-3.706c2.139,0,3.398,1.67,3.398,3.794v0.279h-5.727
					c0.088,1.333,1.025,2.446,2.549,2.446c0.806,0,1.626-0.322,2.183-0.894l0.527,0.718c-0.703,0.703-1.655,1.084-2.812,1.084
					C221.441,475.465,219.932,473.956,219.932,471.744z M223.404,468.947c-1.509,0-2.256,1.274-2.314,2.358h4.643
					C225.718,470.25,225.015,468.947,223.404,468.947z"/>
				<path style="fill:#1D262D;" d="M233.35,475.289v-1.055c-0.527,0.718-1.392,1.23-2.388,1.23c-1.846,0-3.149-1.406-3.149-3.706
					c0-2.256,1.289-3.721,3.149-3.721c0.952,0,1.817,0.469,2.388,1.245v-3.765h1.098v9.77H233.35z M233.35,473.37v-3.208
					c-0.396-0.615-1.245-1.143-2.124-1.143c-1.421,0-2.27,1.172-2.27,2.739c0,1.567,0.849,2.724,2.27,2.724
					C232.105,474.483,232.954,473.986,233.35,473.37z"/>
				<path style="fill:#1D262D;" d="M239.692,475.289v-9.77h1.098v3.765c0.572-0.776,1.421-1.245,2.388-1.245
					c1.845,0,3.149,1.465,3.149,3.721c0,2.299-1.304,3.706-3.149,3.706c-0.996,0-1.86-0.513-2.388-1.23v1.055H239.692z
					 M242.9,474.483c1.436,0,2.285-1.157,2.285-2.724c0-1.568-0.85-2.739-2.285-2.739c-0.864,0-1.728,0.527-2.109,1.143v3.208
					C241.171,473.986,242.036,474.483,242.9,474.483z"/>
				<path style="fill:#1D262D;" d="M247.528,477.061c0.161,0.073,0.425,0.117,0.601,0.117c0.483,0,0.805-0.161,1.055-0.747
					l0.469-1.069l-2.959-7.148h1.187l2.358,5.8l2.344-5.8h1.201l-3.545,8.51c-0.425,1.025-1.143,1.421-2.08,1.435
					c-0.234,0-0.601-0.044-0.805-0.103L247.528,477.061z"/>
			</g>
		</g>
	</g>
</g>
</svg>
