<?xml version="1.0" encoding="utf-8"?>
<!-- Generator: Adobe Illustrator 27.5.0, SVG Export Plug-In . SVG Version: 6.00 Build 0)  -->
<svg version="1.1" xmlns="http://www.w3.org/2000/svg" xmlns:xlink="http://www.w3.org/1999/xlink" x="0px" y="0px"
	 viewBox="0 0 500 500" style="enable-background:new 0 0 500 500;" xml:space="preserve">
<g id="Floor">
	<ellipse id="Floor_14_" style="fill:#F5F5F5;" cx="251.107" cy="326.513" rx="230.893" ry="133.306"/>
</g>
<g id="Form">
	<g id="Questionary_1_">
		<g id="XMLID_314_">
			<path id="XMLID_317_" style="fill:#37474F;" d="M84.553,410.849l-3.142-1.814c-0.99-0.572-1.793-1.962-1.793-3.105
				l-0.001-232.769c0-1.143,0.803-2.533,1.793-3.105l144.405-83.372c0.99-0.572,2.595-0.572,3.585,0l3.143,1.814
				c0.99,0.572,1.793,1.962,1.793,3.105v232.768c0,1.143-0.803,2.534-1.793,3.105L88.138,410.849
				C87.148,411.42,85.543,411.42,84.553,410.849z"/>
			<path id="XMLID_316_" style="fill:#455A64;" d="M234.315,91.313c-0.124-0.927-0.878-1.267-1.772-0.745L88.138,173.94
				c-0.497,0.282-0.936,0.77-1.267,1.333l-6.732-3.883c0.331-0.563,0.77-1.043,1.267-1.333l144.405-83.373
				c0.994-0.571,2.6-0.571,3.585,0l3.146,1.813C233.446,89.019,234.199,90.236,234.315,91.313z"/>
			<path id="XMLID_315_" style="fill:#263238;" d="M87.823,410.992c-0.033,0.025-0.075,0.033-0.108,0.041
				c-0.058,0.025-0.116,0.05-0.182,0.066c-0.025,0.008-0.05,0.017-0.075,0.025c-0.108,0.033-0.215,0.058-0.331,0.083h-0.041
				c-0.712,0.132-1.499,0.075-2.136-0.174c-0.141-0.05-0.273-0.116-0.397-0.182l-3.146-1.813c-0.985-0.58-1.788-1.962-1.788-3.105
				V173.161c0-0.571,0.199-1.209,0.522-1.772l6.732,3.883c-0.331,0.563-0.53,1.201-0.53,1.772v232.771
				c0,0.406,0.099,0.729,0.273,0.944c0.224,0.273,0.563,0.389,0.961,0.306C87.657,411.05,87.74,411.025,87.823,410.992z"/>
		</g>
		<g id="XMLID_283_">
			<path id="XMLID_308_" style="fill:#27DEBF;" d="M138.449,163.815c-0.063-0.279-0.18-0.504-0.324-0.657
				c-0.036-0.036-0.081-0.072-0.117-0.099c-0.18-0.144-0.414-0.18-0.666-0.099c-0.081,0.018-0.162,0.054-0.252,0.108
				c-0.387,0.234-0.747,0.684-1.008,1.233c-0.261,0.549-0.423,1.197-0.423,1.801c0,0.594,0.153,1.044,0.405,1.287
				c0.261,0.27,0.63,0.306,1.026,0.081c0.198-0.117,0.387-0.279,0.558-0.495c0.144-0.171,0.261-0.369,0.378-0.585
				c0.297-0.576,0.495-1.278,0.495-1.936C138.521,164.22,138.494,164.004,138.449,163.815z M161.928,111.349
				c-0.495-0.288-1.062-0.459-1.719-0.459c-0.9,0-1.962,0.315-3.241,1.044c-2.89,1.674-4.681,4.249-5.96,7.166
				c-0.189,0.423-0.369,0.855-0.531,1.287c-0.162,0.441-0.324,0.873-0.468,1.323c-0.153,0.45-0.297,0.9-0.432,1.35
				c-0.045,0.153-0.09,0.306-0.135,0.45c-0.09,0.306-0.171,0.603-0.261,0.909c-0.009,0.045-0.018,0.081-0.036,0.126
				c-0.153,0.558-0.297,1.125-0.45,1.684c-0.081,0.306-0.153,0.603-0.234,0.9c-0.081,0.297-0.153,0.594-0.234,0.891
				c-0.315,1.188-0.639,2.332-0.999,3.421c-0.072,0.225-0.144,0.441-0.225,0.657c-0.108,0.315-0.225,0.621-0.342,0.918
				c-0.09,0.234-0.189,0.459-0.279,0.675c-0.153,0.369-0.315,0.72-0.477,1.053c-0.108,0.216-0.216,0.432-0.324,0.639
				c-2.53,4.861-5.618,6.761-7.409,9.263c-1.566,2.179-2.017,3.925-4.123,7.373c-0.666,1.098-1.503,2.368-2.611,3.889
				c-3.043,4.195-4.132,6.275-4.51,7.535c-0.018,0.036-0.027,0.072-0.036,0.108c-0.027,0.099-0.054,0.189-0.072,0.279
				c-0.009,0.027-0.018,0.063-0.018,0.09c-0.018,0.081-0.027,0.162-0.045,0.234c-0.036,0.279-0.045,0.513-0.045,0.738v9.344
				l3.358,1.936v-9.344c0-0.387,0.018-0.819,0.216-1.44c0.369-1.26,1.449-3.331,4.501-7.535c1.107-1.521,1.944-2.8,2.62-3.898
				c2.098-3.439,2.548-5.185,4.114-7.346c0-0.009,0.009-0.009,0.009-0.018c1.791-2.512,4.879-4.402,7.409-9.273
				c0.378-0.72,0.738-1.503,1.08-2.368c1.62-4.051,2.35-9.399,4.339-13.927c1.278-2.908,3.079-5.483,5.968-7.148
				c2.044-1.179,3.547-1.278,4.69-0.738L161.928,111.349z M176.665,123.286v0.009c-0.27-0.144-0.549-0.27-0.891-0.351
				c-1.27-0.306-3.16,0.432-5.059,0.216c2.665,3.448,6.374,1.233,8.417,1.72c0.342,0.081,0.63,0.207,0.9,0.369v-0.009
				L176.665,123.286z M183.776,136.124c-0.099,0.054-0.189,0.126-0.279,0.207c-0.045,0.045-0.09,0.09-0.135,0.135
				c-0.045,0.054-0.09,0.099-0.135,0.153c-0.522,0.63-0.882,1.62-0.882,2.53c0,0.585,0.153,1.026,0.396,1.278
				c0.036,0.036,0.072,0.072,0.117,0.099c0.18,0.144,0.414,0.18,0.666,0.099c0.081-0.018,0.171-0.054,0.252-0.108
				c0.099-0.054,0.198-0.135,0.297-0.207c0.135-0.135,0.27-0.279,0.387-0.45c0.441-0.621,0.747-1.521,0.747-2.359
				C185.208,136.286,184.569,135.665,183.776,136.124z M185.982,127.671c-0.693-0.441-1.782-0.864-3.475-1.233
				c-0.513-0.117-0.981-0.252-1.387-0.378c0.909,0.765,2.053,1.71,4.735,2.314c1.423,0.315,2.413,0.657,3.106,1.008L185.982,127.671
				z"/>
			<path id="XMLID_302_" style="fill:#27DEBF;" d="M189.23,129.542c-0.083-0.05-0.174-0.099-0.265-0.157
				c-0.696-0.356-1.689-0.695-3.105-1.01c-2.683-0.604-3.826-1.548-4.736-2.318c-0.373-0.315-0.704-0.596-1.093-0.811
				c-0.265-0.157-0.555-0.282-0.902-0.364c-2.037-0.488-5.746,1.731-8.413-1.722c-0.025-0.033-0.058-0.075-0.083-0.108
				c-1.863-2.509-2.542-8.106-5.332-9.754c-0.091-0.058-0.182-0.108-0.281-0.157c-1.151-0.538-2.65-0.439-4.695,0.737
				c-7.394,4.273-7.643,14.416-10.309,21.081c-2.666,6.682-6.434,8.76-8.487,11.633c-2.07,2.865-2.186,4.993-6.74,11.261
				c-4.546,6.268-4.72,7.8-4.72,8.984v9.34l60.519-34.951v-9.332C190.588,131.123,190.513,130.303,189.23,129.542z M137.09,167.473
				c-0.787,0.455-1.424-0.157-1.424-1.374c0-1.209,0.637-2.575,1.424-3.031c0.795-0.455,1.424,0.166,1.424,1.383
				C138.514,165.66,137.885,167.018,137.09,167.473z M160.324,139.329c-1.987,1.151-3.726,0.497-4.662-1.424
				c-0.472-0.96-0.737-2.236-0.737-3.767c0-4.587,2.418-9.696,5.399-11.418c0.447-0.257,0.886-0.431,1.3-0.513
				c2.352-0.464,4.09,1.797,4.09,5.705C165.714,132.498,163.305,137.607,160.324,139.329z M183.781,140.513
				c-0.795,0.455-1.432-0.157-1.432-1.366c0-1.217,0.638-2.567,1.432-3.022c0.786-0.455,1.424,0.157,1.424,1.374
				C185.206,138.708,184.568,140.058,183.781,140.513z"/>
			<path id="XMLID_295_" style="opacity:0.1;" d="M189.23,129.542c-0.083-0.05-0.174-0.099-0.265-0.157
				c-0.696-0.356-1.689-0.695-3.105-1.01c-2.683-0.604-3.826-1.548-4.736-2.318c-0.373-0.315-0.704-0.596-1.093-0.811
				c-0.265-0.157-0.555-0.282-0.902-0.364c-2.037-0.488-5.746,1.731-8.413-1.722c-0.025-0.033-0.058-0.075-0.083-0.108
				c-1.863-2.509-2.542-8.106-5.332-9.754c-0.091-0.058-0.182-0.108-0.281-0.157c-1.151-0.538-2.65-0.439-4.695,0.737
				c-7.394,4.273-7.643,14.416-10.309,21.081c-2.666,6.682-6.434,8.76-8.487,11.633c-2.07,2.865-2.186,4.993-6.74,11.261
				c-4.546,6.268-4.72,7.8-4.72,8.984v9.34l60.519-34.951v-9.332C190.588,131.123,190.513,130.303,189.23,129.542z M137.09,167.473
				c-0.787,0.455-1.424-0.157-1.424-1.374c0-1.209,0.637-2.575,1.424-3.031c0.795-0.455,1.424,0.166,1.424,1.383
				C138.514,165.66,137.885,167.018,137.09,167.473z M160.324,139.329c-1.987,1.151-3.726,0.497-4.662-1.424
				c-0.472-0.96-0.737-2.236-0.737-3.767c0-4.587,2.418-9.696,5.399-11.418c0.447-0.257,0.886-0.431,1.3-0.513
				c2.352-0.464,4.09,1.797,4.09,5.705C165.714,132.498,163.305,137.607,160.324,139.329z M183.781,140.513
				c-0.795,0.455-1.432-0.157-1.432-1.366c0-1.217,0.638-2.567,1.432-3.022c0.786-0.455,1.424,0.157,1.424,1.374
				C185.206,138.708,184.568,140.058,183.781,140.513z"/>
			<path id="XMLID_294_" style="opacity:0.25;" d="M130.284,165.391c-0.198,0.621-0.216,1.053-0.216,1.44v9.344l-3.358-1.936v-9.344
				c0-0.225,0.009-0.459,0.045-0.738c0.018-0.072,0.027-0.153,0.045-0.234c0-0.027,0.009-0.063,0.018-0.09
				c0.018-0.09,0.045-0.18,0.072-0.279c0.009-0.036,0.018-0.072,0.027-0.108h0.009L130.284,165.391z"/>
			<path id="XMLID_293_" style="opacity:0.25;" d="M141.519,146.612c-1.566,2.161-2.016,3.907-4.114,7.346l-3.358-1.936
				c2.107-3.448,2.557-5.194,4.123-7.373c0.009,0,0.009,0,0.009,0L141.519,146.612z"/>
			<path id="XMLID_292_" style="opacity:0.25;" d="M154.357,121.027c-1.99,4.528-2.719,9.876-4.339,13.927
				c-0.342,0.864-0.702,1.647-1.08,2.368l-3.358-1.935c0.108-0.207,0.216-0.423,0.324-0.639c0.162-0.333,0.324-0.684,0.477-1.053
				c0.09-0.216,0.189-0.441,0.279-0.675c0.117-0.297,0.234-0.603,0.342-0.918c0.081-0.216,0.153-0.432,0.225-0.657
				c0.36-1.089,0.684-2.233,0.999-3.421c0.081-0.297,0.153-0.594,0.234-0.891c0.081-0.297,0.153-0.594,0.234-0.9
				c0.153-0.558,0.297-1.125,0.45-1.684c0.018-0.045,0.027-0.081,0.036-0.126c0.09-0.306,0.171-0.603,0.261-0.909
				c0.045-0.144,0.09-0.297,0.135-0.45c0.135-0.45,0.279-0.9,0.432-1.35c0.144-0.45,0.306-0.882,0.468-1.323
				c0.162-0.432,0.342-0.864,0.531-1.287L154.357,121.027z"/>
			<path id="XMLID_288_" style="fill:#27DEBF;" d="M136.081,164.301c-0.261,0.549-0.423,1.197-0.423,1.801
				c0,0.594,0.153,1.044,0.405,1.287c-0.243-0.252-0.396-0.693-0.396-1.287C135.667,165.499,135.829,164.851,136.081,164.301z
				 M138.521,164.454c0-0.234-0.027-0.45-0.072-0.639c0.036,0.189,0.063,0.405,0.063,0.639c0,0.657-0.189,1.359-0.486,1.936
				C138.323,165.814,138.521,165.112,138.521,164.454z M182.858,140.526c0.18,0.144,0.414,0.18,0.666,0.099
				C183.272,140.697,183.047,140.661,182.858,140.526z"/>
			<path id="XMLID_287_" style="fill:#27DEBF;" d="M165.717,127.914c0,4.582-2.413,9.696-5.392,11.415
				c-1.99,1.152-3.727,0.495-4.663-1.423c0.423-0.081,0.855-0.252,1.305-0.513c2.98-1.728,5.392-6.833,5.392-11.424
				c0-1.53-0.261-2.8-0.738-3.763C163.971,121.738,165.717,124.007,165.717,127.914z"/>
			<path id="XMLID_286_" style="opacity:0.3;" d="M165.717,127.914c0,4.582-2.413,9.696-5.392,11.415
				c-1.99,1.152-3.727,0.495-4.663-1.423c0.423-0.081,0.855-0.252,1.305-0.513c2.98-1.728,5.392-6.833,5.392-11.424
				c0-1.53-0.261-2.8-0.738-3.763C163.971,121.738,165.717,124.007,165.717,127.914z"/>
			<path id="XMLID_285_" style="fill:#37474F;" d="M138.024,166.389c-0.112,0.216-0.236,0.416-0.376,0.586
				c-0.171,0.216-0.36,0.378-0.558,0.495c-0.396,0.225-0.765,0.189-1.026-0.081c-0.252-0.243-0.405-0.693-0.405-1.287
				c0-0.603,0.162-1.251,0.423-1.801c0.261-0.549,0.621-0.999,1.008-1.233c0.09-0.054,0.171-0.09,0.252-0.108
				c0.306-0.09,0.576-0.018,0.783,0.198c0.144,0.153,0.261,0.378,0.324,0.657c0.045,0.189,0.072,0.405,0.072,0.639
				C138.521,165.111,138.327,165.812,138.024,166.389z"/>
			<path id="XMLID_284_" style="fill:#37474F;" d="M185.208,137.501c0,0.837-0.306,1.738-0.747,2.359
				c-0.117,0.171-0.252,0.315-0.387,0.45c-0.099,0.072-0.198,0.153-0.297,0.207c-0.081,0.054-0.171,0.09-0.252,0.108
				c-0.306,0.099-0.585,0.018-0.783-0.198c-0.243-0.252-0.396-0.693-0.396-1.278c0-0.909,0.36-1.899,0.882-2.53
				c0.045-0.054,0.09-0.099,0.135-0.153c0.045-0.045,0.09-0.09,0.135-0.135c0.09-0.081,0.18-0.153,0.279-0.207
				C184.569,135.665,185.208,136.286,185.208,137.501z"/>
		</g>
		<path id="XMLID_282_" style="fill:#F5F5F5;" d="M97.507,195.714l125.66-72.549c0.594-0.343,1.557-0.343,2.151,0l1.212,0.7
			c0.594,0.343,1.076,1.177,1.076,1.863v191.704c0,0.686-0.482,1.52-1.076,1.863l-125.657,72.549c-0.594,0.343-1.557,0.343-2.151,0
			l-1.215-0.701c-0.594-0.343-1.076-1.177-1.076-1.863V197.577C96.431,196.891,96.913,196.057,97.507,195.714z"/>
		<path id="XMLID_281_" style="fill:#FAFAFA;" d="M227.567,125.402c-0.132-0.439-0.547-0.58-1.035-0.298l-125.659,72.55
			c-0.298,0.174-0.571,0.464-0.762,0.803l-3.362-1.938c0.19-0.339,0.464-0.637,0.762-0.803l125.659-72.55
			c0.588-0.348,1.557-0.348,2.144,0l1.217,0.696C227.037,124.16,227.459,124.797,227.567,125.402z"/>
		<path id="XMLID_280_" style="fill:#E0E0E0;" d="M100.616,391.956c-0.124,0.05-0.257,0.083-0.398,0.108
			c-0.066,0.008-0.141,0.017-0.207,0.025c-0.215,0.017-0.439,0.008-0.654-0.025c-0.141-0.025-0.273-0.058-0.397-0.108
			c-0.083-0.033-0.166-0.074-0.24-0.116l-1.209-0.696c-0.596-0.348-1.076-1.176-1.076-1.863V197.58c0-0.348,0.116-0.729,0.315-1.06
			l3.362,1.938c-0.19,0.339-0.315,0.72-0.315,1.06v191.702C99.796,391.807,100.144,392.096,100.616,391.956z"/>
		<g id="XMLID_248_">
			<path id="XMLID_278_" style="fill:#27DEBF;" d="M150.26,151.68c-0.063,0.099-0.117,0.189-0.171,0.279
				c-0.603,1.026-0.801,1.809-0.855,2.125c-0.009,0.054-0.018,0.09-0.018,0.117c-0.009,0.027-0.009,0.045-0.009,0.045l-2.044,11.541
				l-0.648,3.691c-0.027,0.153-0.063,0.306-0.108,0.459c-0.036,0.144-0.081,0.297-0.135,0.441c-0.036,0.099-0.072,0.198-0.108,0.297
				l3.358,1.945c0.162-0.387,0.279-0.792,0.351-1.197l0.657-3.691l2.035-11.541c0,0,0.081-1.053,1.053-2.575L150.26,151.68z"/>
			<path id="XMLID_277_" style="fill:#27DEBF;" d="M127.124,188.914c-0.342,0.531-0.666,1.071-0.954,1.612
				c-0.144,0.261-0.279,0.522-0.405,0.783c-0.162,0.333-0.324,0.675-0.468,1.017c-0.162,0.369-0.315,0.747-0.459,1.125
				c-0.144,0.378-0.279,0.756-0.405,1.143c-0.153,0.441-0.288,0.882-0.414,1.332c-0.081,0.288-0.162,0.585-0.243,0.891
				c-0.189,0.711-0.351,1.431-0.504,2.16c-0.054,0.252-0.108,0.513-0.153,0.765c-0.063,0.306-0.126,0.612-0.18,0.918
				c0,0.009-0.009,0.036-0.009,0.045c-0.036,0.243,0.009,0.405,0.117,0.477c0.045,0.018,0.072,0.018,0.108,0.009c0,0,0,0,0.009,0
				c0,0,0,0,0.009,0l0.009-0.009l0.009-0.009l2.854-2.278l0.468-0.369l0.225-0.171c0.099-0.081,0.18-0.144,0.252-0.198l0.198-0.153
				c0.108-0.09,0.171-0.135,0.171-0.135c0.864-2.962,2.115-5.77,4.15-8.471l-3.358-1.945
				C127.781,187.942,127.439,188.428,127.124,188.914z"/>
			<path id="XMLID_276_" style="fill:#27DEBF;" d="M163.476,126.293c-0.153,0.252-0.297,0.513-0.432,0.774
				c-0.09,0.144-0.171,0.297-0.243,0.45c-0.117,0.216-0.225,0.432-0.333,0.648c-0.09,0.18-0.18,0.351-0.261,0.531
				c-0.162,0.342-0.315,0.684-0.459,1.026c-0.162,0.369-0.315,0.738-0.459,1.107c-0.009,0.009-0.009,0.018-0.009,0.027
				c-0.135,0.333-0.252,0.666-0.36,0.999c-0.18,0.504-0.333,1.008-0.468,1.512c-0.081,0.27-0.144,0.531-0.207,0.792
				c-0.009,0.027-0.018,0.045-0.018,0.063c-0.027,0.135-0.063,0.27-0.09,0.405c-0.072,0.315-0.135,0.63-0.189,0.936
				c-0.045,0.243-0.099,0.495-0.162,0.747c-0.063,0.252-0.135,0.513-0.216,0.774c-0.072,0.252-0.162,0.495-0.243,0.747
				c-0.018,0.018-0.018,0.045-0.027,0.063c-0.099,0.27-0.207,0.549-0.324,0.828c-0.108,0.279-0.225,0.558-0.36,0.846
				c-0.036,0.081-0.072,0.153-0.099,0.225c-0.099,0.216-0.207,0.423-0.306,0.639c-0.171,0.342-0.351,0.693-0.531,1.035
				c-0.117,0.234-0.243,0.459-0.369,0.684l3.367,1.945c1.269-2.278,2.287-4.654,2.629-6.581c0.549-3.106,1.837-6.374,3.538-9.281
				L163.476,126.293z"/>
			<path id="XMLID_275_" style="fill:#27DEBF;" d="M183.47,133.774c-0.153-0.09-0.333-0.162-0.549-0.189
				c0.846,1.188,1.99,1.881,2.998,1.908c0.342,0.009,0.621,0.072,0.837,0.18L183.47,133.774z"/>
			<path id="XMLID_274_" style="opacity:0.4;fill:#FFFFFF;" d="M183.47,133.774c-0.153-0.09-0.333-0.162-0.549-0.189
				c0.846,1.188,1.99,1.881,2.998,1.908c0.342,0.009,0.621,0.072,0.837,0.18L183.47,133.774z"/>
			<path id="XMLID_273_" style="fill:#27DEBF;" d="M195.957,148.376c-0.864-0.495-1.998-0.504-3.367,0.099
				c-3.907,1.729-5.599,2.503-7.616,3.349c-0.396,2.593,1.134,2.836,1.899,2.53c2.836-1.125,4.285-1.819,9.083-3.925
				c1.35-0.603,2.485-0.603,3.34-0.108L195.957,148.376z"/>
			<path id="XMLID_272_" style="opacity:0.4;fill:#FFFFFF;" d="M195.957,148.376c-0.864-0.495-1.998-0.504-3.367,0.099
				c-3.907,1.729-5.599,2.503-7.616,3.349c-0.396,2.593,1.134,2.836,1.899,2.53c2.836-1.125,4.285-1.819,9.083-3.925
				c1.35-0.603,2.485-0.603,3.34-0.108L195.957,148.376z"/>
			<path id="XMLID_271_" style="fill:#27DEBF;" d="M149.522,172.62c-0.9,2.278-2.962,4.222-2.962,4.222l-10.533,7.904
				c-1.837,1.521-3.313,3.07-4.519,4.654l-3.358-1.945c1.197-1.575,2.665-3.124,4.519-4.654l10.542-7.904
				c0,0,2.053-1.945,2.953-4.222L149.522,172.62z"/>
			<path id="XMLID_270_" style="opacity:0.4;fill:#FFFFFF;" d="M149.522,172.62c-0.9,2.278-2.962,4.222-2.962,4.222l-10.533,7.904
				c-1.837,1.521-3.313,3.07-4.519,4.654l-3.358-1.945c1.197-1.575,2.665-3.124,4.519-4.654l10.542-7.904
				c0,0,2.053-1.945,2.953-4.222L149.522,172.62z"/>
			<path id="XMLID_269_" style="fill:#27DEBF;" d="M160.676,144.1c-1.693,3.052-3.817,5.941-5.312,7.4
				c-0.774,0.765-1.341,1.485-1.746,2.116l-3.358-1.936c0.396-0.639,0.963-1.359,1.737-2.124c1.495-1.458,3.619-4.348,5.312-7.4
				L160.676,144.1z"/>
			<path id="XMLID_268_" style="opacity:0.4;fill:#FFFFFF;" d="M160.676,144.1c-1.693,3.052-3.817,5.941-5.312,7.4
				c-0.774,0.765-1.341,1.485-1.746,2.116l-3.358-1.936c0.396-0.639,0.963-1.359,1.737-2.124c1.495-1.458,3.619-4.348,5.312-7.4
				L160.676,144.1z"/>
			<path id="XMLID_267_" style="fill:#27DEBF;" d="M179.662,119.271c-1.242-0.648-2.89-0.54-4.834,0.477
				c-2.881,1.512-5.78,4.708-7.985,8.489l-3.367-1.945c2.206-3.781,5.105-6.977,7.994-8.489c1.134-0.594,2.169-0.873,3.079-0.873
				c0.684,0,1.314,0.162,1.854,0.468L179.662,119.271z"/>
			<path id="XMLID_266_" style="opacity:0.4;fill:#FFFFFF;" d="M179.662,119.271c-1.242-0.648-2.89-0.54-4.834,0.477
				c-2.881,1.512-5.78,4.708-7.985,8.489l-3.367-1.945c2.206-3.781,5.105-6.977,7.994-8.489c1.134-0.594,2.169-0.873,3.079-0.873
				c0.684,0,1.314,0.162,1.854,0.468L179.662,119.271z"/>
			<path id="XMLID_265_" style="opacity:0.15;" d="M131.508,189.4c-2.035,2.701-3.286,5.51-4.15,8.471c0,0-0.063,0.045-0.171,0.135
				l-0.198,0.153c-0.072,0.054-0.153,0.117-0.252,0.198l-0.225,0.171l-0.468,0.369l-2.854,2.278l-0.009,0.009l-0.009,0.009
				c-0.009,0-0.009,0-0.009,0c-0.009,0-0.009,0-0.009,0c-0.036,0.009-0.063,0.009-0.108-0.009c-0.108-0.072-0.153-0.234-0.117-0.477
				c0-0.009,0.009-0.036,0.009-0.045c0.054-0.306,0.117-0.612,0.18-0.918c0.045-0.252,0.099-0.513,0.153-0.765
				c0.153-0.729,0.315-1.449,0.504-2.16c0.081-0.306,0.162-0.603,0.243-0.891c0.126-0.45,0.261-0.891,0.414-1.332
				c0.126-0.387,0.261-0.765,0.405-1.143c0.144-0.378,0.297-0.756,0.459-1.125c0.144-0.342,0.306-0.684,0.468-1.017
				c0.126-0.261,0.261-0.522,0.405-0.783c0.288-0.54,0.612-1.08,0.954-1.612c0.315-0.486,0.657-0.972,1.026-1.458L131.508,189.4z"/>
			<path id="XMLID_264_" style="opacity:0.15;" d="M153.618,153.616c-0.972,1.521-1.053,2.575-1.053,2.575l-2.035,11.541
				l-0.657,3.691c-0.072,0.405-0.189,0.81-0.351,1.197l-3.358-1.945c0.036-0.099,0.072-0.198,0.108-0.297
				c0.054-0.144,0.099-0.297,0.135-0.441c0.045-0.153,0.081-0.306,0.108-0.459l0.648-3.691l2.044-11.541c0,0,0-0.018,0.009-0.045
				c0-0.027,0.009-0.063,0.018-0.117c0.054-0.315,0.252-1.098,0.855-2.125c0.054-0.09,0.108-0.18,0.171-0.279L153.618,153.616z"/>
			<path id="XMLID_263_" style="opacity:0.15;" d="M166.843,128.238c-1.701,2.908-2.989,6.176-3.538,9.281
				c-0.342,1.927-1.359,4.303-2.629,6.581l-3.367-1.945c0.126-0.225,0.252-0.45,0.369-0.684c0.18-0.342,0.36-0.693,0.531-1.035
				c0.099-0.216,0.207-0.423,0.306-0.639c0.027-0.072,0.063-0.144,0.099-0.225c0.126-0.279,0.243-0.567,0.36-0.846
				c0.117-0.279,0.225-0.558,0.324-0.828c0.009-0.018,0.009-0.045,0.027-0.063c0.081-0.252,0.171-0.495,0.243-0.747
				c0.081-0.261,0.153-0.522,0.216-0.774c0.063-0.252,0.117-0.504,0.162-0.747c0.054-0.306,0.117-0.621,0.189-0.936
				c0.027-0.135,0.063-0.27,0.09-0.405c0-0.018,0.009-0.036,0.018-0.063c0.063-0.261,0.126-0.522,0.207-0.792
				c0.135-0.504,0.288-1.008,0.468-1.512c0.108-0.333,0.225-0.666,0.36-0.999c0-0.009,0-0.018,0.009-0.027
				c0.144-0.369,0.297-0.738,0.459-1.107c0.144-0.342,0.297-0.684,0.459-1.026c0.081-0.18,0.171-0.351,0.261-0.531
				c0.108-0.216,0.216-0.432,0.333-0.648c0.072-0.153,0.153-0.306,0.243-0.45c0.135-0.261,0.279-0.522,0.432-0.774L166.843,128.238z
				"/>
			<path id="XMLID_261_" style="fill:#27DEBF;" d="M123.163,201.184c0,0.009,0,0.009,0,0.009s0,0,0.009,0l0.009-0.009l0.009-0.009
				l2.854-2.278C124.873,199.807,123.325,201.022,123.163,201.184z"/>
			<path id="XMLID_257_" style="fill:#27DEBF;" d="M199.348,150.341c-0.017-0.008-0.033-0.016-0.05-0.025
				c-0.861-0.489-1.987-0.489-3.345,0.107c-4.794,2.112-6.243,2.807-9.083,3.933c-0.762,0.306-2.294,0.058-1.896-2.534
				c0-0.058,0.017-0.116,0.025-0.174l0.654-3.693l1.813-10.06c0,0,0.414-1.581-0.638-2.178c-0.025-0.017-0.05-0.025-0.074-0.041
				c-0.215-0.108-0.489-0.174-0.836-0.182c-1.01-0.025-2.153-0.72-2.997-1.913c-0.969-1.358-1.548-3.362-1.126-5.755
				c0.762-4.314-0.074-7.336-1.987-8.462c-0.05-0.033-0.099-0.066-0.149-0.091c-1.234-0.654-2.89-0.547-4.827,0.472
				c-5.109,2.683-10.267,10.632-11.526,17.769c-0.795,4.504-5.324,11.435-7.941,13.985c-2.625,2.567-2.799,4.686-2.799,4.686
				l-2.037,11.543l-0.654,3.693c-0.48,2.757-3.312,5.424-3.312,5.424l-10.532,7.899c-4.952,4.115-7.303,8.429-8.669,13.124
				c0,0-3.95,3.064-4.198,3.312c0,0.008,0,0.008,0,0.008c-0.008,0.008-0.008,0.008,0.008,0l0.008-0.008l1.35-0.77l72.725-41.806
				c0,0,0.836-0.455,1.018-0.571c0.182-0.108,3.113-2.882,3.113-2.882C201.261,152.768,200.565,151.07,199.348,150.341z
				 M178.333,129.128c-0.778,4.388-3.941,9.282-7.088,10.93c-2.169,1.134-3.751,0.43-4.281-1.565
				c-0.224-0.894-0.249-2.045-0.008-3.403c0.778-4.388,3.95-9.282,7.096-10.921c0.315-0.166,0.621-0.298,0.911-0.389
				C177.555,122.992,179.029,125.186,178.333,129.128z"/>
			<path id="XMLID_256_" style="fill:#27DEBF;" d="M123.172,201.191l74.078-42.584c0,0,0.84-0.459,1.021-0.569
				c0.18-0.11,3.113-2.888,3.113-2.888l-74.022,42.721C127.362,197.871,122.877,201.345,123.172,201.191z"/>
			<path id="XMLID_255_" style="opacity:0.3;" d="M123.172,201.191l74.078-42.584c0,0,0.84-0.459,1.021-0.569
				c0.18-0.11,3.113-2.888,3.113-2.888l-74.022,42.721C127.362,197.871,122.877,201.345,123.172,201.191z"/>
			<path id="XMLID_252_" style="fill:#27DEBF;" d="M174.963,123.779c-0.29,0.091-0.596,0.223-0.911,0.389
				c-3.146,1.639-6.318,6.533-7.096,10.921c-0.24,1.358-0.215,2.509,0.008,3.403c0.53,1.995,2.112,2.699,4.281,1.565
				c3.146-1.648,6.309-6.541,7.088-10.93C179.029,125.186,177.555,122.992,174.963,123.779z M167.156,138.406
				c-0.218-0.901-0.217-2.035,0.004-3.281c0.769-4.334,3.904-9.167,6.989-10.774c0.302-0.159,0.588-0.282,0.852-0.367
				c0.187,0.864,0.193,1.937-0.03,3.198c-0.77,4.389-3.941,9.282-7.088,10.93c-0.25,0.128-0.487,0.225-0.718,0.307
				C167.164,138.416,167.158,138.409,167.156,138.406z"/>
			<path id="XMLID_249_" style="opacity:0.4;" d="M174.963,123.779c-0.29,0.091-0.596,0.223-0.911,0.389
				c-3.146,1.639-6.318,6.533-7.096,10.921c-0.24,1.358-0.215,2.509,0.008,3.403c0.53,1.995,2.112,2.699,4.281,1.565
				c3.146-1.648,6.309-6.541,7.088-10.93C179.029,125.186,177.555,122.992,174.963,123.779z M167.156,138.406
				c-0.218-0.901-0.217-2.035,0.004-3.281c0.769-4.334,3.904-9.167,6.989-10.774c0.302-0.159,0.588-0.282,0.852-0.367
				c0.187,0.864,0.193,1.937-0.03,3.198c-0.77,4.389-3.941,9.282-7.088,10.93c-0.25,0.128-0.487,0.225-0.718,0.307
				C167.164,138.416,167.158,138.409,167.156,138.406z"/>
		</g>
		<g id="XMLID_214_">
			<g id="XMLID_226_">
				<g id="XMLID_241_">
					<g id="XMLID_244_">
						<path id="XMLID_245_" style="fill:#455A64;" d="M116.671,257.686c-0.161,0-0.315-0.039-0.452-0.119
							c-0.306-0.177-0.482-0.526-0.482-0.957v-4.309c0-0.726,0.474-1.547,1.102-1.909l3.732-2.154
							c0.375-0.216,0.764-0.237,1.07-0.062c0.306,0.177,0.482,0.526,0.482,0.958l0.001,4.309c0,0.724-0.474,1.545-1.102,1.909
							l-3.732,2.154C117.083,257.625,116.871,257.686,116.671,257.686z M121.185,248.953c-0.003,0.004-0.063,0.007-0.165,0.065
							l-3.732,2.154c-0.347,0.201-0.651,0.728-0.651,1.13v4.309c0,0.117,0.027,0.172,0.037,0.182
							c0.003-0.003,0.064-0.007,0.165-0.065l3.731-2.154c0.347-0.201,0.652-0.73,0.652-1.13l-0.001-4.309
							C121.222,249.018,121.195,248.963,121.185,248.953z"/>
					</g>
					<g id="XMLID_242_">
						<path id="XMLID_243_" style="fill:#E0E0E0;" d="M125.292,247.615l14.702-8.488c0.484-0.28,0.877-0.053,0.877,0.506v1.141
							c0,0.559-0.393,1.239-0.877,1.519l-14.702,8.488c-0.484,0.28-0.877,0.053-0.877-0.506l0-1.141
							C124.415,248.575,124.808,247.895,125.292,247.615z"/>
					</g>
				</g>
				<g id="XMLID_234_">
					<g id="XMLID_237_">
						<path id="XMLID_238_" style="fill:#455A64;" d="M153.098,236.656c-0.161,0-0.315-0.04-0.452-0.119
							c-0.306-0.177-0.482-0.526-0.482-0.957l-0.001-4.309c0-0.725,0.474-1.546,1.102-1.909l3.731-2.154
							c0.376-0.215,0.768-0.238,1.071-0.061c0.306,0.177,0.482,0.526,0.482,0.957v4.309c0,0.726-0.474,1.546-1.102,1.909
							l-3.731,2.154C153.511,236.595,153.299,236.656,153.098,236.656z M157.613,227.923c-0.003,0.003-0.064,0.007-0.165,0.066
							l-3.731,2.153c-0.347,0.201-0.652,0.729-0.652,1.13l0.001,4.309c0,0.117,0.027,0.171,0.037,0.182
							c0.003-0.003,0.064-0.007,0.165-0.065l3.731-2.154c0.347-0.2,0.651-0.728,0.651-1.13v-4.309
							C157.65,227.988,157.622,227.933,157.613,227.923z"/>
					</g>
					<g id="XMLID_235_">
						<path id="XMLID_236_" style="fill:#E0E0E0;" d="M161.719,226.585l14.702-8.488c0.484-0.28,0.877-0.053,0.877,0.506v1.141
							c0,0.559-0.393,1.239-0.877,1.519l-14.702,8.488c-0.484,0.28-0.877,0.053-0.877-0.506l0-1.141
							C160.842,227.545,161.235,226.865,161.719,226.585z"/>
					</g>
				</g>
				<g id="XMLID_227_">
					<g id="XMLID_230_">
						<path id="XMLID_231_" style="fill:#455A64;" d="M189.525,215.626c-0.161,0-0.315-0.04-0.451-0.119
							c-0.306-0.177-0.482-0.526-0.482-0.958l-0.001-4.309c0-0.724,0.474-1.545,1.102-1.909h0.001l3.731-2.154
							c0.373-0.215,0.763-0.239,1.071-0.061c0.306,0.177,0.482,0.527,0.482,0.958v4.308c0,0.725-0.474,1.547-1.103,1.909
							l-3.731,2.154C189.937,215.565,189.724,215.626,189.525,215.626z M190.144,209.112c-0.347,0.202-0.652,0.73-0.652,1.13
							l0.001,4.309c0,0.117,0.027,0.172,0.037,0.182c0.002-0.003,0.063-0.007,0.164-0.065l3.731-2.154
							c0.347-0.201,0.652-0.729,0.652-1.13v-4.308c0-0.117-0.027-0.172-0.037-0.183c-0.003,0.004-0.064,0.007-0.165,0.065
							L190.144,209.112z"/>
					</g>
					<g id="XMLID_228_">
						<path id="XMLID_229_" style="fill:#E0E0E0;" d="M198.147,205.556l14.701-8.488c0.484-0.28,0.877-0.053,0.877,0.506v1.141
							c0,0.559-0.393,1.24-0.877,1.519l-14.702,8.488c-0.484,0.28-0.877,0.053-0.877-0.506l0-1.141
							C197.27,206.515,197.662,205.835,198.147,205.556z"/>
					</g>
				</g>
			</g>
			<g id="XMLID_218_">
				<g id="XMLID_220_">
					<g id="XMLID_221_">
						<path id="XMLID_225_" style="fill:#E0E0E0;" d="M125.327,226.576v1.685c0,0.915,0.642,1.285,1.434,0.828l85.956-49.611
							c0.792-0.457,1.434-1.569,1.434-2.484v-1.691c0-0.915-0.642-1.285-1.434-0.828l-85.956,49.617
							C125.969,224.549,125.327,225.661,125.327,226.576z"/>
						<path id="XMLID_224_" style="fill:#455A64;" d="M118.783,213.455v1.686c0,0.915,0.642,1.285,1.434,0.828l85.956-49.611
							c0.792-0.457,1.434-1.569,1.434-2.484v-1.691c0-0.914-0.642-1.285-1.434-0.828l-85.956,49.617
							C119.425,211.429,118.783,212.541,118.783,213.455z"/>
						<path id="XMLID_223_" style="fill:#E0E0E0;" d="M125.327,236.754v1.685c0,0.915,0.642,1.285,1.434,0.828l85.956-49.611
							c0.792-0.457,1.434-1.569,1.434-2.484v-1.691c0-0.915-0.642-1.285-1.434-0.828l-85.956,49.617
							C125.969,234.727,125.327,235.839,125.327,236.754z"/>
					</g>
				</g>
			</g>
			<g id="XMLID_215_">
				<path id="XMLID_217_" style="fill:#455A64;" d="M115.913,237.622c2.244-2.231,2.805-3.178,2.805-4.009
					c0-0.727-0.327-1.266-1.34-0.681c-0.966,0.558-1.387,1.32-1.668,2.397l-2.463,0.549c0.468-2.577,1.995-5.017,4.208-6.295
					c2.462-1.422,3.896-0.359,3.896,2.052c0,2.556-1.496,4.646-2.806,6.046v1.953l-2.634,1.521V237.622z"/>
				<path id="XMLID_216_" style="fill:#455A64;" d="M115.882,244.101c0-0.914,0.452-1.882,1.34-2.395
					c0.873-0.504,1.325-0.058,1.325,0.856c0,0.914-0.436,1.894-1.325,2.407C116.334,245.482,115.882,245.015,115.882,244.101z"/>
			</g>
		</g>
		<path id="XMLID_213_" style="fill:#27DEBF;" d="M117.251,252.302l1.099,0.831l-0.992,1.895c-0.159,0.303-0.139,0.662,0.045,0.8
			c0.183,0.139,0.461,0.005,0.619-0.298l0.992-1.894l1.099,0.831c0.158,0.12,0.397,0.004,0.534-0.257
			c0.137-0.262,0.12-0.57-0.038-0.69l-1.099-0.831l0.992-1.895c0.159-0.303,0.139-0.662-0.045-0.8
			c-0.183-0.139-0.461-0.005-0.619,0.298l-0.992,1.895l-1.099-0.831c-0.158-0.12-0.397-0.004-0.534,0.257
			C117.076,251.874,117.093,252.183,117.251,252.302z"/>
		<g id="XMLID_182_">
			<g id="XMLID_191_">
				<g id="XMLID_206_">
					<g id="XMLID_209_">
						<path id="XMLID_210_" style="fill:#455A64;" d="M116.671,295.665c-0.161,0-0.315-0.04-0.452-0.119
							c-0.306-0.177-0.482-0.526-0.482-0.957v-4.309c0-0.726,0.474-1.547,1.102-1.909l3.732-2.154
							c0.375-0.216,0.764-0.237,1.07-0.061c0.306,0.177,0.482,0.526,0.482,0.957l0.001,4.309c0,0.725-0.474,1.545-1.102,1.909
							l-3.732,2.154C117.083,295.604,116.871,295.665,116.671,295.665z M121.185,286.931c-0.003,0.004-0.063,0.007-0.165,0.065
							l-3.732,2.154c-0.347,0.2-0.651,0.728-0.651,1.13v4.309c0,0.117,0.027,0.171,0.037,0.182c0.003-0.003,0.064-0.007,0.165-0.065
							l3.731-2.154c0.347-0.201,0.652-0.73,0.652-1.13l-0.001-4.309C121.222,286.996,121.195,286.942,121.185,286.931z"/>
					</g>
					<g id="XMLID_207_">
						<path id="XMLID_208_" style="fill:#E0E0E0;" d="M125.292,285.594l14.702-8.488c0.484-0.28,0.877-0.053,0.877,0.506v1.141
							c0,0.559-0.393,1.24-0.877,1.519l-14.702,8.488c-0.484,0.28-0.877,0.053-0.877-0.506l0-1.141
							C124.415,286.554,124.808,285.874,125.292,285.594z"/>
					</g>
				</g>
				<g id="XMLID_199_">
					<g id="XMLID_202_">
						<path id="XMLID_203_" style="fill:#455A64;" d="M153.098,274.635c-0.161,0-0.315-0.039-0.452-0.119
							c-0.306-0.177-0.482-0.526-0.482-0.957l-0.001-4.309c0-0.725,0.474-1.546,1.102-1.909l3.731-2.154
							c0.376-0.216,0.768-0.238,1.071-0.062c0.306,0.177,0.482,0.526,0.482,0.957v4.309c0,0.726-0.474,1.546-1.102,1.909
							l-3.731,2.154C153.511,274.574,153.299,274.635,153.098,274.635z M157.613,265.901c-0.003,0.004-0.064,0.007-0.165,0.066
							l-3.731,2.153c-0.347,0.201-0.652,0.729-0.652,1.13l0.001,4.309c0,0.117,0.027,0.171,0.037,0.182
							c0.003-0.004,0.064-0.007,0.165-0.065l3.731-2.154c0.347-0.2,0.651-0.728,0.651-1.13v-4.309
							C157.65,265.966,157.622,265.912,157.613,265.901z"/>
					</g>
					<g id="XMLID_200_">
						<path id="XMLID_201_" style="fill:#E0E0E0;" d="M161.719,264.564l14.702-8.488c0.484-0.28,0.877-0.053,0.877,0.506v1.141
							c0,0.559-0.393,1.239-0.877,1.519l-14.702,8.488c-0.484,0.28-0.877,0.053-0.877-0.506l0-1.141
							C160.842,265.524,161.235,264.844,161.719,264.564z"/>
					</g>
				</g>
				<g id="XMLID_192_">
					<g id="XMLID_195_">
						<path id="XMLID_196_" style="fill:#455A64;" d="M189.525,253.605c-0.161,0-0.315-0.04-0.451-0.119
							c-0.306-0.177-0.482-0.526-0.482-0.957l-0.001-4.309c0-0.724,0.474-1.545,1.102-1.909h0.001l3.731-2.154
							c0.373-0.215,0.763-0.239,1.071-0.061c0.306,0.177,0.482,0.527,0.482,0.958v4.308c0,0.725-0.474,1.546-1.103,1.909
							l-3.731,2.154C189.937,253.544,189.724,253.605,189.525,253.605z M190.144,247.09c-0.347,0.202-0.652,0.73-0.652,1.13
							l0.001,4.309c0,0.117,0.027,0.172,0.037,0.182c0.002-0.003,0.063-0.007,0.164-0.065l3.731-2.154
							c0.347-0.201,0.652-0.729,0.652-1.13v-4.308c0-0.117-0.027-0.172-0.037-0.183c-0.003,0.003-0.064,0.007-0.165,0.065
							L190.144,247.09z"/>
					</g>
					<g id="XMLID_193_">
						<path id="XMLID_194_" style="fill:#E0E0E0;" d="M198.147,243.534l14.701-8.488c0.484-0.28,0.877-0.053,0.877,0.506v1.141
							c0,0.559-0.393,1.239-0.877,1.519l-14.702,8.488c-0.484,0.28-0.877,0.053-0.877-0.506l0-1.141
							C197.27,244.494,197.662,243.814,198.147,243.534z"/>
					</g>
				</g>
			</g>
			<g id="XMLID_186_">
				<g id="XMLID_187_">
					<g id="XMLID_188_">
						<path id="XMLID_190_" style="fill:#E0E0E0;" d="M125.327,264.554v1.685c0,0.915,0.642,1.285,1.434,0.828l85.956-49.611
							c0.792-0.457,1.434-1.569,1.434-2.484v-1.691c0-0.915-0.642-1.285-1.434-0.828l-85.956,49.617
							C125.969,262.527,125.327,263.64,125.327,264.554z"/>
						<path id="XMLID_189_" style="fill:#E0E0E0;" d="M125.327,274.732v1.685c0,0.915,0.642,1.285,1.434,0.828l85.956-49.611
							c0.792-0.457,1.434-1.569,1.434-2.484v-1.691c0-0.915-0.642-1.285-1.434-0.828l-85.956,49.617
							C125.969,272.706,125.327,273.818,125.327,274.732z"/>
					</g>
				</g>
			</g>
			<g id="XMLID_183_">
				<path id="XMLID_185_" style="fill:#455A64;" d="M115.913,275.6c2.244-2.231,2.805-3.178,2.805-4.009
					c0-0.727-0.327-1.266-1.34-0.681c-0.966,0.558-1.387,1.32-1.668,2.397l-2.463,0.549c0.468-2.577,1.995-5.017,4.208-6.295
					c2.462-1.422,3.896-0.358,3.896,2.052c0,2.556-1.496,4.646-2.806,6.046v1.953l-2.634,1.521V275.6z"/>
				<path id="XMLID_184_" style="fill:#455A64;" d="M115.882,282.08c0-0.914,0.452-1.882,1.34-2.395
					c0.873-0.504,1.325-0.058,1.325,0.856c0,0.914-0.436,1.894-1.325,2.407C116.334,283.46,115.882,282.994,115.882,282.08z"/>
			</g>
		</g>
		<path id="XMLID_181_" style="fill:#27DEBF;" d="M153.678,269.213l1.099,0.831l-0.992,1.895c-0.159,0.303-0.139,0.662,0.045,0.8
			c0.183,0.139,0.461,0.005,0.619-0.298l0.992-1.895l1.099,0.831c0.158,0.12,0.397,0.004,0.534-0.257
			c0.137-0.262,0.12-0.57-0.038-0.69l-1.099-0.831l0.992-1.894c0.159-0.303,0.139-0.662-0.045-0.8
			c-0.183-0.138-0.461-0.005-0.619,0.298l-0.992,1.895l-1.099-0.831c-0.158-0.119-0.397-0.004-0.534,0.257
			C153.503,268.785,153.52,269.094,153.678,269.213z"/>
		<g id="XMLID_150_">
			<g id="XMLID_159_">
				<g id="XMLID_174_">
					<g id="XMLID_177_">
						<path id="XMLID_178_" style="fill:#455A64;" d="M116.671,333.643c-0.161,0-0.315-0.039-0.452-0.119
							c-0.306-0.177-0.482-0.526-0.482-0.957v-4.309c0-0.726,0.474-1.546,1.102-1.909l3.732-2.154
							c0.375-0.216,0.764-0.237,1.07-0.062c0.306,0.177,0.482,0.526,0.482,0.957l0.001,4.309c0,0.724-0.474,1.545-1.102,1.909
							l-3.732,2.154C117.083,333.583,116.871,333.643,116.671,333.643z M121.185,324.91c-0.003,0.004-0.063,0.007-0.165,0.065
							l-3.732,2.154c-0.347,0.2-0.651,0.728-0.651,1.13v4.309c0,0.117,0.027,0.171,0.037,0.182c0.003-0.004,0.064-0.007,0.165-0.065
							l3.731-2.154c0.347-0.201,0.652-0.73,0.652-1.13l-0.001-4.309C121.222,324.975,121.195,324.921,121.185,324.91z"/>
					</g>
					<g id="XMLID_175_">
						<path id="XMLID_176_" style="fill:#E0E0E0;" d="M125.292,323.573l14.702-8.488c0.484-0.28,0.877-0.053,0.877,0.506v1.141
							c0,0.559-0.393,1.24-0.877,1.519l-14.702,8.488c-0.484,0.28-0.877,0.053-0.877-0.506l0-1.141
							C124.415,324.532,124.808,323.852,125.292,323.573z"/>
					</g>
				</g>
				<g id="XMLID_167_">
					<g id="XMLID_170_">
						<path id="XMLID_171_" style="fill:#455A64;" d="M153.098,312.613c-0.161,0-0.315-0.04-0.452-0.119
							c-0.306-0.177-0.482-0.526-0.482-0.957l-0.001-4.309c0-0.725,0.474-1.546,1.102-1.909l3.731-2.154
							c0.376-0.215,0.768-0.238,1.071-0.062c0.306,0.177,0.482,0.526,0.482,0.957v4.309c0,0.726-0.474,1.546-1.102,1.909
							l-3.731,2.154C153.511,312.553,153.299,312.613,153.098,312.613z M157.613,303.88c-0.003,0.004-0.064,0.007-0.165,0.066
							l-3.731,2.153c-0.347,0.201-0.652,0.729-0.652,1.13l0.001,4.309c0,0.117,0.027,0.172,0.037,0.182
							c0.003-0.004,0.064-0.007,0.165-0.065l3.731-2.154c0.347-0.2,0.651-0.728,0.651-1.13v-4.309
							C157.65,303.945,157.622,303.891,157.613,303.88z"/>
					</g>
					<g id="XMLID_168_">
						<path id="XMLID_169_" style="fill:#E0E0E0;" d="M161.719,302.543l14.702-8.488c0.484-0.28,0.877-0.053,0.877,0.506v1.141
							c0,0.559-0.393,1.24-0.877,1.519l-14.702,8.488c-0.484,0.28-0.877,0.053-0.877-0.506l0-1.141
							C160.842,303.503,161.235,302.823,161.719,302.543z"/>
					</g>
				</g>
				<g id="XMLID_160_">
					<g id="XMLID_163_">
						<path id="XMLID_164_" style="fill:#455A64;" d="M189.525,291.583c-0.161,0-0.315-0.04-0.451-0.119
							c-0.306-0.177-0.482-0.526-0.482-0.957l-0.001-4.309c0-0.724,0.474-1.545,1.102-1.909h0.001l3.731-2.154
							c0.373-0.215,0.763-0.239,1.071-0.062c0.306,0.177,0.482,0.527,0.482,0.958v4.308c0,0.725-0.474,1.546-1.103,1.909
							l-3.731,2.154C189.937,291.523,189.724,291.583,189.525,291.583z M190.144,285.069c-0.347,0.202-0.652,0.73-0.652,1.13
							l0.001,4.309c0,0.117,0.027,0.172,0.037,0.182c0.002-0.004,0.063-0.007,0.164-0.065l3.731-2.154
							c0.347-0.201,0.652-0.729,0.652-1.13v-4.308c0-0.117-0.027-0.172-0.037-0.183c-0.003,0.003-0.064,0.007-0.165,0.065
							L190.144,285.069z"/>
					</g>
					<g id="XMLID_161_">
						<path id="XMLID_162_" style="fill:#E0E0E0;" d="M198.147,281.513l14.701-8.488c0.484-0.28,0.877-0.053,0.877,0.506v1.141
							c0,0.559-0.393,1.24-0.877,1.519l-14.702,8.488c-0.484,0.28-0.877,0.053-0.877-0.506l0-1.141
							C197.27,282.473,197.662,281.793,198.147,281.513z"/>
					</g>
				</g>
			</g>
			<g id="XMLID_154_">
				<g id="XMLID_155_">
					<g id="XMLID_156_">
						<path id="XMLID_158_" style="fill:#E0E0E0;" d="M125.327,302.533v1.685c0,0.915,0.642,1.285,1.434,0.828l85.956-49.611
							c0.792-0.457,1.434-1.569,1.434-2.484v-1.691c0-0.915-0.642-1.285-1.434-0.828l-85.956,49.617
							C125.969,300.506,125.327,301.618,125.327,302.533z"/>
						<path id="XMLID_157_" style="fill:#E0E0E0;" d="M125.327,312.711v1.686c0,0.915,0.642,1.285,1.434,0.828l85.956-49.612
							c0.792-0.457,1.434-1.569,1.434-2.484v-1.691c0-0.915-0.642-1.285-1.434-0.828l-85.956,49.617
							C125.969,310.684,125.327,311.797,125.327,312.711z"/>
					</g>
				</g>
			</g>
			<g id="XMLID_151_">
				<path id="XMLID_153_" style="fill:#455A64;" d="M115.913,313.579c2.244-2.231,2.805-3.178,2.805-4.009
					c0-0.727-0.327-1.266-1.34-0.681c-0.966,0.558-1.387,1.32-1.668,2.397l-2.463,0.549c0.468-2.577,1.995-5.017,4.208-6.295
					c2.462-1.422,3.896-0.359,3.896,2.052c0,2.556-1.496,4.646-2.806,6.046v1.953l-2.634,1.521V313.579z"/>
				<path id="XMLID_152_" style="fill:#455A64;" d="M115.882,320.058c0-0.914,0.452-1.882,1.34-2.395
					c0.873-0.504,1.325-0.058,1.325,0.856c0,0.914-0.436,1.894-1.325,2.406C116.334,321.439,115.882,320.973,115.882,320.058z"/>
			</g>
		</g>
		<path id="XMLID_149_" style="fill:#27DEBF;" d="M190.105,286.161l1.099,0.831l-0.992,1.895c-0.159,0.303-0.139,0.662,0.045,0.8
			c0.183,0.139,0.461,0.005,0.62-0.298l0.992-1.895l1.099,0.831c0.158,0.12,0.397,0.004,0.534-0.257
			c0.137-0.262,0.12-0.57-0.038-0.69l-1.099-0.831l0.992-1.894c0.159-0.303,0.139-0.662-0.045-0.8
			c-0.183-0.139-0.461-0.005-0.619,0.298l-0.992,1.895l-1.099-0.831c-0.158-0.119-0.397-0.004-0.534,0.257
			C189.93,285.733,189.947,286.042,190.105,286.161z"/>
		<g id="XMLID_118_">
			<g id="XMLID_127_">
				<g id="XMLID_142_">
					<g id="XMLID_145_">
						<path id="XMLID_146_" style="fill:#455A64;" d="M116.671,371.622c-0.161,0-0.315-0.04-0.452-0.119
							c-0.306-0.177-0.482-0.526-0.482-0.957v-4.309c0-0.726,0.474-1.546,1.102-1.909l3.732-2.154
							c0.375-0.216,0.764-0.237,1.07-0.062c0.306,0.177,0.482,0.526,0.482,0.957l0.001,4.309c0,0.724-0.474,1.545-1.102,1.909
							l-3.732,2.154C117.083,371.561,116.871,371.622,116.671,371.622z M121.185,362.889c-0.003,0.004-0.063,0.007-0.165,0.065
							l-3.732,2.154c-0.347,0.201-0.651,0.728-0.651,1.13v4.309c0,0.117,0.027,0.171,0.037,0.182
							c0.003-0.004,0.064-0.007,0.165-0.065l3.731-2.154c0.347-0.201,0.652-0.73,0.652-1.13l-0.001-4.309
							C121.222,362.954,121.195,362.899,121.185,362.889z"/>
					</g>
					<g id="XMLID_143_">
						<path id="XMLID_144_" style="fill:#E0E0E0;" d="M125.292,361.551l14.702-8.488c0.484-0.28,0.877-0.053,0.877,0.506v1.141
							c0,0.559-0.393,1.24-0.877,1.519l-14.702,8.488c-0.484,0.28-0.877,0.053-0.877-0.506l0-1.141
							C124.415,362.511,124.808,361.831,125.292,361.551z"/>
					</g>
				</g>
				<g id="XMLID_135_">
					<g id="XMLID_138_">
						<path id="XMLID_139_" style="fill:#455A64;" d="M153.098,350.592c-0.161,0-0.315-0.04-0.452-0.119
							c-0.306-0.177-0.482-0.526-0.482-0.957l-0.001-4.309c0-0.725,0.474-1.546,1.102-1.909l3.731-2.154
							c0.376-0.215,0.768-0.238,1.071-0.062c0.306,0.177,0.482,0.526,0.482,0.957v4.309c0,0.726-0.474,1.546-1.102,1.909
							l-3.731,2.154C153.511,350.531,153.299,350.592,153.098,350.592z M157.613,341.859c-0.003,0.003-0.064,0.007-0.165,0.066
							l-3.731,2.153c-0.347,0.201-0.652,0.729-0.652,1.13l0.001,4.309c0,0.117,0.027,0.171,0.037,0.182
							c0.003-0.004,0.064-0.007,0.165-0.065l3.731-2.154c0.347-0.201,0.651-0.728,0.651-1.13v-4.309
							C157.65,341.924,157.622,341.869,157.613,341.859z"/>
					</g>
					<g id="XMLID_136_">
						<path id="XMLID_137_" style="fill:#E0E0E0;" d="M161.719,340.521l14.702-8.488c0.484-0.28,0.877-0.053,0.877,0.506v1.141
							c0,0.559-0.393,1.239-0.877,1.519l-14.702,8.488c-0.484,0.28-0.877,0.053-0.877-0.506l0-1.141
							C160.842,341.481,161.235,340.801,161.719,340.521z"/>
					</g>
				</g>
				<g id="XMLID_128_">
					<g id="XMLID_131_">
						<path id="XMLID_132_" style="fill:#455A64;" d="M189.525,329.562c-0.161,0-0.315-0.04-0.451-0.119
							c-0.306-0.177-0.482-0.526-0.482-0.957l-0.001-4.309c0-0.725,0.474-1.545,1.102-1.909h0.001l3.731-2.154
							c0.373-0.215,0.763-0.239,1.071-0.061c0.306,0.177,0.482,0.527,0.482,0.958v4.308c0,0.725-0.474,1.546-1.103,1.909
							l-3.731,2.154C189.937,329.501,189.724,329.562,189.525,329.562z M190.144,323.047c-0.347,0.202-0.652,0.73-0.652,1.13
							l0.001,4.309c0,0.117,0.027,0.172,0.037,0.182c0.002-0.004,0.063-0.007,0.164-0.065l3.731-2.154
							c0.347-0.201,0.652-0.729,0.652-1.13v-4.308c0-0.117-0.027-0.172-0.037-0.183c-0.003,0.003-0.064,0.007-0.165,0.065
							L190.144,323.047z"/>
					</g>
					<g id="XMLID_129_">
						<path id="XMLID_130_" style="fill:#E0E0E0;" d="M198.147,319.492l14.701-8.488c0.484-0.28,0.877-0.053,0.877,0.506v1.141
							c0,0.559-0.393,1.24-0.877,1.519l-14.702,8.488c-0.484,0.28-0.877,0.053-0.877-0.506l0-1.141
							C197.27,320.451,197.662,319.771,198.147,319.492z"/>
					</g>
				</g>
			</g>
			<g id="XMLID_122_">
				<g id="XMLID_123_">
					<g id="XMLID_124_">
						<path id="XMLID_126_" style="fill:#E0E0E0;" d="M125.327,340.512v1.685c0,0.915,0.642,1.285,1.434,0.828l85.956-49.611
							c0.792-0.457,1.434-1.569,1.434-2.484v-1.691c0-0.915-0.642-1.285-1.434-0.828l-85.956,49.617
							C125.969,338.485,125.327,339.597,125.327,340.512z"/>
						<path id="XMLID_125_" style="fill:#E0E0E0;" d="M125.327,350.69v1.686c0,0.914,0.642,1.285,1.434,0.828l85.956-49.611
							c0.792-0.457,1.434-1.569,1.434-2.484v-1.691c0-0.915-0.642-1.285-1.434-0.828l-85.956,49.617
							C125.969,348.663,125.327,349.775,125.327,350.69z"/>
					</g>
				</g>
			</g>
			<g id="XMLID_119_">
				<path id="XMLID_121_" style="fill:#455A64;" d="M115.913,351.558c2.244-2.231,2.805-3.178,2.805-4.009
					c0-0.727-0.327-1.266-1.34-0.681c-0.966,0.558-1.387,1.32-1.668,2.397l-2.463,0.549c0.468-2.577,1.995-5.017,4.208-6.295
					c2.462-1.422,3.896-0.358,3.896,2.052c0,2.556-1.496,4.646-2.806,6.046v1.953l-2.634,1.521V351.558z"/>
				<path id="XMLID_120_" style="fill:#455A64;" d="M115.882,358.037c0-0.914,0.452-1.882,1.34-2.395
					c0.873-0.504,1.325-0.058,1.325,0.856c0,0.914-0.436,1.894-1.325,2.406C116.334,359.418,115.882,358.951,115.882,358.037z"/>
			</g>
		</g>
		<path id="XMLID_117_" style="fill:#27DEBF;" d="M190.105,324.302l1.099,0.831l-0.992,1.895c-0.159,0.303-0.139,0.662,0.045,0.8
			c0.183,0.139,0.461,0.005,0.62-0.298l0.992-1.895l1.099,0.831c0.158,0.12,0.397,0.004,0.534-0.257
			c0.137-0.262,0.12-0.57-0.038-0.69l-1.099-0.831l0.992-1.894c0.159-0.303,0.139-0.662-0.045-0.8
			c-0.183-0.139-0.461-0.005-0.619,0.298l-0.992,1.895l-1.099-0.831c-0.158-0.119-0.397-0.004-0.534,0.257
			C189.93,323.873,189.947,324.182,190.105,324.302z"/>
	</g>
</g>
<g id="Sad_Face_1_">
	<g id="Sad_Face_2_">
		<g id="XMLID_554_">
			<g id="XMLID_558_">
				<path id="XMLID_563_" style="fill:#27DEBF;" d="M287.53,162.463l-7.353-4.244c0,0-0.008,0-0.015,0l-0.076-0.046l-0.008,0.015
					c-3.656-2.064-8.669-1.76-14.222,1.447c-5.195,2.994-9.933,7.991-13.506,13.772c-4.129,6.658-6.726,14.366-6.726,21.275
					c0,6.444,2.255,10.969,5.904,13.087v0.008l0.023,0.008l7.465,4.264c3.687,2.35,8.892,2.142,14.666-1.191
					c11.176-6.453,20.237-22.145,20.238-35.051C293.921,169.088,291.462,164.456,287.53,162.463z"/>
				<g id="XMLID_560_">
					<path id="XMLID_562_" style="opacity:0.1;" d="M258.871,211.966l-7.322-4.184l-0.023-0.008v-0.008
						c-3.649-2.115-5.902-6.642-5.902-13.086c0-6.909,2.596-14.613,6.726-21.27l7.81,4.505c-4.13,6.657-6.718,14.353-6.718,21.255
						C253.443,205.331,255.504,209.736,258.871,211.966z"/>
					<path id="XMLID_561_" style="opacity:0.4;fill:#FFFFFF;" d="M287.379,162.379c-3.603-1.748-8.413-1.306-13.697,1.741
						c-5.199,3.008-9.94,8.009-13.521,13.796l-7.81-4.505c3.573-5.787,8.314-10.78,13.506-13.773
						c5.55-3.207,10.566-3.512,14.223-1.451l0.008-0.015l0.076,0.046c0.008,0,0.015,0,0.015,0L287.379,162.379z"/>
				</g>
			</g>
		</g>
		<g id="XMLID_299_">
			<path id="XMLID_338_" style="fill:#455A64;" d="M269.207,181.462c0,1.631-0.859,3.448-1.918,4.06
				c-1.059,0.611-1.918-0.215-1.918-1.845c0-1.631,0.859-3.448,1.918-4.06C268.348,179.006,269.207,179.832,269.207,181.462z"/>
			<path id="XMLID_337_" style="fill:#455A64;" d="M280.135,175.153c0,1.631-0.859,3.448-1.918,4.06
				c-1.059,0.612-1.918-0.215-1.918-1.845c0-1.631,0.859-3.448,1.918-4.06C279.277,172.696,280.135,173.522,280.135,175.153z"/>
		</g>
		<g id="XMLID_222_">
			<path id="XMLID_279_" style="fill:#455A64;" d="M262.679,205.837c-0.076,0-0.152-0.008-0.229-0.024
				c-0.596-0.126-0.977-0.711-0.851-1.307c1.744-8.264,6.173-15.509,11.281-18.458c2.503-1.445,4.97-1.74,7.138-0.856
				c2.417,0.986,4.273,3.409,5.227,6.824c0.164,0.587-0.179,1.195-0.765,1.358c-0.586,0.164-1.195-0.179-1.358-0.765
				c-0.767-2.744-2.165-4.653-3.937-5.376c-1.513-0.616-3.311-0.367-5.202,0.724c-4.521,2.609-8.63,9.443-10.226,17.004
				C263.647,205.481,263.189,205.837,262.679,205.837z"/>
		</g>
	</g>
</g>
<g id="Happy_Face">
	<g id="Happy_Face_2_">
		<g id="XMLID_100_">
			<g id="XMLID_101_">
				<path id="XMLID_105_" style="fill:#27DEBF;" d="M287.53,98.483l-7.353-4.244c0,0-0.008,0-0.015,0l-0.076-0.046l-0.008,0.015
					c-3.656-2.064-8.669-1.76-14.222,1.447c-5.195,2.994-9.933,7.991-13.506,13.772c-4.129,6.658-6.726,14.366-6.726,21.275
					c0,6.444,2.255,10.969,5.904,13.087v0.008l0.023,0.008l7.465,4.264c3.687,2.35,8.892,2.142,14.666-1.192
					c11.176-6.453,20.237-22.145,20.238-35.051C293.921,105.108,291.462,100.475,287.53,98.483z"/>
				<g id="XMLID_102_">
					<path id="XMLID_104_" style="opacity:0.1;" d="M258.871,147.986l-7.322-4.184l-0.023-0.008v-0.008
						c-3.649-2.115-5.902-6.642-5.902-13.086c0-6.909,2.596-14.613,6.726-21.27l7.81,4.504c-4.13,6.657-6.718,14.353-6.718,21.255
						C253.443,141.351,255.504,145.757,258.871,147.986z"/>
					<path id="XMLID_103_" style="opacity:0.4;fill:#FFFFFF;" d="M287.379,98.399c-3.603-1.748-8.413-1.306-13.697,1.741
						c-5.199,3.008-9.94,8.009-13.521,13.796l-7.81-4.504c3.573-5.787,8.314-10.78,13.506-13.773
						c5.55-3.207,10.566-3.512,14.223-1.451l0.008-0.015l0.076,0.046c0.008,0,0.015,0,0.015,0L287.379,98.399z"/>
				</g>
			</g>
		</g>
		<g id="XMLID_94_">
			<g id="XMLID_98_">
				<path id="XMLID_99_" style="fill:#455A64;" d="M269.086,138.687c-0.958,0-1.884-0.179-2.766-0.538
					c-2.608-1.064-4.612-3.679-5.641-7.364c-0.177-0.633,0.192-1.29,0.825-1.467c0.633-0.179,1.29,0.193,1.467,0.825
					c0.828,2.961,2.337,5.021,4.249,5.802c1.633,0.668,3.576,0.397,5.616-0.781c4.878-2.817,9.314-10.192,11.037-18.351
					c0.135-0.644,0.771-1.052,1.41-0.919c0.643,0.136,1.054,0.767,0.919,1.41c-1.883,8.918-6.663,16.738-12.176,19.921
					C272.342,138.197,270.672,138.687,269.086,138.687z"/>
			</g>
			<g id="XMLID_95_">
				<path id="XMLID_97_" style="fill:#455A64;" d="M268.869,118.892c0,1.761-0.927,3.724-2.071,4.384
					c-1.144,0.66-2.071-0.232-2.071-1.993c0-1.761,0.927-3.724,2.071-4.384C267.942,116.239,268.869,117.131,268.869,118.892z"/>
				<path id="XMLID_96_" style="fill:#455A64;" d="M280.671,112.078c0,1.761-0.927,3.724-2.071,4.384
					c-1.144,0.66-2.071-0.232-2.071-1.993c0-1.761,0.927-3.724,2.071-4.385C279.744,109.425,280.671,110.317,280.671,112.078z"/>
			</g>
		</g>
	</g>
</g>
<g id="Chart_1_">
	<g id="Chart">
		<g id="XMLID_596_">
			<path id="XMLID_801_" style="fill:#455A64;" d="M302.568,278.563l-53.002,30.601c-0.949,0.548-2.489,0.548-3.438,0l-2.804-1.635
				c-0.949-0.548-1.719-1.881-1.719-2.978v-61.202c0-1.096,0.77-2.429,1.719-2.977l53.002-30.6c0.949-0.548,2.489-0.548,3.438,0
				l2.804,1.636c0.949,0.548,1.719,1.881,1.719,2.977v61.202C304.287,276.681,303.517,278.014,302.568,278.563z"/>
			<path id="XMLID_934_" style="fill:#263238;" d="M249.281,309.294c-0.954,0.405-2.296,0.36-3.151-0.135l-2.805-1.635
				c-0.954-0.54-1.719-1.882-1.719-2.971v-61.208c0-0.549,0.189-1.152,0.504-1.692l6.244,3.625c-0.315,0.54-0.504,1.143-0.504,1.692
				v61.199C247.85,309.15,248.462,309.609,249.281,309.294z"/>
			<path id="XMLID_799_" style="fill:#37474F;" d="M302.568,278.563l-53.002,30.601c-0.949,0.548-1.719,0.104-1.719-0.993v-61.202
				c0-1.096,0.77-2.429,1.719-2.977l53.002-30.601c0.949-0.548,1.719-0.104,1.719,0.992v61.202
				C304.287,276.681,303.517,278.014,302.568,278.563z"/>
			<g id="XMLID_598_">
				<g id="XMLID_688_">
					<g id="XMLID_751_">
						<g id="XMLID_798_">
							<path id="XMLID_3703_" style="fill-rule:evenodd;clip-rule:evenodd;fill:#27DEBF;" d="M274.625,263.307l-14.403,20.4
								c6.354,6.43,18.594,1.601,27.339-10.784c5.247-7.431,8.068-15.453,8.068-22.942l-17.424,10.06
								C277.018,260.725,275.415,262.188,274.625,263.307z"/>
							<path id="XMLID_834_" style="opacity:0.3;fill-rule:evenodd;clip-rule:evenodd;" d="M274.625,263.307l-14.403,20.4
								c6.354,6.43,18.594,1.601,27.339-10.784c5.247-7.431,8.068-15.453,8.068-22.942l-17.424,10.06
								C277.018,260.725,275.415,262.188,274.625,263.307z"/>
							<path id="XMLID_3373_" style="fill:#FFFFFF;" d="M259.486,283.187l14.404-20.399l0,0c0.866-1.226,2.564-2.776,3.865-3.528
								l17.424-10.06c0.279-0.161,0.622-0.161,0.9,0c0.279,0.161,0.45,0.458,0.45,0.78c-0.001,7.72-2.85,15.836-8.233,23.461
								c-5.786,8.194-13.222,13.415-19.893,13.965c-3.502,0.29-6.553-0.771-8.822-3.068c-0.287-0.291-0.34-0.734-0.139-1.082
								C259.455,283.233,259.47,283.21,259.486,283.187z M294.686,251.563l-16.031,9.256c-1.072,0.619-2.581,1.996-3.294,3.007
								l-13.951,19.757c1.819,1.55,4.169,2.25,6.845,2.029c6.055-0.5,13.171-5.561,18.57-13.21c0.913-1.293,1.75-2.599,2.509-3.913
								C292.567,262.889,294.393,257.128,294.686,251.563z"/>
						</g>
					</g>
				</g>
				<g id="XMLID_641_">
					<g id="XMLID_643_">
						<g id="XMLID_645_">
							<path id="XMLID_3369_" style="fill-rule:evenodd;clip-rule:evenodd;fill:#27DEBF;" d="M275.266,258.928l-5.258-15.651
								c-10.28,9.793-15.907,25.791-12.566,35.734c0.668,1.988,1.509,3.409,2.78,4.695l14.403-20.4
								C275.415,262.188,275.702,260.227,275.266,258.928z"/>
							<path id="XMLID_3037_" style="fill:#FFFFFF;" d="M269.387,242.626c0.222-0.213,0.539-0.296,0.837-0.222
								c0.299,0.074,0.539,0.296,0.637,0.587l5.259,15.651c0.525,1.562,0.19,3.843-0.759,5.185l-14.404,20.4
								c-0.154,0.217-0.396,0.355-0.661,0.378c-0.266,0.022-0.527-0.075-0.714-0.264c-1.362-1.378-2.285-2.933-2.993-5.041
								c-2.428-7.229-0.271-17.566,4.908-26.538C263.643,249.042,266.311,245.555,269.387,242.626z M273.89,262.788
								c0.626-0.877,0.867-2.55,0.523-3.573l0,0l-4.798-14.283c-9.389,9.618-14.442,24.495-11.319,33.793
								c0.486,1.447,1.06,2.557,1.844,3.538L273.89,262.788z"/>
						</g>
					</g>
				</g>
				<g id="XMLID_603_">
					<g id="XMLID_604_">
						<g id="XMLID_605_">
							<path id="XMLID_2977_" style="fill-rule:evenodd;clip-rule:evenodd;fill:#27DEBF;" d="M277.487,259.253l14.404-20.399
								c-5.083-5.144-13.658-3.41-21.883,4.424l5.258,15.651C275.702,260.227,276.697,260.373,277.487,259.253z"/>
							<path id="XMLID_800_" style="opacity:0.1;fill-rule:evenodd;clip-rule:evenodd;" d="M277.487,259.253l14.404-20.399
								c-5.083-5.144-13.658-3.41-21.883,4.424l5.258,15.651C275.702,260.227,276.697,260.373,277.487,259.253z"/>
							<path id="XMLID_2972_" style="fill:#FFFFFF;" d="M269.387,242.626c8.605-8.196,17.689-9.924,23.145-4.405
								c0.306,0.31,0.349,0.797,0.095,1.152l-14.404,20.399c-0.579,0.82-1.348,1.227-2.109,1.116
								c-0.761-0.111-1.381-0.721-1.702-1.674l-5.258-15.651c-0.083-0.248-0.053-0.517,0.074-0.737
								C269.27,242.754,269.324,242.686,269.387,242.626z M290.703,238.975c-4.677-4.03-12.257-2.287-19.659,4.563l5.075,15.103
								c0.11,0.328,0.237,0.453,0.236,0.465c0.038-0.007,0.196-0.089,0.396-0.373L290.703,238.975z"/>
						</g>
					</g>
				</g>
				<g id="XMLID_599_">
					<g id="XMLID_600_">
						<g id="XMLID_601_">
							<path id="XMLID_2965_" style="fill-rule:evenodd;clip-rule:evenodd;fill:#27DEBF;" d="M278.205,260.04l17.424-10.06
								c0-4.993-1.197-8.554-3.738-11.126l-14.404,20.399C276.697,260.373,277.018,260.725,278.205,260.04z"/>
							<path id="XMLID_832_" style="opacity:0.2;fill-rule:evenodd;clip-rule:evenodd;" d="M278.205,260.04l17.424-10.06
								c0-4.993-1.197-8.554-3.738-11.126l-14.404,20.399C276.697,260.373,277.018,260.725,278.205,260.04z"/>
							<path id="XMLID_885_" style="fill:#FFFFFF;" d="M276.752,258.734l14.404-20.399c0.154-0.217,0.396-0.356,0.662-0.378
								c0.266-0.022,0.527,0.075,0.714,0.264c2.727,2.76,3.998,6.497,3.998,11.759c-0.001,0.321-0.172,0.618-0.45,0.78
								l-17.424,10.059c-0.375,0.217-1.517,0.876-2.215,0.111c-0.516-0.564-0.237-1.299,0.045-1.787
								C276.585,258.97,276.686,258.827,276.752,258.734z M291.975,240.297l-12.819,18.154l15.569-8.988
								C294.655,245.482,293.772,242.529,291.975,240.297z"/>
						</g>
					</g>
				</g>
			</g>
		</g>
	</g>
</g>
<g id="Speach_Bubbles_1_">
	<g id="Speach_Bubbles_2_">
		<g id="XMLID_49_">
			<path id="XMLID_57_" style="fill:#263238;" d="M413.746,186.501c-1.579-0.912-4.225-0.863-5.908,0.109l-91.133,52.616
				c-1.684,0.972-3.048,3.336-3.048,5.28l0,25.981c0,1.944,1.28,4.259,2.859,5.171c1.579,0.912,4.224,0.863,5.908-0.109
				l91.133-52.616c1.684-0.972,3.048-3.336,3.048-5.28l0-25.981C416.605,189.728,415.325,187.413,413.746,186.501z"/>
			<path id="XMLID_56_" style="fill:#455A64;" d="M416.565,191.122c-0.243-1.54-1.494-2.08-3.007-1.206l-37.991,21.93l-53.141,30.68
				c-0.837,0.486-1.602,1.323-2.161,2.278l-5.717-3.304c0.549-0.954,1.314-1.792,2.152-2.278l91.141-52.61
				c1.684-0.972,4.321-1.026,5.906-0.108C415.179,187.332,416.367,189.312,416.565,191.122z"/>
			<path id="XMLID_55_" style="fill:#37474F;" d="M319.375,247.808v25.981c0,1.944,1.365,2.732,3.049,1.76l91.133-52.616
				c1.684-0.972,3.048-3.336,3.048-5.28l0-25.981c0-1.944-1.365-2.732-3.048-1.76l-37.989,21.933l-53.144,30.683
				C320.74,243.5,319.375,245.864,319.375,247.808z"/>
			<g id="stars_3_">
				<path id="XMLID_54_" style="fill:#27DEBF;" d="M334.868,244.01l1.489,3.162c0.094,0.199,0.275,0.27,0.485,0.19l3.329-1.277
					c0.529-0.203,0.74,0.542,0.357,1.26l-2.409,4.521c-0.152,0.285-0.221,0.609-0.185,0.868l0.569,4.092
					c0.09,0.65-0.462,1.504-0.935,1.446l-2.977-0.368c-0.188-0.023-0.412,0.106-0.6,0.346l-2.977,3.806
					c-0.473,0.604-1.026,0.388-0.935-0.366l0.569-4.748c0.036-0.3-0.034-0.544-0.186-0.654l-2.409-1.74
					c-0.383-0.276-0.172-1.265,0.357-1.672l3.329-2.567c0.21-0.162,0.391-0.443,0.485-0.75l1.489-4.881
					C333.948,243.902,334.632,243.508,334.868,244.01z"/>
				<path id="XMLID_53_" style="fill:#27DEBF;" d="M351.718,234.363l1.489,3.162c0.094,0.199,0.275,0.271,0.485,0.19l3.329-1.277
					c0.529-0.203,0.74,0.542,0.357,1.26l-2.409,4.521c-0.152,0.285-0.221,0.61-0.186,0.868l0.569,4.092
					c0.09,0.65-0.462,1.504-0.935,1.446l-2.977-0.368c-0.188-0.023-0.412,0.106-0.6,0.346l-2.977,3.806
					c-0.473,0.605-1.026,0.388-0.935-0.366l0.569-4.749c0.036-0.3-0.033-0.544-0.185-0.654l-2.409-1.74
					c-0.383-0.276-0.171-1.265,0.357-1.672l3.329-2.567c0.21-0.162,0.392-0.443,0.485-0.75l1.489-4.881
					C350.798,234.255,351.481,233.86,351.718,234.363z"/>
				<path id="XMLID_52_" style="fill:#27DEBF;" d="M368.568,224.715l1.489,3.162c0.094,0.2,0.276,0.271,0.485,0.19l3.329-1.277
					c0.529-0.203,0.74,0.542,0.357,1.26l-2.409,4.521c-0.152,0.285-0.221,0.61-0.185,0.868l0.569,4.092
					c0.09,0.65-0.462,1.505-0.935,1.446l-2.977-0.368c-0.188-0.023-0.412,0.106-0.6,0.346l-2.977,3.806
					c-0.473,0.604-1.026,0.388-0.935-0.366l0.568-4.749c0.036-0.299-0.033-0.544-0.185-0.654l-2.409-1.74
					c-0.383-0.276-0.172-1.264,0.357-1.672l3.329-2.567c0.21-0.162,0.391-0.443,0.485-0.75l1.489-4.881
					C367.648,224.607,368.332,224.213,368.568,224.715z"/>
				<path id="XMLID_51_" style="fill:#27DEBF;" d="M385.418,215.068l1.489,3.162c0.094,0.199,0.275,0.271,0.485,0.19l3.329-1.277
					c0.529-0.203,0.74,0.542,0.357,1.26l-2.409,4.521c-0.152,0.285-0.221,0.61-0.185,0.868l0.569,4.092
					c0.09,0.65-0.462,1.505-0.935,1.446l-2.977-0.368c-0.188-0.023-0.412,0.106-0.6,0.346l-2.977,3.806
					c-0.473,0.604-1.026,0.388-0.935-0.366l0.569-4.748c0.036-0.3-0.034-0.544-0.186-0.654l-2.409-1.74
					c-0.383-0.277-0.171-1.265,0.357-1.672l3.329-2.567c0.21-0.162,0.391-0.443,0.485-0.751l1.489-4.881
					C384.498,214.96,385.181,214.565,385.418,215.068z"/>
				<path id="XMLID_50_" style="fill:#27DEBF;" d="M402.268,205.42l1.489,3.162c0.094,0.2,0.275,0.27,0.485,0.19l3.329-1.277
					c0.529-0.203,0.74,0.542,0.357,1.26l-2.409,4.521c-0.152,0.285-0.221,0.61-0.185,0.868l0.568,4.092
					c0.09,0.65-0.462,1.504-0.935,1.446l-2.977-0.368c-0.188-0.023-0.412,0.106-0.6,0.347l-2.977,3.806
					c-0.473,0.605-1.025,0.388-0.935-0.366l0.569-4.749c0.036-0.299-0.033-0.544-0.185-0.654l-2.409-1.74
					c-0.383-0.276-0.171-1.265,0.357-1.672l3.329-2.567c0.21-0.162,0.391-0.442,0.485-0.75l1.489-4.881
					C401.348,205.312,402.031,204.918,402.268,205.42z"/>
			</g>
		</g>
		<g id="XMLID_35_">
			<g id="XMLID_41_">
				<g id="XMLID_46_">
					<path id="XMLID_48_" style="fill:#27DEBF;" d="M332.363,227.369l-4.987-2.881c-0.099-0.045-0.18-0.108-0.234-0.207
						l-0.918-1.603l2.962-1.71l-0.09,0.261L332.363,227.369z"/>
					<path id="XMLID_47_" style="opacity:0.2;" d="M332.363,227.369l-4.987-2.881c-0.099-0.045-0.18-0.108-0.234-0.207l-0.918-1.603
						l2.962-1.71l-0.09,0.261L332.363,227.369z"/>
				</g>
				<path id="XMLID_45_" style="fill:#27DEBF;" d="M328.734,221.212l3.452,5.979c0.22,0.382,0.788,0.328,0.933-0.089l3.648-10.531
					L328.734,221.212z"/>
				<path id="XMLID_44_" style="fill:#27DEBF;" d="M415.967,137.603c0-1.538-1.08-3.409-2.412-4.178l-0.001-0.001
					c-1.332-0.769-3.492-0.769-4.824,0l-92.662,53.465c-1.332,0.769-2.412,2.639-2.412,4.178v30.508c0,1.538,1.08,3.409,2.412,4.178
					l0.001,0.001c1.332,0.769,3.492,0.769,4.824,0l92.887-53.628c2.167-1.235,2.187-2.476,2.187-4.014L415.967,137.603z"/>
				<path id="XMLID_43_" style="opacity:0.2;" d="M313.656,221.575c0,1.538,1.08,3.409,2.412,4.178l0.001,0.001
					c1.204,0.695,3.078,0.764,4.412,0.202c-1.135,0.429-2-0.219-2-1.595l0-30.508c0-0.769,0.27-1.621,0.706-2.377l-4.825-2.786
					c-0.436,0.756-0.706,1.608-0.706,2.377V221.575z"/>
				<path id="XMLID_42_" style="opacity:0.4;fill:#FFFFFF;" d="M415.889,136.917c-0.281-1.024-1.215-1.35-2.329-0.709
					l-92.667,53.469c-0.664,0.383-1.271,1.035-1.699,1.801l-4.823-2.783c0.439-0.765,1.035-1.418,1.699-1.801l92.656-53.469
					c1.339-0.765,3.5-0.765,4.828,0l0.007,0.003C414.696,134.082,415.652,135.545,415.889,136.917z"/>
			</g>
			<g id="XMLID_36_">
				<path id="XMLID_40_" style="fill:#FFFFFF;" d="M324.964,194.385l83.21-48.132c0.807-0.466,1.462-0.253,1.462,0.476
					c0,0.729-0.655,1.698-1.462,2.164l-83.21,48.132c-0.807,0.466-1.462,0.253-1.462-0.475
					C323.502,195.82,324.157,194.852,324.964,194.385z"/>
				<path id="XMLID_39_" style="fill:#FFFFFF;" d="M324.964,207.991l71.366-41.204c0.807-0.466,1.462-0.253,1.462,0.476
					c0,0.729-0.655,1.698-1.462,2.164l-71.366,41.204c-0.807,0.466-1.462,0.253-1.462-0.475
					C323.502,209.426,324.157,208.457,324.964,207.991z"/>
				<path id="XMLID_38_" style="fill:#FFFFFF;" d="M324.964,214.616l81.504-47.116c0.807-0.466,1.462-0.253,1.462,0.476
					c0,0.729-0.655,1.698-1.462,2.164l-81.504,47.115c-0.807,0.466-1.462,0.253-1.462-0.475
					C323.502,216.051,324.157,215.082,324.964,214.616z"/>
				<path id="XMLID_37_" style="fill:#FFFFFF;" d="M324.964,201.037l81.504-47.116c0.807-0.466,1.462-0.253,1.462,0.476
					c0,0.729-0.655,1.697-1.462,2.164l-81.504,47.115c-0.807,0.466-1.462,0.253-1.462-0.476S324.157,201.503,324.964,201.037z"/>
			</g>
		</g>
		<g id="XMLID_26_">
			<path id="XMLID_34_" style="fill:#263238;" d="M413.746,85.19c-1.579-0.912-4.225-0.863-5.908,0.109l-91.133,52.616
				c-1.684,0.972-3.048,3.336-3.048,5.28l0,25.981c0,1.944,1.28,4.259,2.859,5.171c1.579,0.912,4.224,0.863,5.908-0.109
				l91.133-52.616c1.684-0.972,3.048-3.336,3.048-5.28l0-25.981C416.605,88.416,415.325,86.101,413.746,85.19z"/>
			<path id="XMLID_33_" style="fill:#455A64;" d="M416.565,89.81c-0.243-1.539-1.494-2.079-3.007-1.206l-37.991,21.93l-53.141,30.68
				c-0.837,0.486-1.602,1.323-2.161,2.278l-5.717-3.304c0.549-0.954,1.314-1.792,2.152-2.278l91.141-52.61
				c1.684-0.972,4.321-1.026,5.906-0.108C415.179,86.02,416.367,88.001,416.565,89.81z"/>
			<path id="XMLID_32_" style="fill:#37474F;" d="M319.375,146.496v25.981c0,1.944,1.365,2.732,3.049,1.76l91.133-52.616
				c1.684-0.972,3.048-3.336,3.048-5.28l0-25.981c0-1.944-1.365-2.732-3.048-1.76l-37.989,21.933l-53.144,30.683
				C320.74,142.188,319.375,144.552,319.375,146.496z"/>
			<g id="stars_2_">
				<path id="XMLID_31_" style="fill:#27DEBF;" d="M334.868,142.698l1.489,3.162c0.094,0.199,0.275,0.27,0.485,0.19l3.329-1.277
					c0.529-0.203,0.74,0.542,0.357,1.26l-2.409,4.521c-0.152,0.285-0.221,0.61-0.185,0.868l0.569,4.092
					c0.09,0.65-0.462,1.504-0.935,1.446l-2.977-0.368c-0.188-0.023-0.412,0.106-0.6,0.346l-2.977,3.806
					c-0.473,0.605-1.026,0.388-0.935-0.366l0.569-4.748c0.036-0.3-0.034-0.544-0.186-0.654l-2.409-1.74
					c-0.383-0.276-0.172-1.264,0.357-1.672l3.329-2.567c0.21-0.162,0.391-0.443,0.485-0.75l1.489-4.881
					C333.948,142.59,334.632,142.196,334.868,142.698z"/>
				<path id="XMLID_30_" style="fill:#27DEBF;" d="M351.718,133.051l1.489,3.162c0.094,0.2,0.275,0.271,0.485,0.19l3.329-1.277
					c0.529-0.203,0.74,0.542,0.357,1.26l-2.409,4.521c-0.152,0.285-0.221,0.61-0.186,0.868l0.569,4.092
					c0.09,0.65-0.462,1.505-0.935,1.446l-2.977-0.368c-0.188-0.023-0.412,0.106-0.6,0.346l-2.977,3.806
					c-0.473,0.605-1.026,0.388-0.935-0.366l0.569-4.749c0.036-0.3-0.033-0.544-0.185-0.654l-2.409-1.74
					c-0.383-0.277-0.171-1.265,0.357-1.672l3.329-2.567c0.21-0.162,0.392-0.443,0.485-0.75l1.489-4.881
					C350.798,132.943,351.481,132.549,351.718,133.051z"/>
				<path id="XMLID_29_" style="fill:#27DEBF;" d="M368.568,123.404l1.489,3.162c0.094,0.199,0.276,0.27,0.485,0.19l3.329-1.277
					c0.529-0.203,0.74,0.542,0.357,1.26l-2.409,4.521c-0.152,0.285-0.221,0.61-0.185,0.868l0.569,4.092
					c0.09,0.65-0.462,1.504-0.935,1.446l-2.977-0.368c-0.188-0.023-0.412,0.106-0.6,0.346l-2.977,3.806
					c-0.473,0.604-1.026,0.388-0.935-0.366l0.568-4.749c0.036-0.299-0.033-0.544-0.185-0.654l-2.409-1.74
					c-0.383-0.276-0.172-1.265,0.357-1.672l3.329-2.567c0.21-0.162,0.391-0.443,0.485-0.751l1.489-4.881
					C367.648,123.296,368.332,122.901,368.568,123.404z"/>
				<path id="XMLID_28_" style="fill:#27DEBF;" d="M385.418,113.756l1.489,3.162c0.094,0.199,0.275,0.271,0.485,0.19l3.329-1.277
					c0.529-0.203,0.74,0.542,0.357,1.26l-2.409,4.521c-0.152,0.285-0.221,0.61-0.185,0.868l0.569,4.092
					c0.09,0.65-0.462,1.505-0.935,1.446l-2.977-0.368c-0.188-0.023-0.412,0.106-0.6,0.346l-2.977,3.806
					c-0.473,0.605-1.026,0.388-0.935-0.366l0.569-4.748c0.036-0.3-0.034-0.544-0.186-0.654l-2.409-1.74
					c-0.383-0.276-0.171-1.265,0.357-1.672l3.329-2.567c0.21-0.162,0.391-0.442,0.485-0.75l1.489-4.881
					C384.498,113.648,385.181,113.254,385.418,113.756z"/>
				<path id="XMLID_27_" style="fill:#455A64;" d="M402.268,104.109l1.489,3.162c0.094,0.2,0.275,0.271,0.485,0.19l3.329-1.277
					c0.529-0.203,0.74,0.542,0.357,1.26l-2.409,4.521c-0.152,0.285-0.221,0.61-0.185,0.868l0.568,4.092
					c0.09,0.65-0.462,1.504-0.935,1.446l-2.977-0.368c-0.188-0.023-0.412,0.106-0.6,0.346l-2.977,3.806
					c-0.473,0.605-1.025,0.388-0.935-0.366l0.569-4.749c0.036-0.299-0.033-0.544-0.185-0.654l-2.409-1.74
					c-0.383-0.276-0.171-1.264,0.357-1.672l3.329-2.567c0.21-0.162,0.391-0.442,0.485-0.75l1.489-4.881
					C401.348,104.001,402.031,103.606,402.268,104.109z"/>
			</g>
		</g>
		<g id="XMLID_12_">
			<g id="XMLID_18_">
				<g id="XMLID_23_">
					<path id="XMLID_25_" style="fill:#27DEBF;" d="M332.363,126.057l-4.987-2.881c-0.099-0.045-0.18-0.108-0.234-0.207
						l-0.918-1.603l2.962-1.71l-0.09,0.261L332.363,126.057z"/>
					<path id="XMLID_24_" style="opacity:0.2;" d="M332.363,126.057l-4.987-2.881c-0.099-0.045-0.18-0.108-0.234-0.207l-0.918-1.603
						l2.962-1.71l-0.09,0.261L332.363,126.057z"/>
				</g>
				<path id="XMLID_22_" style="fill:#27DEBF;" d="M328.734,119.9l3.452,5.979c0.22,0.382,0.788,0.328,0.933-0.089l3.648-10.531
					L328.734,119.9z"/>
				<path id="XMLID_21_" style="fill:#27DEBF;" d="M415.967,36.291c0-1.538-1.08-3.409-2.412-4.178l-0.001,0
					c-1.332-0.769-3.492-0.769-4.824,0l-92.662,53.465c-1.332,0.769-2.412,2.639-2.412,4.178v30.508c0,1.538,1.08,3.409,2.412,4.178
					l0.001,0.001c1.332,0.769,3.492,0.769,4.824,0l92.887-53.628c2.167-1.235,2.187-2.476,2.187-4.014L415.967,36.291z"/>
				<path id="XMLID_20_" style="opacity:0.2;" d="M313.656,120.263c0,1.538,1.08,3.409,2.412,4.178l0.001,0.001
					c1.204,0.695,3.078,0.764,4.412,0.202c-1.135,0.429-2-0.219-2-1.595l0-30.508c0-0.769,0.27-1.621,0.706-2.377l-4.825-2.786
					c-0.436,0.756-0.706,1.608-0.706,2.377V120.263z"/>
				<path id="XMLID_19_" style="opacity:0.4;fill:#FFFFFF;" d="M415.889,35.606c-0.281-1.024-1.215-1.35-2.329-0.709l-92.667,53.469
					c-0.664,0.383-1.271,1.035-1.699,1.8l-4.823-2.783c0.439-0.765,1.035-1.418,1.699-1.8l92.656-53.469
					c1.339-0.765,3.5-0.765,4.828,0l0.007,0.003C414.696,32.77,415.652,34.233,415.889,35.606z"/>
			</g>
			<g id="XMLID_13_">
				<path id="XMLID_17_" style="fill:#FFFFFF;" d="M324.964,93.074l83.21-48.132c0.807-0.466,1.462-0.253,1.462,0.476
					c0,0.729-0.655,1.698-1.462,2.164l-83.21,48.132c-0.807,0.466-1.462,0.253-1.462-0.476
					C323.502,94.509,324.157,93.54,324.964,93.074z"/>
				<path id="XMLID_16_" style="fill:#FFFFFF;" d="M324.964,106.68l71.366-41.204c0.807-0.466,1.462-0.253,1.462,0.476
					c0,0.729-0.655,1.698-1.462,2.164l-71.366,41.204c-0.807,0.466-1.462,0.253-1.462-0.475S324.157,107.146,324.964,106.68z"/>
				<path id="XMLID_15_" style="fill:#FFFFFF;" d="M324.964,113.304l81.504-47.116c0.807-0.466,1.462-0.253,1.462,0.476
					c0,0.729-0.655,1.698-1.462,2.164l-81.504,47.115c-0.807,0.466-1.462,0.253-1.462-0.476
					C323.502,114.739,324.157,113.77,324.964,113.304z"/>
				<path id="XMLID_14_" style="fill:#FFFFFF;" d="M324.964,99.725l81.504-47.116c0.807-0.466,1.462-0.253,1.462,0.476
					c0,0.729-0.655,1.697-1.462,2.164l-81.504,47.115c-0.807,0.466-1.462,0.253-1.462-0.476S324.157,100.192,324.964,99.725z"/>
			</g>
		</g>
	</g>
</g>
<g id="Pencil_1_">
	<g id="Pencil">
		<g id="XMLID_3678_">
			<g id="XMLID_3679_">
				<path id="XMLID_3716_" style="fill:#FFA8A7;" d="M359.581,283.495l35.048-6.865c1.019-0.199,1.711,1.007,1.023,1.786
					l-23.777,26.925L359.581,283.495z"/>
				<path id="XMLID_3714_" style="fill:#27DEBF;" d="M395.652,278.416c0.687-0.778-0.004-1.985-1.023-1.785l-6.843,1.34l0,0
					c1.916,1.188,3.008,3.347,2.829,5.594l-0.049,0.611L395.652,278.416z"/>
				<path id="XMLID_3713_" style="fill:#37474F;" d="M241.187,380.288l2.866-1.646l3.468-1.972l124.354-71.325
					c1.299-3.808,0.668-7.976-0.976-11.624c-2.485-5.564-7.313-9.954-11.31-10.211l-124.277,71.285l-6.613,3.795
					C233.116,356.371,245.588,378.002,241.187,380.288z"/>
				<path id="XMLID_3712_" style="fill:#EBEBEB;" d="M252.123,374.062l6.397-3.684c1.89-1.006,0.807-5.645-1.404-10.444
					c-2.921-6.383-8.674-12.56-11.181-11.231l-4.72,2.707l-1.671,0.998c2.507-1.329,8.265,4.847,11.186,11.229
					c2.113,4.602,3.185,9.077,1.583,10.293l-0.019,0.012C252.25,373.995,252.194,374.03,252.123,374.062z"/>
				<path id="XMLID_3705_" style="fill:#27DEBF;" d="M253.711,373.128c4.393-2.328-8.185-23.989-12.578-21.661l-6.415,3.667
					c4.394-2.328,16.97,19.329,12.576,21.658L253.711,373.128z"/>
				<path id="XMLID_3699_" style="fill:#EBEBEB;" d="M241.187,380.288l6.334-3.619c4.33-2.255-7.63-23.258-12.209-21.874
					c-0.083,0.013-0.173,0.057-0.262,0.1l-6.351,3.694C233.116,356.371,245.588,378.002,241.187,380.288z"/>
				<path id="XMLID_4205_" style="opacity:0.15;" d="M395.812,277.237l-1.184-0.606l-25.432,13.909l-131.495,75.452
					c-0.246-0.393-0.448-0.42-0.613-0.149c3.738,5.826,6.562,13.165,4.098,14.445l2.867-1.646l3.467-1.972l124.354-71.325
					c0-0.001,0.001-0.003,0.001-0.004l23.776-26.924C395.973,278.053,395.985,277.6,395.812,277.237z"/>
				<path id="XMLID_3680_" style="fill:#F28F8F;" d="M214.322,395.66l26.865-15.372c1.883-0.976,0.839-5.573-1.331-10.347
					c-2.902-6.394-8.632-12.628-11.158-11.351c-0.015-0.004-0.015-0.004-0.034,0.008l-26.949,15.432
					c-5.351,3.089-0.429,14.715,5.541,19.908C209.477,395.897,211.962,396.767,214.322,395.66z"/>
			</g>
		</g>
		<path id="XMLID_4206_" style="opacity:0.1;" d="M215.924,387.327c-1.541-6.055-6.447-11.993-10.958-13.262
			c-1.656-0.466-3.024-0.233-4.021,0.541c-4.042,3.751,0.663,14.419,6.312,19.332c2.177,1.921,4.607,2.783,6.927,1.772
			C216.195,394.532,216.969,391.433,215.924,387.327z"/>
	</g>
</g>
</svg>
